{"glyphs":{"0":{"ha":694,"x_min":54,"x_max":639,"o":"m 639 444 q 588 131 639 242 q 346 -31 513 -31 q 220 1 283 -31 q 117 110 157 33 q 54 444 54 225 q 106 760 54 649 q 347 925 178 925 q 421 915 383 925 q 506 868 458 906 q 583 769 554 831 q 639 444 639 651 m 524 461 q 510 732 524 654 q 443 858 492 822 q 346 894 394 894 q 308 889 328 894 q 261 868 289 883 q 212 814 233 853 q 181 717 190 775 q 169 461 169 642 q 185 168 169 251 q 248 39 201 78 q 346 0 294 0 q 448 42 401 0 q 508 174 494 83 q 524 461 524 263 z "},"1":{"ha":694,"x_min":124,"x_max":582,"o":"m 582 0 q 357 4 533 4 q 132 0 181 4 l 132 43 l 176 43 q 285 56 264 43 q 306 110 306 68 l 306 829 q 124 793 233 793 l 124 836 q 376 925 290 836 q 404 919 400 925 q 408 889 408 914 l 408 110 q 428 56 408 68 q 538 43 449 43 l 582 43 l 582 0 z "},"2":{"ha":694,"x_min":69,"x_max":624,"o":"m 624 242 l 585 0 l 69 0 q 72 33 69 25 q 85 51 74 40 l 351 349 q 497 656 497 513 q 449 815 497 749 q 311 882 400 882 q 199 844 250 882 q 124 740 147 807 q 142 742 128 742 q 196 720 176 742 q 215 669 215 699 q 191 614 215 632 q 143 596 167 596 q 121 598 133 596 q 89 619 108 600 q 69 674 69 639 q 143 848 69 771 q 329 925 217 925 q 540 849 457 925 q 624 656 624 774 q 611 576 624 614 q 582 510 599 539 q 521 434 565 481 q 440 354 476 388 q 324 250 404 321 l 176 107 l 426 107 q 558 118 549 107 q 589 242 572 138 l 624 242 z "},"3":{"ha":694,"x_min":58,"x_max":635,"o":"m 635 238 q 549 49 635 129 q 339 -31 464 -31 q 141 32 224 -31 q 58 188 58 94 q 82 249 58 229 q 136 268 106 268 q 191 247 168 268 q 214 190 214 226 q 187 130 214 151 q 122 114 160 108 q 217 33 156 58 q 335 8 278 8 q 443 60 394 8 q 492 238 492 111 q 450 406 492 344 q 326 468 408 468 l 265 468 q 238 470 244 468 q 232 483 232 472 q 253 500 232 497 q 307 504 274 500 q 431 576 388 507 q 469 735 469 642 q 429 855 469 819 q 336 890 389 890 q 234 870 288 890 q 151 804 181 850 q 238 735 238 804 q 218 684 238 704 q 167 664 199 664 q 116 683 136 664 q 96 736 96 703 q 167 870 96 815 q 342 925 238 925 q 521 871 444 925 q 597 733 597 817 q 543 584 597 651 q 403 489 489 517 q 572 397 508 468 q 635 238 635 325 z "},"4":{"ha":694,"x_min":39,"x_max":654,"o":"m 654 229 l 515 229 l 515 108 q 532 56 515 68 q 621 43 549 43 l 650 43 l 650 0 q 461 4 593 4 q 274 0 331 4 l 274 43 l 303 43 q 392 56 375 43 q 408 108 408 68 l 408 229 l 39 229 l 39 272 l 465 924 q 493 940 476 940 q 506 939 501 940 q 513 932 510 938 q 515 922 515 926 q 515 904 515 917 l 515 272 l 654 272 l 654 229 m 417 272 l 417 790 l 78 272 l 417 272 z "},"5":{"ha":694,"x_min":69,"x_max":624,"o":"m 624 279 q 533 59 624 149 q 321 -31 443 -31 q 140 49 210 -31 q 69 224 69 128 q 92 281 69 265 q 138 297 114 297 q 188 277 169 297 q 207 229 207 257 q 188 181 207 201 q 138 161 169 161 q 114 164 122 161 q 188 54 132 100 q 318 8 244 8 q 467 99 411 8 q 500 289 500 157 q 475 464 500 406 q 357 553 436 553 q 178 456 244 553 q 160 443 169 443 q 143 450 146 443 q 140 479 140 457 l 140 890 q 154 924 140 924 q 171 919 160 924 q 356 881 258 881 q 544 921 456 881 l 556 925 q 569 910 569 925 q 558 888 569 904 q 524 851 547 872 q 469 811 500 831 q 394 778 439 792 q 301 765 350 765 q 183 783 243 765 l 183 513 q 360 583 256 583 q 547 494 471 583 q 624 279 624 404 z "},"6":{"ha":694,"x_min":58,"x_max":635,"o":"m 635 283 q 551 59 635 149 q 349 -31 467 -31 q 248 -8 296 -31 q 156 64 200 14 q 85 210 111 114 q 58 439 58 307 q 169 791 58 657 q 424 925 281 925 q 553 883 507 925 q 600 775 600 840 q 579 724 600 739 q 536 708 558 708 q 492 725 511 708 q 472 772 472 742 q 549 835 472 835 q 426 890 513 890 q 373 883 400 890 q 310 849 346 875 q 248 783 275 824 q 202 665 221 742 q 183 489 183 589 l 183 456 q 357 593 240 593 q 554 504 474 593 q 635 283 635 415 m 510 285 q 485 475 510 424 q 356 561 442 561 q 257 521 297 561 q 201 427 217 481 q 186 314 186 374 q 211 113 186 178 q 224 87 215 101 q 249 53 233 72 q 292 21 265 33 q 349 8 318 8 q 486 99 442 8 q 510 285 510 149 z "},"7":{"ha":694,"x_min":78,"x_max":674,"o":"m 674 894 q 661 846 674 863 l 474 582 q 388 344 414 499 q 372 117 372 242 l 372 46 q 308 -31 372 -31 q 244 46 244 -31 q 415 568 244 311 l 571 788 l 283 788 q 147 779 157 788 q 113 653 133 767 l 78 653 l 124 939 l 158 939 q 169 915 163 922 q 216 901 176 907 q 336 894 256 894 l 674 894 z "},"8":{"ha":694,"x_min":58,"x_max":635,"o":"m 635 233 q 549 46 635 122 q 346 -31 464 -31 q 144 37 231 -31 q 58 210 58 104 q 258 465 58 365 q 157 540 172 524 q 96 693 96 608 q 169 858 96 790 q 347 925 243 925 q 522 867 447 925 q 597 718 597 810 q 429 503 597 589 q 567 404 540 433 q 635 233 635 329 m 536 718 q 480 841 536 792 q 346 890 424 890 q 213 850 269 890 q 157 747 157 810 q 226 635 157 681 l 399 524 q 536 718 536 604 m 565 183 q 556 238 565 213 q 526 283 546 263 q 495 312 507 303 q 461 336 483 321 l 290 444 q 128 210 128 354 q 192 66 128 124 q 347 8 257 8 q 500 58 435 8 q 565 183 565 108 z "},"9":{"ha":694,"x_min":58,"x_max":635,"o":"m 635 457 q 531 106 635 242 q 286 -31 426 -31 q 145 10 197 -31 q 93 119 93 50 q 113 171 93 156 q 157 186 133 186 q 201 169 182 186 q 221 122 221 153 q 205 78 221 97 q 149 58 189 58 q 285 8 189 8 q 354 24 319 8 q 426 79 389 40 q 487 200 464 118 q 510 397 510 282 l 510 442 q 336 303 454 303 q 139 392 219 303 q 58 613 58 482 q 80 737 58 686 q 147 838 101 788 q 351 925 231 925 q 449 903 403 925 q 538 833 494 882 q 608 687 582 783 q 635 457 635 590 m 507 585 q 485 781 507 721 q 351 890 443 890 q 213 803 260 890 q 183 611 183 751 q 208 422 183 474 q 338 335 251 335 q 465 410 422 335 q 507 585 507 486 z "}," ":{"ha":461,"x_min":0,"x_max":0,"o":""},"!":{"ha":386,"x_min":119,"x_max":267,"o":"m 267 924 l 213 290 q 193 260 211 260 q 181 264 185 260 q 176 274 176 268 q 174 292 175 279 l 119 924 q 142 975 119 956 q 193 994 164 994 q 244 975 222 994 q 267 924 267 956 m 245 126 q 256 115 245 126 q 267 74 267 104 q 245 22 267 43 q 193 0 224 0 q 141 22 163 0 q 119 74 119 43 q 141 126 119 104 q 193 147 163 147 q 245 126 224 147 z "},"\"":{"ha":519,"x_min":143,"x_max":376,"o":"m 242 931 l 211 588 l 175 588 l 144 931 q 158 965 143 951 q 193 979 172 979 q 228 965 214 979 q 242 931 243 951 m 375 931 l 344 588 l 308 588 l 278 931 q 291 965 276 951 q 326 979 306 979 q 362 965 347 979 q 375 931 376 951 z "},"#":{"ha":1157,"x_min":78,"x_max":1078,"o":"m 1031 240 q 1078 213 1078 240 q 1032 185 1078 185 l 721 185 l 608 -236 q 603 -252 606 -247 q 594 -263 601 -257 q 578 -269 588 -269 q 558 -261 567 -269 q 550 -242 550 -253 q 556 -217 550 -228 l 664 185 l 403 185 l 290 -236 q 285 -252 288 -247 q 276 -263 283 -257 q 260 -269 269 -269 q 240 -261 249 -269 q 232 -242 232 -253 q 238 -217 232 -228 l 346 185 l 124 185 q 78 213 78 185 q 125 240 78 240 l 363 240 l 418 454 l 125 454 q 78 482 78 454 q 124 510 78 510 l 435 510 l 547 931 q 552 947 550 942 q 561 958 554 951 q 578 964 568 964 q 597 956 589 964 q 606 936 606 947 q 600 911 606 922 l 492 510 l 753 510 l 865 931 q 870 947 868 942 q 879 958 872 951 q 896 964 886 964 q 915 956 907 964 q 924 936 924 947 q 918 911 924 922 l 810 510 l 1032 510 q 1078 482 1078 510 q 1031 454 1078 454 l 793 454 l 738 240 l 1031 240 m 736 454 l 475 454 l 419 240 l 681 240 l 736 454 z "},"$":{"ha":694,"x_min":78,"x_max":615,"o":"m 615 271 q 545 78 615 161 q 368 -14 475 -4 l 368 -78 l 325 -78 l 325 -15 q 140 69 203 -7 q 78 247 78 144 q 86 287 78 271 q 107 308 94 303 q 127 316 119 314 q 142 318 135 318 q 187 300 168 318 q 206 254 206 282 q 188 208 206 226 q 142 190 169 190 q 119 193 131 190 q 185 79 133 124 q 325 29 238 35 l 325 443 q 258 461 279 454 q 208 485 238 468 q 154 526 179 501 q 102 601 126 553 q 78 713 78 650 q 146 890 78 813 q 325 978 214 968 l 325 1042 l 368 1042 l 368 979 q 549 906 483 974 q 615 735 615 838 q 599 687 615 704 q 571 667 582 669 q 551 665 560 665 q 507 682 526 665 q 488 729 488 699 q 506 776 488 758 q 551 793 524 793 q 574 790 563 793 q 505 891 557 851 q 368 935 453 931 l 368 560 q 432 542 411 549 q 483 517 453 535 q 540 469 514 499 q 567 438 553 457 q 598 370 581 418 q 615 271 615 322 m 544 229 q 540 272 544 249 q 519 329 535 294 q 465 392 504 364 q 368 432 426 419 l 368 29 q 496 97 447 39 q 544 229 544 156 m 325 571 l 325 935 q 197 874 246 926 q 149 754 149 821 q 150 727 149 740 q 162 688 151 714 q 189 642 172 663 q 241 601 206 622 q 325 571 276 581 z "},"%":{"ha":1157,"x_min":78,"x_max":1078,"o":"m 963 1014 q 951 989 963 1006 l 249 -57 q 221 -78 233 -78 q 201 -69 210 -78 q 193 -50 193 -61 q 206 -22 193 -40 l 829 907 l 828 908 q 643 860 756 860 q 433 918 536 860 q 463 761 463 846 q 410 563 463 644 q 282 482 358 482 q 139 561 200 482 q 78 763 78 640 q 139 962 78 882 q 282 1042 200 1042 q 382 997 332 1042 q 642 890 494 890 q 906 1022 808 890 q 935 1042 922 1042 q 954 1033 946 1042 q 963 1014 963 1025 m 1078 201 q 1026 3 1078 85 q 897 -78 974 -78 q 754 1 815 -78 q 693 203 693 81 q 754 402 693 322 q 897 482 815 482 q 1025 401 972 482 q 1078 201 1078 319 m 428 763 q 384 940 428 868 q 283 1011 340 1011 q 259 1008 271 1011 q 229 990 247 1004 q 197 950 211 975 q 174 876 183 925 q 164 761 164 826 q 174 647 164 696 q 197 574 183 599 q 230 534 211 549 q 260 516 249 519 q 283 513 272 513 q 384 583 340 513 q 428 763 428 654 m 1043 203 q 999 380 1043 308 q 899 451 956 451 q 874 448 886 451 q 844 430 863 444 q 813 390 826 415 q 789 316 799 365 q 779 201 779 267 q 789 88 779 136 q 813 14 799 39 q 845 -26 826 -11 q 876 -44 864 -40 q 899 -47 888 -47 q 999 24 956 -47 q 1043 203 1043 94 z "},"&":{"ha":1081,"x_min":58,"x_max":1010,"o":"m 1010 556 q 933 547 964 556 q 879 517 903 539 q 842 476 856 494 q 803 414 828 457 q 619 136 685 211 q 811 13 724 13 q 915 53 867 13 q 967 168 964 93 l 1001 168 q 943 25 1000 81 q 806 -31 886 -31 q 561 75 682 -31 q 310 -31 443 -31 q 132 29 206 -31 q 58 178 58 89 q 80 263 58 229 q 157 354 101 297 l 283 489 q 226 771 226 633 q 285 934 226 874 q 415 994 343 994 q 476 976 450 994 q 513 928 501 957 q 531 871 525 899 q 536 815 536 843 q 506 717 536 772 q 447 627 475 663 q 367 535 418 592 q 450 372 394 463 q 542 233 506 282 q 597 164 579 185 q 796 467 686 274 q 804 494 804 492 q 778 538 804 521 q 706 556 753 556 l 706 599 q 875 594 761 594 l 1010 599 l 1010 556 m 501 817 q 501 833 501 822 q 496 868 500 843 q 484 913 492 893 q 459 948 476 932 q 418 964 442 964 q 345 924 376 964 q 314 803 314 883 q 356 568 314 692 q 501 817 501 726 m 535 101 q 407 264 481 156 q 296 457 343 356 q 201 346 229 393 q 174 222 174 299 q 185 133 174 178 q 233 51 197 89 q 321 13 268 13 q 535 101 435 13 z "},"'":{"ha":386,"x_min":143,"x_max":243,"o":"m 242 931 l 211 588 l 175 588 l 144 931 q 158 965 143 951 q 193 979 172 979 q 228 965 214 979 q 242 931 243 951 z "},"(":{"ha":540,"x_min":140,"x_max":461,"o":"m 461 -331 q 447 -344 461 -344 q 439 -342 444 -344 q 231 -69 321 -253 q 140 289 140 115 l 140 406 q 231 763 140 579 q 439 1036 321 947 q 447 1039 444 1039 q 461 1025 461 1039 q 456 1014 461 1019 q 283 757 350 935 q 215 406 215 579 l 215 289 q 283 -62 215 115 q 456 -319 350 -240 q 461 -331 461 -325 z "},")":{"ha":540,"x_min":79,"x_max":400,"o":"m 400 289 q 310 -69 400 115 q 101 -342 219 -253 q 93 -344 96 -344 q 79 -331 79 -344 q 85 -319 79 -325 q 258 -62 190 -240 q 325 289 325 115 l 325 406 q 258 757 325 579 q 85 1014 190 935 q 79 1025 79 1019 q 93 1039 79 1039 q 101 1036 96 1039 q 310 763 219 947 q 400 406 400 579 l 400 289 z "},"*":{"ha":694,"x_min":79,"x_max":615,"o":"m 606 594 q 578 574 596 578 q 546 581 560 569 l 364 714 l 388 490 q 378 458 390 471 q 347 444 365 444 q 317 458 329 444 q 307 490 304 471 l 331 714 l 149 581 q 117 574 135 569 q 89 594 99 578 q 85 627 79 610 q 107 651 90 644 l 314 743 l 107 835 q 85 859 90 842 q 89 893 79 876 q 117 913 99 908 q 149 906 135 917 l 331 772 l 307 996 q 317 1028 304 1015 q 347 1042 329 1042 q 378 1028 365 1042 q 388 996 390 1015 l 364 772 l 546 906 q 578 913 560 917 q 606 893 596 908 q 610 859 615 876 q 588 835 604 842 l 381 743 l 588 651 q 610 627 604 644 q 606 594 615 610 z "},"+":{"ha":1081,"x_min":78,"x_max":1003,"o":"m 994 367 q 999 363 994 367 q 1003 347 1003 358 q 994 328 1003 336 q 975 319 986 319 l 568 319 l 568 -87 q 560 -107 568 -99 q 540 -115 551 -115 q 521 -107 529 -115 q 513 -87 513 -99 l 513 319 l 106 319 q 86 328 94 319 q 78 347 78 336 q 86 367 78 358 q 106 375 94 375 l 513 375 l 513 782 q 521 801 513 793 q 540 810 529 810 q 560 801 551 810 q 568 782 568 793 l 568 375 l 975 375 q 994 367 986 375 z "},",":{"ha":386,"x_min":119,"x_max":282,"o":"m 282 1 q 270 -89 282 -44 q 242 -165 258 -133 q 207 -220 225 -196 q 175 -256 189 -244 q 156 -268 161 -268 q 142 -253 142 -268 q 157 -231 142 -246 q 251 1 251 -136 l 249 22 q 242 18 246 21 q 193 0 222 0 q 140 22 160 0 q 119 74 119 44 q 140 126 119 104 q 193 147 160 147 q 258 108 233 147 q 282 1 282 69 z "},"-":{"ha":463,"x_min":15,"x_max":383,"o":"m 383 260 l 15 260 l 15 340 l 383 340 l 383 260 z "},".":{"ha":386,"x_min":119,"x_max":267,"o":"m 245 126 q 256 115 245 126 q 267 74 267 104 q 245 22 267 43 q 193 0 224 0 q 141 22 163 0 q 119 74 119 43 q 141 126 119 104 q 193 147 163 147 q 245 126 224 147 z "},"/":{"ha":694,"x_min":78,"x_max":618,"o":"m 618 1014 q 617 1004 618 1007 l 132 -329 q 106 -347 125 -347 q 86 -339 94 -347 q 78 -319 78 -331 q 79 -310 78 -312 l 564 1024 q 590 1042 571 1042 q 610 1033 601 1042 q 618 1014 618 1025 z "},":":{"ha":386,"x_min":119,"x_max":267,"o":"m 245 577 q 256 566 245 577 q 267 525 267 556 q 245 473 267 494 q 193 451 224 451 q 141 473 163 451 q 119 525 119 494 q 141 577 119 556 q 193 599 163 599 q 245 577 224 599 m 245 126 q 256 115 245 126 q 267 74 267 104 q 245 22 267 43 q 193 0 224 0 q 141 22 163 0 q 119 74 119 43 q 141 126 119 104 q 193 147 163 147 q 245 126 224 147 z "},";":{"ha":386,"x_min":119,"x_max":271,"o":"m 245 577 q 256 566 245 577 q 267 525 267 556 q 245 473 267 494 q 193 451 224 451 q 141 473 163 451 q 119 525 119 494 q 141 577 119 556 q 193 599 163 599 q 245 577 224 599 m 271 4 q 244 -135 271 -68 q 192 -235 218 -203 q 156 -268 165 -268 q 142 -253 142 -268 q 151 -235 142 -246 q 240 15 240 -132 q 204 1 228 4 q 193 0 200 0 q 139 22 158 0 q 119 74 119 44 q 139 125 119 103 q 193 147 158 147 q 271 4 271 147 z "},"<":{"ha":1081,"x_min":107,"x_max":974,"o":"m 957 -12 q 973 -35 972 -19 q 961 -60 974 -50 q 932 -62 949 -69 l 125 319 q 107 347 107 328 q 125 375 107 367 l 932 757 q 961 754 949 764 q 973 729 974 744 q 957 707 972 714 l 196 347 l 957 -12 z "},"=":{"ha":1081,"x_min":78,"x_max":1003,"o":"m 994 501 q 999 497 994 501 q 1003 482 1003 493 q 994 463 1003 471 q 975 454 986 454 l 106 454 q 86 463 94 454 q 78 482 78 471 q 86 501 78 493 q 106 510 94 510 l 975 510 q 994 501 986 510 m 994 232 q 999 228 994 232 q 1003 213 1003 224 q 994 193 1003 201 q 975 185 986 185 l 106 185 q 86 193 94 185 q 78 213 78 201 q 86 232 78 224 q 106 240 94 240 l 975 240 q 994 232 986 240 z "},">":{"ha":1081,"x_min":107,"x_max":974,"o":"m 956 319 l 149 -62 q 119 -60 132 -69 q 108 -35 107 -50 q 124 -12 108 -19 l 885 347 l 124 707 q 108 729 108 714 q 119 754 107 744 q 149 757 132 764 l 956 375 q 974 347 974 367 q 956 319 974 328 z "},"?":{"ha":656,"x_min":78,"x_max":576,"o":"m 576 792 q 510 656 576 706 q 326 346 326 519 l 326 297 q 326 276 326 282 q 321 265 325 269 q 308 260 317 260 q 294 266 297 260 q 292 293 292 272 l 292 356 q 321 514 292 429 q 414 668 350 599 q 438 695 429 683 q 453 734 446 707 q 461 800 461 761 q 460 838 461 824 q 451 875 460 851 q 428 913 443 899 q 383 938 414 926 q 310 949 353 949 q 128 854 183 949 q 206 792 206 854 q 188 746 206 764 q 142 728 171 728 q 97 744 115 728 q 78 794 78 761 q 142 923 78 867 q 314 979 207 979 q 515 922 454 979 q 576 792 576 865 m 360 126 q 371 115 360 126 q 382 74 382 104 q 360 22 382 43 q 308 0 339 0 q 256 22 278 0 q 235 74 235 43 q 256 126 235 104 q 308 147 278 147 q 360 126 339 147 z "},"@":{"ha":1081,"x_min":78,"x_max":1001,"o":"m 1001 469 q 996 360 1001 407 q 976 269 990 314 q 933 201 963 225 q 860 178 904 178 q 772 202 814 178 q 721 276 731 226 q 538 178 650 178 q 345 266 428 178 q 263 482 263 354 q 345 698 263 610 q 538 786 428 786 q 728 679 650 786 q 760 668 738 668 l 783 668 q 812 663 807 668 q 817 635 817 658 l 817 300 q 865 208 817 208 q 919 228 899 208 q 950 288 940 249 q 963 367 960 328 q 967 461 967 406 q 927 677 967 581 q 824 831 888 774 q 686 919 760 889 q 539 949 613 949 q 239 813 365 949 q 113 482 113 678 q 236 153 113 292 q 546 15 360 15 q 924 104 735 15 q 956 108 931 108 l 968 108 q 987 108 982 108 q 996 104 992 107 q 1000 94 1000 101 q 922 53 1000 81 q 797 15 844 26 q 547 -15 667 -15 q 211 133 344 -15 q 78 482 78 281 q 213 834 78 689 q 540 979 349 979 q 707 944 625 979 q 855 847 789 910 q 961 686 921 785 q 1001 469 1001 588 m 721 364 l 721 600 q 703 656 721 629 q 542 756 639 756 q 412 676 465 756 q 358 482 358 597 q 413 288 358 367 q 542 208 467 208 q 701 304 635 208 q 721 364 721 333 z "},"A":{"ha":1042,"x_min":44,"x_max":996,"o":"m 996 0 l 814 4 q 614 0 664 4 l 614 43 q 729 85 729 43 q 725 104 729 88 l 651 317 l 308 317 l 244 135 q 242 114 242 129 q 269 64 242 85 q 346 43 296 43 l 346 0 l 186 4 l 44 0 l 44 43 q 200 136 168 46 l 488 967 q 499 989 493 983 q 521 994 506 994 q 534 993 529 994 q 542 987 539 992 q 547 979 546 982 q 553 967 549 976 l 853 99 q 886 53 864 64 q 971 43 908 43 l 996 43 l 996 0 m 636 360 l 479 811 l 324 360 l 636 360 z "},"B":{"ha":983,"x_min":50,"x_max":904,"o":"m 904 254 q 817 76 904 153 q 594 0 729 0 l 50 0 l 50 43 l 83 43 q 176 56 158 43 q 193 108 193 68 l 193 840 q 176 893 193 881 q 83 906 158 906 l 50 906 l 50 949 l 558 949 q 778 878 690 949 q 867 714 867 807 q 802 576 867 638 q 636 496 738 515 q 828 414 751 483 q 904 254 904 344 m 732 714 q 686 844 732 782 q 549 906 640 906 l 376 906 q 319 896 329 906 q 308 850 308 886 l 308 508 l 510 508 q 674 573 617 508 q 732 714 732 638 m 708 108 q 736 141 708 108 q 765 256 765 174 q 715 408 765 338 q 569 478 664 478 l 308 478 l 308 99 q 319 53 308 63 q 376 43 329 43 l 550 43 q 708 108 650 43 z "},"C":{"ha":1003,"x_min":78,"x_max":924,"o":"m 924 324 q 822 81 924 192 q 561 -31 721 -31 q 221 116 364 -31 q 78 475 78 263 q 221 832 78 685 q 561 979 364 979 q 676 957 622 979 q 756 915 731 935 q 817 860 781 896 l 886 963 q 908 979 897 979 q 922 973 919 979 q 924 946 924 967 l 924 617 q 921 589 924 594 q 901 583 918 583 q 885 588 888 583 q 879 607 882 592 q 775 847 858 757 q 576 936 692 936 q 506 928 543 936 q 416 892 469 921 q 322 817 363 864 q 251 681 281 769 q 221 474 221 592 q 251 267 221 357 q 322 131 281 178 q 416 56 363 85 q 507 20 469 28 q 578 13 544 13 q 789 97 697 13 q 889 325 881 182 q 890 335 890 332 q 892 341 890 338 q 897 346 893 344 q 906 347 900 347 q 924 324 924 347 z "},"D":{"ha":1061,"x_min":49,"x_max":982,"o":"m 982 467 q 858 136 982 272 q 557 0 733 0 l 49 0 l 49 43 l 82 43 q 174 56 157 43 q 192 108 192 68 l 192 840 q 174 893 192 881 q 82 906 157 906 l 49 906 l 49 949 l 557 949 q 858 807 735 949 q 982 467 982 665 m 843 467 q 771 776 843 678 q 518 906 678 906 l 379 906 q 322 896 332 906 q 311 850 311 886 l 311 99 q 322 53 311 63 q 379 43 332 43 l 519 43 q 673 81 611 43 q 767 161 735 118 q 843 467 843 265 z "},"E":{"ha":946,"x_min":46,"x_max":906,"o":"m 906 358 l 847 0 l 46 0 l 46 43 l 79 43 q 172 56 154 43 q 189 108 189 68 l 189 836 q 172 889 189 876 q 79 901 154 901 l 46 901 l 46 944 l 828 944 l 867 632 l 832 632 q 810 757 822 711 q 767 838 797 803 q 688 888 738 874 q 560 901 639 901 l 381 901 q 323 892 333 901 q 313 846 313 882 l 313 513 l 438 513 q 560 546 533 513 q 588 675 588 579 l 622 675 l 622 307 l 588 307 q 560 435 588 401 q 438 469 533 469 l 313 469 l 313 99 q 323 53 313 63 q 381 43 333 43 l 565 43 q 669 51 625 43 q 743 78 713 58 q 794 119 774 97 q 830 182 815 142 q 853 260 844 222 q 871 358 861 297 l 906 358 z "},"F":{"ha":907,"x_min":46,"x_max":847,"o":"m 847 632 l 813 632 q 790 756 803 711 q 749 838 778 801 q 673 888 721 874 q 547 901 625 901 l 381 901 q 323 892 333 901 q 313 846 313 882 l 313 494 l 432 494 q 553 528 526 494 q 579 657 579 563 l 614 657 l 614 289 l 579 289 q 553 418 579 385 q 432 451 526 451 l 313 451 l 313 110 q 317 69 313 81 q 351 51 322 58 q 444 43 381 43 l 490 43 l 490 0 q 257 4 440 4 q 46 0 94 4 l 46 43 l 79 43 q 172 56 154 43 q 189 108 189 68 l 189 836 q 172 889 189 876 q 79 901 154 901 l 46 901 l 46 944 l 808 944 l 847 632 z "},"G":{"ha":1090,"x_min":78,"x_max":1021,"o":"m 1021 336 q 940 326 954 336 q 925 275 925 317 l 925 33 q 913 1 925 1 q 869 33 901 1 q 824 88 838 64 q 718 -1 790 29 q 564 -31 646 -31 q 221 117 364 -31 q 78 475 78 264 q 222 833 78 686 q 561 979 365 979 q 651 968 610 979 q 726 935 693 957 q 777 898 760 913 q 818 860 794 883 l 888 963 q 910 979 899 979 q 923 973 921 979 q 925 946 925 967 l 925 617 q 922 589 925 594 q 903 583 919 583 q 886 588 889 583 q 881 607 883 592 q 776 847 860 757 q 578 936 692 936 q 508 928 544 936 q 417 892 471 921 q 322 817 363 864 q 251 682 281 771 q 221 475 221 593 q 251 269 221 358 q 322 133 281 179 q 419 57 364 86 q 513 20 474 28 q 586 13 551 13 q 638 17 610 13 q 707 38 665 22 q 775 90 749 53 q 801 181 801 126 l 801 269 q 781 324 801 311 q 672 336 761 336 l 628 336 l 628 379 q 851 375 678 375 l 1021 379 l 1021 336 z "},"H":{"ha":1042,"x_min":46,"x_max":994,"o":"m 994 0 q 789 4 946 4 q 585 0 633 4 l 585 43 l 618 43 q 710 56 693 43 q 728 108 728 68 l 728 472 l 313 472 l 313 108 q 330 56 313 68 q 422 43 347 43 l 456 43 l 456 0 q 250 4 407 4 q 46 0 94 4 l 46 43 l 79 43 q 172 56 154 43 q 189 108 189 68 l 189 840 q 172 893 189 881 q 79 906 154 906 l 46 906 l 46 949 q 251 944 94 944 q 456 949 407 944 l 456 906 l 422 906 q 330 893 347 906 q 313 840 313 881 l 313 515 l 728 515 l 728 840 q 710 893 728 881 q 618 906 693 906 l 585 906 l 585 949 q 790 944 633 944 q 994 949 946 944 l 994 906 l 961 906 q 869 893 886 906 q 851 840 851 881 l 851 108 q 869 56 851 68 q 961 43 886 43 l 994 43 l 994 0 z "},"I":{"ha":501,"x_min":39,"x_max":463,"o":"m 463 0 q 250 4 414 4 q 39 0 88 4 l 39 43 l 75 43 q 171 56 153 43 q 189 108 189 68 l 189 840 q 171 893 189 881 q 75 906 153 906 l 39 906 l 39 949 q 251 944 88 944 q 463 949 414 944 l 463 906 l 426 906 q 331 893 349 906 q 313 840 313 881 l 313 108 q 331 56 313 68 q 426 43 349 43 l 463 43 l 463 0 z "},"J":{"ha":714,"x_min":57,"x_max":646,"o":"m 646 906 q 557 897 575 906 q 539 849 539 889 l 539 232 q 538 171 539 182 q 453 29 525 89 q 279 -31 382 -31 q 122 24 186 -31 q 57 156 57 78 q 81 217 57 197 q 135 236 106 236 q 189 215 165 236 q 213 158 213 194 q 124 81 213 81 q 276 0 174 0 q 377 57 335 0 q 419 206 419 114 l 419 839 q 414 879 419 868 q 379 898 408 890 q 283 906 350 906 l 233 906 l 233 949 q 467 944 286 944 l 646 949 l 646 906 z "},"K":{"ha":1081,"x_min":46,"x_max":1022,"o":"m 1022 0 l 863 4 q 664 0 713 4 l 664 43 q 746 85 746 43 q 725 132 746 100 l 474 504 l 313 351 l 313 108 q 330 56 313 68 q 422 43 347 43 l 456 43 l 456 0 q 250 4 407 4 q 46 0 94 4 l 46 43 l 79 43 q 172 56 154 43 q 189 108 189 68 l 189 840 q 172 893 189 881 q 79 906 154 906 l 46 906 l 46 949 q 251 944 94 944 q 456 949 407 944 l 456 906 l 422 906 q 330 893 347 906 q 313 840 313 881 l 313 399 l 747 814 q 772 860 772 836 q 769 877 772 868 q 749 896 765 886 q 708 906 733 906 l 708 949 q 885 944 756 944 q 1003 949 967 944 l 1003 906 q 806 822 888 904 l 556 582 l 876 110 q 934 55 906 67 q 1022 43 963 43 l 1022 0 z "},"L":{"ha":868,"x_min":46,"x_max":808,"o":"m 808 358 l 769 0 l 46 0 l 46 43 l 79 43 q 172 56 154 43 q 189 108 189 68 l 189 840 q 172 893 189 881 q 79 906 154 906 l 46 906 l 46 949 q 257 944 94 944 q 490 949 440 944 l 490 906 l 444 906 q 351 897 381 906 q 317 878 322 889 q 313 839 313 867 l 313 99 q 323 53 313 63 q 381 43 333 43 l 494 43 q 616 64 565 43 q 694 111 667 85 q 739 188 721 138 q 763 269 757 238 q 774 358 768 301 l 808 358 z "},"M":{"ha":1274,"x_min":51,"x_max":1221,"o":"m 1221 0 q 1022 4 1169 4 q 822 0 874 4 l 822 43 l 856 43 q 948 56 931 43 q 965 108 965 68 l 965 906 l 964 906 l 622 26 q 597 0 613 0 q 569 31 581 0 l 235 894 l 233 894 l 233 146 q 236 113 233 125 q 251 81 239 100 q 294 53 263 63 q 376 43 326 43 l 376 0 l 214 4 l 51 0 l 51 43 q 133 53 101 43 q 177 81 165 63 q 192 113 189 100 q 194 146 194 125 l 194 840 q 177 893 194 881 q 85 906 160 906 l 51 906 l 51 949 l 286 949 q 318 944 311 949 q 335 918 325 940 l 636 140 l 940 922 q 953 945 947 942 q 986 949 960 949 l 1221 949 l 1221 906 l 1188 906 q 1095 893 1113 906 q 1078 840 1078 881 l 1078 108 q 1095 56 1078 68 q 1188 43 1113 43 l 1221 43 l 1221 0 z "},"N":{"ha":1042,"x_min":46,"x_max":994,"o":"m 994 906 q 913 896 944 906 q 869 867 881 886 q 854 836 857 849 q 851 803 851 824 l 851 36 q 849 7 851 14 q 832 0 846 0 q 808 18 822 0 l 242 851 q 228 868 236 860 l 228 146 q 231 113 228 125 q 245 81 233 100 q 289 53 257 63 q 371 43 321 43 l 371 0 l 208 4 l 46 0 l 46 43 q 128 53 96 43 q 172 81 160 63 q 186 113 183 100 q 189 146 189 125 l 189 871 q 184 895 189 890 q 156 903 179 900 q 86 906 114 906 l 46 906 l 46 949 l 282 949 q 307 946 301 949 q 322 931 313 943 l 813 210 l 813 803 q 810 836 813 824 q 795 867 807 849 q 751 896 783 886 q 669 906 719 906 l 669 949 l 832 944 l 994 949 l 994 906 z "},"O":{"ha":1081,"x_min":78,"x_max":1001,"o":"m 1001 471 q 865 115 1001 261 q 539 -31 729 -31 q 215 115 351 -31 q 78 471 78 260 q 214 831 78 683 q 539 979 350 979 q 865 831 729 979 q 1001 471 1001 682 m 858 490 q 837 674 858 592 q 781 805 815 756 q 703 887 747 854 q 619 932 660 919 q 539 944 578 944 q 440 923 490 944 q 338 853 389 901 q 253 712 286 806 q 221 490 221 618 q 251 263 221 361 q 331 110 282 164 q 433 31 381 57 q 540 6 486 6 q 645 31 593 6 q 747 108 697 56 q 827 260 796 161 q 858 490 858 360 z "},"P":{"ha":946,"x_min":49,"x_max":867,"o":"m 867 690 q 772 513 867 588 q 550 439 676 439 l 315 439 l 315 108 q 333 56 315 68 q 425 43 350 43 l 458 43 l 458 0 q 253 4 410 4 q 49 0 97 4 l 49 43 l 82 43 q 174 56 157 43 q 192 108 192 68 l 192 840 q 174 893 192 881 q 82 906 157 906 l 49 906 l 49 949 l 539 949 q 773 872 679 949 q 867 690 867 794 m 724 690 q 722 740 724 721 q 709 794 721 760 q 676 851 697 829 q 610 889 656 872 q 503 906 565 906 l 379 906 q 322 896 332 906 q 311 850 311 886 l 311 475 l 503 475 q 610 492 565 475 q 676 531 656 510 q 709 588 697 553 q 722 642 721 622 q 724 690 724 661 z "},"Q":{"ha":1081,"x_min":78,"x_max":1010,"o":"m 1010 -14 q 1003 -85 1010 -47 q 979 -167 996 -122 q 927 -240 963 -211 q 842 -269 892 -269 q 776 -253 804 -269 q 733 -218 749 -237 q 703 -157 717 -199 q 685 -89 690 -115 q 672 -10 681 -62 q 540 -31 606 -31 q 214 115 350 -31 q 78 471 78 261 q 214 831 78 683 q 539 979 350 979 q 865 831 729 979 q 1001 471 1001 682 q 923 192 1001 317 q 719 10 844 67 q 776 -94 746 -61 q 853 -126 806 -126 q 937 -95 900 -126 q 979 -10 974 -64 q 994 15 982 15 q 1010 -14 1010 15 m 863 471 q 831 693 863 597 q 750 842 800 789 q 647 919 700 894 q 539 944 593 944 q 433 920 486 944 q 331 844 381 896 q 249 696 281 793 q 217 471 217 599 q 241 272 217 358 q 305 135 265 185 q 378 60 344 86 q 447 22 413 35 q 428 89 428 61 q 460 170 428 135 q 542 206 492 206 q 699 58 640 206 q 863 471 863 179 m 663 36 q 542 175 636 175 q 481 149 504 175 q 458 89 458 122 q 463 57 458 74 q 488 22 468 40 q 540 4 508 4 q 663 36 606 4 z "},"R":{"ha":1022,"x_min":49,"x_max":1017,"o":"m 1017 122 q 1011 81 1017 104 q 992 32 1006 58 q 951 -12 979 6 q 885 -31 922 -31 q 710 28 776 -31 q 669 85 682 53 q 655 144 657 118 q 653 226 653 169 q 644 342 653 307 q 600 413 636 378 q 471 460 551 460 l 311 460 l 311 108 q 328 56 311 68 q 421 43 346 43 l 454 43 l 454 0 q 251 4 404 4 q 49 0 99 4 l 49 43 l 82 43 q 174 56 157 43 q 192 108 192 68 l 192 840 q 174 893 192 881 q 82 906 157 906 l 49 906 l 49 949 l 485 949 q 742 874 636 949 q 847 699 847 800 q 778 560 847 621 q 604 472 710 499 q 774 311 742 425 l 792 200 q 801 140 797 160 q 810 92 804 119 q 823 51 817 64 q 839 24 829 38 q 861 5 849 10 q 890 0 874 0 q 949 28 922 0 q 982 124 976 57 q 999 146 985 146 q 1017 122 1017 146 m 704 699 q 693 784 704 747 q 658 842 682 821 q 611 878 635 864 q 551 897 588 892 q 489 904 514 903 q 424 906 464 906 q 342 903 356 906 q 320 894 326 901 q 313 878 314 886 q 311 850 311 869 l 311 490 l 465 490 q 589 508 539 490 q 663 559 639 526 q 695 624 686 592 q 704 699 704 657 z "},"S":{"ha":772,"x_min":78,"x_max":693,"o":"m 693 258 q 616 55 693 140 q 419 -31 539 -31 q 267 -2 333 -31 q 164 67 200 26 l 114 -12 q 93 -31 103 -31 q 80 -24 82 -31 q 78 3 78 -17 l 78 281 q 78 301 78 296 q 83 311 79 307 q 96 315 88 315 q 113 301 111 315 q 199 88 117 164 q 418 13 279 13 q 553 72 501 13 q 604 211 604 132 q 561 339 604 286 q 520 378 543 363 q 483 398 497 393 q 443 410 469 403 q 260 456 271 451 q 128 553 178 483 q 78 710 78 624 q 156 900 78 821 q 349 979 235 979 q 453 961 406 979 q 521 927 501 943 q 571 882 540 911 l 619 961 q 640 979 631 979 q 653 973 651 979 q 656 946 656 967 l 656 667 q 655 646 656 651 q 650 637 654 640 q 638 633 646 633 q 621 650 624 633 q 350 940 582 940 q 219 887 271 940 q 167 758 167 833 q 205 647 167 697 q 307 582 243 597 l 485 539 q 633 440 574 518 q 693 258 693 361 z "},"T":{"ha":1003,"x_min":50,"x_max":951,"o":"m 951 628 l 917 628 q 906 726 911 690 q 890 797 901 763 q 863 847 878 831 q 821 877 849 864 q 757 894 793 890 q 667 897 721 897 q 588 894 603 897 q 567 878 571 890 q 563 842 563 867 l 563 110 q 568 71 563 82 q 606 51 574 60 q 708 43 638 43 l 764 43 l 764 0 q 500 4 707 4 q 238 0 294 4 l 238 43 l 293 43 q 396 51 364 43 q 433 71 428 60 q 439 110 439 82 l 439 842 q 438 869 439 861 q 430 885 436 878 q 410 894 424 892 q 335 897 396 897 q 244 894 281 897 q 181 877 208 890 q 138 847 153 864 q 112 797 124 831 q 95 726 100 763 q 85 628 90 690 l 50 628 l 76 940 l 925 940 l 951 628 z "},"U":{"ha":1042,"x_min":46,"x_max":994,"o":"m 994 906 q 913 897 944 906 q 869 868 881 888 q 854 835 857 849 q 851 797 851 821 l 851 353 q 847 257 851 285 q 743 53 829 136 q 539 -31 657 -31 q 292 70 396 -31 q 189 317 189 171 l 189 840 q 172 893 189 881 q 79 906 154 906 l 46 906 l 46 949 q 251 944 94 944 q 456 949 407 944 l 456 906 l 422 906 q 330 893 347 906 q 313 840 313 881 l 313 311 q 338 154 313 218 q 404 62 364 90 q 477 23 444 33 q 542 13 510 13 q 728 97 647 13 q 808 321 808 181 l 808 803 q 806 836 808 824 q 791 867 803 849 q 747 896 779 886 q 665 906 715 906 l 665 949 l 831 944 l 994 949 l 994 906 z "},"V":{"ha":1042,"x_min":26,"x_max":1014,"o":"m 1014 906 q 863 813 897 904 l 553 -4 q 542 -26 547 -21 q 519 -31 536 -31 q 499 -25 506 -31 q 485 0 492 -19 l 163 853 q 124 898 149 890 q 26 906 100 906 l 26 949 l 203 944 q 401 949 351 944 l 401 906 q 288 865 288 906 q 296 840 288 860 l 561 139 l 815 808 q 822 836 822 829 q 797 884 822 864 q 721 906 771 904 l 721 949 l 879 944 q 1014 949 950 944 l 1014 906 z "},"W":{"ha":1428,"x_min":25,"x_max":1401,"o":"m 1401 906 q 1263 813 1292 906 l 997 -3 q 992 -19 994 -14 q 985 -27 990 -24 q 969 -31 979 -31 q 943 -4 951 -31 l 713 703 l 483 -3 q 478 -19 481 -14 q 471 -27 476 -24 q 456 -31 465 -31 q 429 -4 438 -31 l 151 847 q 120 897 139 888 q 25 906 101 906 l 25 949 l 194 944 q 392 949 342 944 l 392 906 q 275 864 275 906 q 278 846 275 854 l 501 163 l 694 758 l 664 856 q 629 898 653 890 q 539 906 606 906 l 539 949 l 708 944 q 906 949 856 944 l 906 906 q 789 864 789 906 q 793 843 789 860 l 1015 163 l 1224 804 q 1231 832 1231 825 q 1201 881 1231 857 q 1110 906 1172 904 l 1110 949 l 1275 944 q 1401 949 1339 944 l 1401 906 z "},"X":{"ha":1042,"x_min":33,"x_max":1008,"o":"m 1008 0 l 828 4 q 625 0 674 4 l 625 43 q 691 58 667 44 q 715 85 715 71 q 708 100 715 86 l 489 432 l 292 140 q 278 107 278 118 q 300 65 278 85 q 365 43 322 44 l 365 0 q 188 4 315 4 l 33 0 l 33 43 q 144 63 97 43 q 204 97 190 82 q 235 135 218 111 l 463 471 l 207 857 q 161 896 188 886 q 78 906 135 906 l 51 906 l 51 949 l 232 944 q 435 949 386 944 l 435 906 q 369 891 393 904 q 344 864 344 878 q 354 843 344 858 l 533 575 l 692 810 q 704 842 704 829 q 681 885 704 867 q 618 906 658 904 l 618 949 q 796 944 674 944 l 950 949 l 950 906 q 749 815 810 904 l 558 536 l 851 93 q 899 53 872 63 q 982 43 925 43 l 1008 43 l 1008 0 z "},"Y":{"ha":1042,"x_min":15,"x_max":1025,"o":"m 1025 906 q 847 815 901 906 l 579 379 l 579 111 q 597 56 579 68 q 690 43 614 43 l 722 43 l 722 0 q 519 4 672 4 q 317 0 367 4 l 317 43 l 350 43 q 442 56 425 43 q 460 108 460 68 l 460 379 l 168 854 q 146 884 156 875 q 111 899 136 893 q 40 906 86 906 l 15 906 l 15 949 l 196 944 q 401 949 351 944 l 401 906 q 327 899 350 906 q 304 871 304 892 q 314 847 304 861 l 565 438 l 794 810 q 808 851 808 831 q 789 890 808 875 q 729 906 769 906 l 729 949 l 889 944 q 1025 949 961 944 l 1025 906 z "},"Z":{"ha":849,"x_min":78,"x_max":778,"o":"m 778 371 l 754 0 l 114 0 q 84 3 90 0 q 78 24 78 7 q 88 51 78 36 l 628 906 l 410 906 q 272 887 326 906 q 188 828 217 868 q 147 745 158 789 q 131 636 135 701 l 96 636 l 111 949 l 733 949 q 751 949 746 949 q 761 946 756 949 q 768 939 767 943 q 769 926 769 935 q 760 900 769 915 l 221 47 l 449 47 q 576 63 524 47 q 660 104 629 79 q 708 174 690 129 q 733 262 726 219 q 743 371 739 304 l 778 371 z "},"[":{"ha":386,"x_min":158,"x_max":356,"o":"m 347 -300 q 351 -304 347 -300 q 356 -319 356 -308 q 347 -339 356 -331 q 328 -347 339 -347 l 158 -347 l 158 1042 l 328 1042 q 347 1033 339 1042 q 356 1014 356 1025 q 347 994 356 1003 q 328 986 339 986 l 214 986 l 214 -292 l 328 -292 q 347 -300 339 -292 z "},"\\":{"ha":694,"x_min":76,"x_max":617,"o":"m 617 -319 q 608 -339 617 -331 q 589 -347 600 -347 q 563 -329 569 -347 l 78 1004 q 76 1014 76 1007 q 85 1033 76 1025 q 104 1042 93 1042 q 131 1024 124 1042 l 615 -310 q 617 -319 617 -312 z "},"]":{"ha":386,"x_min":31,"x_max":228,"o":"m 228 -347 l 58 -347 q 39 -339 47 -347 q 31 -319 31 -331 q 39 -300 31 -308 q 58 -292 47 -292 l 172 -292 l 172 986 l 58 986 q 39 994 47 986 q 31 1014 31 1003 q 39 1033 31 1025 q 58 1042 47 1042 l 228 1042 l 228 -347 z "},"^":{"ha":772,"x_min":-7,"x_max":779,"o":"m 779 811 l 763 781 l 385 951 l 8 781 l -7 811 l 386 1033 l 779 811 z "},"_":{"ha":463,"x_min":0,"x_max":463,"o":"m 463 -194 l 0 -194 l 0 -139 l 463 -139 l 463 -194 z "},"`":{"ha":694,"x_min":175,"x_max":433,"o":"m 433 733 l 410 708 l 199 878 q 175 919 175 896 q 190 954 175 939 q 225 969 206 969 q 267 946 251 969 l 433 733 z "},"a":{"ha":694,"x_min":44,"x_max":671,"o":"m 671 124 q 632 21 671 50 q 557 -8 593 -8 q 482 26 511 -8 q 449 106 453 60 q 380 19 428 53 q 267 -15 332 -15 q 169 -3 217 -15 q 83 44 122 10 q 44 132 44 79 q 183 313 44 250 q 439 363 267 353 l 439 414 q 394 546 439 500 q 292 592 349 592 q 142 528 190 592 q 198 506 183 526 q 213 464 213 485 q 195 418 213 436 q 149 400 178 400 q 103 417 121 400 q 85 465 85 435 q 146 578 85 533 q 294 622 207 622 q 485 546 408 622 q 520 492 508 522 q 533 441 532 461 q 535 382 535 421 l 535 104 q 538 83 535 96 q 553 52 540 69 q 586 35 565 35 q 636 124 636 35 l 636 201 l 671 201 l 671 124 m 439 194 l 439 333 q 218 267 285 328 q 151 133 151 206 q 188 49 151 82 q 276 15 225 15 q 387 60 335 15 q 439 194 439 106 z "},"b":{"ha":772,"x_min":39,"x_max":724,"o":"m 724 300 q 632 76 724 168 q 414 -15 540 -15 q 232 86 299 -15 l 182 0 l 147 0 l 147 828 q 129 892 147 879 q 39 906 111 906 l 39 949 l 239 964 l 239 524 q 429 614 319 614 q 636 522 549 614 q 724 300 724 431 m 608 301 q 568 494 608 431 q 422 583 513 583 q 258 494 321 583 q 243 444 243 472 l 243 158 q 263 100 243 129 q 408 15 318 15 q 565 104 506 15 q 608 301 608 171 z "},"c":{"ha":617,"x_min":47,"x_max":576,"o":"m 576 165 q 571 141 576 158 q 549 96 565 124 q 508 44 532 68 q 441 2 483 19 q 346 -15 399 -15 q 135 76 224 -15 q 47 300 47 168 q 134 527 47 432 q 349 622 221 622 q 497 582 433 622 q 561 474 561 542 q 543 426 561 443 q 497 408 525 408 q 451 426 468 408 q 433 472 433 444 q 438 497 433 485 q 457 522 442 508 q 499 536 472 535 q 350 588 449 588 q 221 521 279 588 q 163 303 163 454 q 182 165 163 224 q 233 77 201 107 q 297 33 265 47 q 358 19 328 19 q 540 165 494 19 q 558 179 544 179 q 576 165 576 179 z "},"d":{"ha":772,"x_min":47,"x_max":732,"o":"m 732 0 l 528 -15 l 528 76 q 342 -15 456 -15 q 135 76 222 -15 q 47 299 47 168 q 140 522 47 431 q 357 614 232 614 q 532 528 463 614 l 532 828 q 514 892 532 879 q 424 906 496 906 l 424 949 l 624 964 l 624 121 q 642 56 624 69 q 732 43 660 43 l 732 0 m 528 164 l 528 449 q 513 500 528 476 q 363 583 456 583 q 206 494 265 583 q 163 297 163 428 q 203 104 163 168 q 349 15 258 15 q 513 113 451 15 q 528 164 528 136 z "},"e":{"ha":617,"x_min":39,"x_max":576,"o":"m 576 165 q 563 126 576 153 q 525 66 550 99 q 451 9 500 33 q 344 -15 403 -15 q 131 77 222 -15 q 39 306 39 169 q 123 529 39 436 q 328 622 207 622 q 513 543 450 622 q 576 350 576 464 q 571 325 576 329 q 542 321 565 321 l 154 321 q 196 113 154 179 q 353 19 254 19 q 383 22 367 19 q 432 37 399 25 q 494 81 465 49 q 540 163 524 113 q 558 182 544 182 q 576 165 576 182 m 485 350 q 480 412 485 379 q 460 490 475 444 q 412 563 446 535 q 328 592 378 592 q 281 582 306 592 q 228 549 257 572 q 178 474 199 526 q 156 350 158 422 l 485 350 z "},"f":{"ha":425,"x_min":46,"x_max":496,"o":"m 496 882 q 480 838 496 856 q 435 821 464 821 q 391 838 407 821 q 375 881 375 856 q 417 939 375 925 q 371 949 396 949 q 282 897 321 949 q 243 760 243 846 l 243 599 l 406 599 l 406 556 l 247 556 l 247 108 q 264 56 247 68 q 353 43 281 43 l 382 43 l 382 0 q 206 4 326 4 l 47 0 l 47 43 q 138 52 121 43 q 156 106 156 61 l 156 556 l 46 556 l 46 599 l 156 599 l 156 758 q 222 920 156 861 q 371 979 289 979 q 460 950 425 979 q 496 882 496 921 z "},"g":{"ha":694,"x_min":39,"x_max":674,"o":"m 674 561 q 660 530 674 540 q 633 519 647 519 q 605 531 617 519 q 593 560 593 542 q 615 597 593 589 l 601 599 q 476 544 533 599 q 533 410 533 492 q 468 267 533 328 q 308 207 403 207 q 171 250 231 207 q 147 185 147 222 q 168 123 147 150 q 221 92 189 96 q 325 90 231 90 q 411 89 381 90 q 485 78 442 88 q 564 51 529 69 q 654 -107 654 1 q 563 -236 654 -186 q 346 -286 472 -286 q 128 -235 218 -286 q 39 -110 39 -185 q 73 -26 39 -65 q 167 29 107 13 q 106 153 106 68 q 149 268 106 218 q 83 411 83 322 q 149 553 83 493 q 308 614 214 614 q 456 564 392 614 q 603 629 522 629 q 656 607 639 629 q 674 561 674 585 m 429 411 q 308 582 429 582 q 210 526 247 582 q 188 410 188 489 q 308 239 188 239 q 407 294 369 239 q 429 411 429 332 m 582 -110 q 558 -42 582 -68 q 486 -5 535 -15 q 403 8 438 6 q 307 10 369 10 l 225 10 q 144 -28 178 7 q 111 -110 111 -62 q 178 -210 111 -167 q 347 -254 246 -254 q 515 -211 447 -254 q 582 -110 582 -168 z "},"h":{"ha":772,"x_min":44,"x_max":743,"o":"m 743 0 l 588 4 l 431 0 l 431 43 q 522 52 504 43 q 539 106 539 61 l 539 429 q 517 542 539 500 q 436 583 496 583 q 306 523 364 583 q 249 361 249 463 l 249 106 q 266 52 249 61 q 357 43 283 43 l 357 0 l 201 4 l 44 0 l 44 43 q 135 52 118 43 q 153 106 153 61 l 153 828 q 135 892 153 879 q 44 906 117 906 l 44 949 l 244 964 l 244 481 l 246 481 q 318 572 268 531 q 446 614 368 614 q 592 563 550 614 q 628 489 622 528 q 635 350 635 450 l 635 85 q 658 49 636 56 q 743 43 681 43 l 743 0 z "},"i":{"ha":386,"x_min":46,"x_max":343,"o":"m 343 0 q 199 4 201 4 l 46 0 l 46 43 q 137 52 119 43 q 154 106 154 61 l 154 479 q 137 543 154 531 q 51 556 119 556 l 51 599 l 246 614 l 246 104 q 260 53 246 63 q 343 43 275 43 l 343 0 m 267 839 q 246 788 267 811 q 192 765 225 765 q 140 788 161 765 q 118 839 118 810 q 139 890 118 867 q 193 913 160 913 q 245 890 224 913 q 267 839 267 868 z "},"j":{"ha":425,"x_min":-56,"x_max":292,"o":"m 292 -69 q 236 -224 292 -162 q 101 -285 181 -285 q -9 -255 38 -285 q -56 -174 -56 -225 q -38 -128 -56 -146 q 8 -110 -21 -110 q 55 -128 38 -110 q 72 -174 72 -146 q 58 -215 72 -199 q 24 -236 43 -231 q 99 -254 60 -254 q 152 -235 131 -254 q 183 -185 174 -217 q 197 -128 193 -154 q 200 -72 200 -101 l 200 478 q 180 542 200 529 q 81 556 160 556 l 81 599 l 292 614 l 292 -69 m 292 839 q 271 788 292 811 q 217 765 250 765 q 165 788 186 765 q 143 839 143 810 q 164 890 143 867 q 218 913 185 913 q 270 890 249 913 q 292 839 292 868 z "},"k":{"ha":733,"x_min":39,"x_max":710,"o":"m 710 0 q 589 4 650 4 l 439 0 l 439 43 q 489 75 489 43 q 350 288 489 97 q 324 325 333 313 l 235 249 l 235 106 q 252 52 235 61 q 343 43 269 43 l 343 0 l 190 4 l 39 0 l 39 43 q 130 52 113 43 q 147 106 147 61 l 147 828 q 129 892 147 879 q 39 906 111 906 l 39 949 l 239 964 l 239 297 l 435 467 q 465 521 465 493 q 425 556 465 553 l 425 599 q 581 594 483 594 q 678 599 638 594 l 678 556 q 503 481 590 551 q 437 425 483 465 q 390 381 390 385 q 392 376 390 379 q 396 369 393 372 q 399 365 399 367 l 575 117 q 638 55 611 67 q 710 43 664 43 l 710 0 z "},"l":{"ha":386,"x_min":46,"x_max":354,"o":"m 354 0 l 200 4 l 46 0 l 46 43 q 137 52 119 43 q 154 106 154 61 l 154 828 q 136 892 154 879 q 46 906 118 906 l 46 949 l 246 964 l 246 106 q 263 52 246 61 q 354 43 281 43 l 354 0 z "},"m":{"ha":1157,"x_min":44,"x_max":1129,"o":"m 1129 0 l 974 4 l 817 0 l 817 43 q 908 52 890 43 q 925 106 925 61 l 925 429 q 903 542 925 500 q 822 583 882 583 q 692 523 750 583 q 635 361 635 463 l 635 106 q 652 52 635 61 q 743 43 669 43 l 743 0 l 588 4 l 431 0 l 431 43 q 522 52 504 43 q 539 106 539 61 l 539 429 q 517 542 539 500 q 436 583 496 583 q 306 523 364 583 q 249 361 249 463 l 249 106 q 266 52 249 61 q 357 43 283 43 l 357 0 l 201 4 l 44 0 l 44 43 q 135 52 118 43 q 153 106 153 61 l 153 478 q 135 542 153 529 q 44 556 117 556 l 44 599 l 240 614 l 240 468 q 446 614 306 614 q 631 478 608 614 q 704 572 654 531 q 832 614 754 614 q 978 563 936 614 q 1015 489 1008 528 q 1021 350 1021 450 l 1021 85 q 1044 49 1022 56 q 1129 43 1067 43 l 1129 0 z "},"n":{"ha":772,"x_min":44,"x_max":743,"o":"m 743 0 l 588 4 l 431 0 l 431 43 q 522 52 504 43 q 539 106 539 61 l 539 429 q 517 542 539 500 q 436 583 496 583 q 306 523 364 583 q 249 361 249 463 l 249 106 q 266 52 249 61 q 357 43 283 43 l 357 0 l 201 4 l 44 0 l 44 43 q 135 52 118 43 q 153 106 153 61 l 153 478 q 135 542 153 529 q 44 556 117 556 l 44 599 l 240 614 l 240 468 q 446 614 306 614 q 592 563 550 614 q 628 489 622 528 q 635 350 635 450 l 635 85 q 658 49 636 56 q 743 43 681 43 l 743 0 z "},"o":{"ha":694,"x_min":39,"x_max":654,"o":"m 654 297 q 563 76 654 167 q 346 -15 472 -15 q 131 75 222 -15 q 39 297 39 165 q 128 526 39 429 q 347 622 218 622 q 564 526 474 622 q 654 297 654 431 m 539 308 q 503 501 539 442 q 346 592 449 592 q 258 568 301 592 q 188 499 214 544 q 154 308 154 438 q 189 113 154 174 q 347 19 243 19 q 442 47 399 19 q 508 122 485 75 q 539 308 539 183 z "},"p":{"ha":772,"x_min":39,"x_max":724,"o":"m 724 300 q 632 76 724 168 q 414 -15 540 -15 q 298 20 344 -15 q 243 82 251 56 l 243 69 l 243 -164 q 260 -217 243 -208 q 351 -226 278 -226 l 351 -269 l 194 -265 l 39 -269 l 39 -226 q 130 -217 113 -226 q 147 -164 147 -208 l 147 486 q 130 544 147 532 q 39 556 113 556 l 39 599 l 239 614 l 239 522 q 433 614 322 614 q 638 522 551 614 q 724 300 724 431 m 608 300 q 553 498 608 417 q 422 579 499 579 q 321 550 368 579 q 243 468 274 521 l 243 158 q 246 130 243 138 q 263 100 249 122 q 408 15 318 15 q 548 97 488 15 q 608 300 608 178 z "},"q":{"ha":733,"x_min":47,"x_max":732,"o":"m 732 -269 l 575 -265 l 419 -269 l 419 -226 q 510 -217 493 -226 q 528 -164 528 -208 l 528 85 q 343 -15 451 -15 q 135 77 222 -15 q 47 299 47 169 q 139 523 47 432 q 354 614 231 614 q 448 589 406 614 q 509 539 490 564 q 540 488 528 514 l 593 614 l 624 614 l 624 -164 q 641 -217 624 -208 q 732 -226 658 -226 l 732 -269 m 532 189 l 532 385 q 485 515 532 450 q 363 579 439 579 q 223 499 283 579 q 163 299 163 419 q 217 97 163 179 q 349 15 272 15 q 476 72 424 15 q 532 189 532 133 z "},"r":{"ha":544,"x_min":39,"x_max":506,"o":"m 506 529 q 487 483 506 499 q 446 468 468 468 q 403 484 421 468 q 386 528 386 500 q 394 558 386 544 q 408 576 401 571 q 418 582 414 581 q 403 583 415 583 q 283 507 326 583 q 239 322 239 431 l 239 108 q 256 56 239 68 q 344 43 272 43 l 374 43 l 374 0 q 197 4 318 4 l 39 0 l 39 43 q 130 52 113 43 q 147 106 147 61 l 147 478 q 129 542 147 529 q 39 556 111 556 l 39 599 l 232 614 l 232 461 q 293 567 251 521 q 403 614 335 614 q 476 589 447 614 q 506 529 506 564 z "},"s":{"ha":547,"x_min":46,"x_max":500,"o":"m 500 178 q 444 40 500 96 q 276 -15 389 -15 q 124 44 186 -15 q 109 29 115 36 q 101 19 103 22 q 98 15 99 17 q 96 13 97 14 q 61 -15 68 -15 q 48 -9 50 -15 q 46 18 46 -3 l 46 201 q 47 222 46 217 q 51 232 47 228 q 64 236 56 236 q 77 232 74 236 q 83 213 81 228 q 149 66 104 117 q 276 15 194 15 q 394 50 354 15 q 433 142 433 85 q 289 269 433 243 q 171 297 206 286 q 106 333 136 308 q 46 451 46 382 q 99 572 46 521 q 268 622 151 622 q 399 583 346 622 q 422 606 414 596 q 450 622 440 622 q 463 615 461 622 q 465 589 465 608 l 465 449 q 465 428 465 433 q 460 419 464 422 q 447 415 456 415 q 431 428 432 415 q 268 596 419 596 q 149 565 186 596 q 113 490 113 533 q 124 449 113 467 q 149 420 135 431 q 191 400 164 410 q 235 387 218 390 q 283 376 251 383 q 442 310 394 356 q 500 178 500 251 z "},"t":{"ha":540,"x_min":26,"x_max":461,"o":"m 461 172 q 426 41 461 97 q 324 -15 392 -15 q 274 -9 299 -15 q 217 14 249 -3 q 165 72 185 31 q 144 172 144 113 l 144 556 l 26 556 l 26 586 q 133 634 90 589 q 190 735 175 679 q 206 854 204 790 l 240 854 l 240 599 l 439 599 l 439 556 l 240 556 l 240 169 q 333 19 240 19 q 400 60 374 19 q 426 175 426 101 l 426 251 l 461 251 l 461 172 z "},"u":{"ha":772,"x_min":44,"x_max":743,"o":"m 743 0 l 543 -15 l 543 110 q 364 -15 485 -15 q 261 0 303 -15 q 199 35 219 15 q 167 92 178 54 q 154 152 156 129 q 153 219 153 175 l 153 428 q 139 539 153 522 q 44 556 125 556 l 44 599 l 249 614 l 249 153 q 251 100 249 119 q 265 58 254 81 q 303 26 276 36 q 371 15 329 15 q 492 77 446 15 q 539 231 539 139 l 539 478 q 521 542 539 529 q 431 556 503 556 l 431 599 l 635 614 l 635 121 q 653 56 635 69 q 743 43 671 43 l 743 0 z "},"v":{"ha":733,"x_min":26,"x_max":706,"o":"m 706 556 q 635 537 664 556 q 597 502 606 518 q 578 463 588 486 l 396 11 q 367 -15 385 -15 q 349 -10 354 -15 q 338 11 344 -6 l 138 504 q 106 547 124 539 q 26 556 89 556 l 26 599 q 161 594 89 594 l 313 599 l 313 556 q 233 519 233 556 q 242 496 233 514 l 397 108 l 539 463 q 547 496 547 486 q 531 537 547 519 q 481 556 515 554 l 481 599 l 601 594 q 706 599 658 594 l 706 556 z "},"w":{"ha":1003,"x_min":25,"x_max":976,"o":"m 976 556 q 860 467 890 553 l 697 11 q 669 -15 682 -14 q 642 11 651 -15 l 500 406 l 360 13 q 349 -10 354 -4 q 332 -15 344 -15 q 314 -8 319 -15 q 303 15 308 -1 l 128 507 q 97 547 115 539 q 25 556 79 556 l 25 599 l 154 594 l 306 599 l 306 556 q 224 518 224 556 q 231 493 224 510 l 363 122 l 482 458 q 450 535 457 526 q 363 556 433 556 l 363 599 q 486 594 425 594 l 631 599 l 631 556 q 549 518 549 556 q 556 492 549 513 l 693 104 l 819 460 q 826 489 826 478 q 805 537 826 519 q 746 556 783 554 l 746 599 l 875 594 q 976 599 931 594 l 976 556 z "},"x":{"ha":733,"x_min":17,"x_max":717,"o":"m 717 0 q 583 4 654 4 l 433 0 l 433 43 q 471 56 458 44 q 483 78 483 67 q 454 124 483 83 l 349 263 q 229 108 243 138 q 224 86 224 96 q 264 43 224 49 l 264 0 l 132 4 q 17 0 71 4 l 17 43 q 194 126 125 43 q 325 292 217 153 l 188 471 q 117 544 139 533 q 24 556 96 556 l 24 599 q 156 594 79 594 l 306 599 l 306 556 q 257 521 257 553 q 269 496 257 510 l 378 356 l 464 464 q 485 513 485 489 q 444 556 485 551 l 444 599 q 578 594 499 594 q 692 599 638 594 l 692 556 q 526 483 586 553 q 399 326 500 454 l 585 86 q 632 50 607 57 q 717 43 657 43 l 717 0 z "},"y":{"ha":733,"x_min":26,"x_max":706,"o":"m 706 556 q 576 467 613 556 l 332 -126 q 154 -285 265 -285 q 64 -252 101 -285 q 26 -172 26 -219 q 44 -128 26 -143 q 85 -112 61 -112 q 126 -128 110 -112 q 143 -171 143 -144 q 89 -229 143 -222 q 154 -254 115 -254 q 229 -224 196 -254 q 277 -164 263 -193 q 313 -82 292 -135 l 347 0 l 139 507 q 104 548 125 540 q 26 556 83 556 l 26 599 q 161 594 89 594 l 313 599 l 313 556 q 235 519 235 556 q 243 494 235 515 l 397 121 l 538 463 q 546 496 546 482 q 481 556 546 553 l 481 599 l 601 594 q 706 599 658 594 l 706 556 z "},"z":{"ha":617,"x_min":39,"x_max":557,"o":"m 557 260 l 533 0 l 75 0 q 46 3 53 0 q 39 19 39 6 q 51 44 39 29 l 439 568 l 281 568 q 135 528 171 568 q 93 375 100 488 l 58 375 l 74 599 l 518 599 q 540 598 533 599 q 550 593 546 597 q 554 581 554 589 q 542 557 554 572 l 156 35 l 319 35 q 474 83 435 35 q 522 260 513 131 l 557 260 z "},"{":{"ha":694,"x_min":104,"x_max":590,"o":"m 574 -314 q 590 -331 590 -314 q 574 -347 590 -347 q 382 -298 463 -347 q 301 -174 301 -249 l 301 174 q 249 283 301 236 q 121 331 197 331 q 104 347 104 331 q 121 364 104 364 q 249 411 197 364 q 301 521 301 458 l 301 868 q 382 992 301 943 q 574 1042 463 1042 q 590 1025 590 1042 q 574 1008 590 1008 q 445 966 497 1008 q 393 868 393 924 l 393 521 q 349 416 393 463 q 233 347 306 369 q 349 278 306 325 q 393 174 393 232 l 393 -174 q 445 -272 393 -229 q 574 -314 497 -314 z "},"|":{"ha":386,"x_min":165,"x_max":221,"o":"m 221 -319 q 213 -339 221 -331 q 193 -347 204 -347 q 174 -339 182 -347 q 165 -319 165 -331 l 165 1014 q 174 1033 165 1025 q 193 1042 182 1042 q 213 1033 204 1042 q 221 1014 221 1025 l 221 -319 z "},"}":{"ha":694,"x_min":104,"x_max":590,"o":"m 574 364 q 590 347 590 364 q 574 331 590 331 q 445 283 497 331 q 393 174 393 236 l 393 -174 q 313 -298 393 -249 q 121 -347 232 -347 q 104 -331 104 -347 q 121 -314 104 -314 q 249 -272 197 -314 q 301 -174 301 -229 l 301 174 q 345 278 301 232 q 461 347 389 325 q 345 416 389 369 q 301 521 301 463 l 301 868 q 249 966 301 924 q 121 1008 197 1008 q 104 1025 104 1008 q 121 1042 104 1042 q 313 992 232 1042 q 393 868 393 943 l 393 521 q 445 411 393 458 q 574 364 497 364 z "},"~":{"ha":772,"x_min":0,"x_max":771,"o":"m 771 403 l 696 342 q 617 293 668 318 q 515 268 561 268 q 376 315 457 268 q 232 367 286 367 q 19 268 138 367 l 0 292 l 75 353 q 154 401 103 376 q 256 426 210 426 q 394 379 314 426 q 539 328 485 328 q 751 426 633 328 l 771 403 z "}," ":{"ha":461,"x_min":0,"x_max":0,"o":""},"¡":{"ha":386,"x_min":119,"x_max":267,"o":"m 245 673 q 256 662 245 673 q 267 621 267 651 q 245 569 267 590 q 193 547 224 547 q 141 569 163 547 q 119 621 119 590 q 141 673 119 651 q 193 694 163 694 q 245 673 224 694 m 267 -229 q 244 -281 267 -261 q 193 -300 222 -300 q 142 -281 164 -300 q 119 -229 119 -261 l 174 404 q 193 435 175 435 q 206 431 201 435 q 210 421 210 426 q 213 403 211 415 l 265 -214 l 267 -229 z "},"¢":{"ha":617,"x_min":47,"x_max":576,"o":"m 576 165 q 571 142 576 158 q 550 99 565 125 q 512 48 535 72 q 449 6 489 24 q 360 -15 408 -12 l 360 -42 q 339 -62 360 -62 q 324 -56 331 -62 q 318 -42 318 -50 l 318 -14 q 126 86 206 -3 q 47 300 47 175 q 124 516 47 424 q 318 621 201 608 l 318 640 q 324 655 318 649 q 339 661 331 661 q 360 640 360 661 l 360 622 q 501 579 442 619 q 561 474 561 539 q 543 426 561 443 q 497 408 525 408 q 451 426 468 408 q 433 472 433 444 q 438 497 433 485 q 457 522 442 508 q 499 536 472 535 q 360 588 453 583 l 360 19 q 540 165 494 19 q 558 179 544 179 q 576 165 576 179 m 318 25 l 318 585 q 209 503 256 571 q 163 303 163 436 q 208 109 163 176 q 318 25 254 42 z "},"£":{"ha":1042,"x_min":86,"x_max":956,"o":"m 956 200 q 919 24 956 97 q 810 -49 883 -49 q 751 -40 781 -49 q 701 -24 722 -32 q 649 6 681 -15 q 605 38 618 28 q 557 78 592 49 q 514 115 522 108 q 420 6 503 42 q 226 -31 338 -31 q 127 12 168 -31 q 86 114 86 54 q 146 220 86 181 q 286 260 206 260 q 419 218 353 260 q 399 352 415 265 q 381 454 383 439 l 165 454 l 165 496 l 374 496 q 365 599 365 563 q 436 844 365 740 q 624 949 507 949 q 784 888 717 949 q 851 738 851 826 q 833 692 851 711 q 788 674 814 674 q 742 692 761 674 q 724 738 724 711 q 742 783 724 764 q 788 801 761 801 q 796 801 790 801 q 803 800 801 800 q 733 881 782 850 q 624 913 683 913 q 525 863 563 913 q 475 749 488 814 q 463 599 463 683 q 469 496 463 551 l 686 496 l 686 454 l 475 454 q 491 359 479 428 q 509 241 503 290 q 515 144 515 192 q 591 84 565 103 q 663 44 617 65 q 753 24 710 24 q 872 76 824 24 q 919 200 919 128 l 956 200 m 422 160 l 421 183 q 286 224 353 224 q 171 195 219 224 q 122 114 122 167 q 153 38 122 69 q 226 6 183 6 q 364 49 306 6 q 422 160 422 92 z "},"¤":{"ha":1081,"x_min":193,"x_max":886,"o":"m 854 72 q 867 21 886 40 q 815 33 847 1 l 711 136 q 540 75 636 75 q 368 136 444 75 l 265 33 q 213 21 233 1 q 204 35 206 28 q 208 49 203 42 q 215 60 213 57 q 226 72 218 64 l 329 176 q 268 347 268 251 q 329 519 268 443 l 226 622 q 213 675 193 656 q 265 663 233 694 l 369 558 q 540 619 444 619 q 711 558 635 619 l 814 661 q 867 674 846 693 q 853 622 886 656 l 750 519 q 811 347 811 446 q 751 176 811 250 l 854 72 m 692 194 q 724 225 692 194 q 756 347 756 257 q 692 501 756 438 q 540 564 629 564 q 387 500 450 564 q 324 347 324 436 q 387 194 324 258 q 540 131 450 131 q 692 194 629 131 z "},"¥":{"ha":1042,"x_min":15,"x_max":1025,"o":"m 1025 906 q 847 815 901 906 l 636 471 l 833 471 l 833 429 l 610 429 l 579 379 l 579 265 l 833 265 l 833 224 l 579 224 l 579 111 q 597 56 579 68 q 690 43 614 43 l 722 43 l 722 0 q 519 4 672 4 q 317 0 367 4 l 317 43 l 350 43 q 442 56 425 43 q 460 108 460 68 l 460 224 l 208 224 l 208 265 l 460 265 l 460 379 l 429 429 l 208 429 l 208 471 l 403 471 l 168 854 q 146 884 156 875 q 111 899 136 893 q 40 906 86 906 l 15 906 l 15 949 l 196 944 q 401 949 351 944 l 401 906 q 327 899 350 906 q 304 871 304 892 q 314 847 304 861 l 544 471 l 586 471 l 794 810 q 808 851 808 831 q 789 890 808 875 q 729 906 769 906 l 729 949 l 889 944 q 1025 949 961 944 l 1025 906 z "},"¦":{"ha":386,"x_min":165,"x_max":221,"o":"m 221 476 q 193 456 221 456 q 165 476 165 456 l 165 996 q 193 1042 165 1042 q 221 996 221 1042 l 221 476 m 221 -301 q 193 -347 221 -347 q 165 -301 165 -347 l 165 218 q 193 239 165 239 q 221 218 221 239 l 221 -301 z "},"§":{"ha":617,"x_min":96,"x_max":519,"o":"m 519 -74 q 458 -222 519 -158 q 307 -285 397 -285 q 172 -235 228 -285 q 115 -119 115 -185 q 125 -87 115 -99 q 144 -72 135 -75 q 163 -69 153 -69 q 194 -82 181 -69 q 208 -115 208 -94 q 160 -162 208 -158 q 222 -232 179 -210 q 306 -254 264 -254 q 405 -199 369 -254 q 440 -74 440 -143 q 406 43 440 -11 q 303 126 371 97 q 257 148 272 140 q 206 179 242 156 q 150 224 169 203 q 113 282 131 246 q 96 357 96 318 q 138 482 96 424 q 253 561 179 540 q 96 768 96 644 q 157 916 96 853 q 308 979 218 979 q 444 929 388 979 q 500 814 500 879 q 490 781 500 793 q 472 767 481 769 q 453 764 463 764 q 421 776 435 764 q 407 810 407 789 q 456 857 407 853 q 394 926 436 904 q 310 949 351 949 q 210 893 246 949 q 175 768 175 838 q 210 651 175 706 q 313 568 244 597 q 358 547 343 554 q 410 515 374 539 q 465 470 446 492 q 502 413 485 449 q 519 338 519 376 q 478 213 519 271 q 363 133 436 154 q 519 -74 519 50 m 440 338 q 422 426 440 385 q 377 490 403 467 q 331 525 351 513 q 300 538 310 538 q 214 485 253 538 q 175 357 175 433 q 194 269 175 310 q 238 205 213 228 q 285 169 264 182 q 315 157 306 157 q 401 209 363 157 q 440 338 440 261 z "},"¨":{"ha":694,"x_min":157,"x_max":539,"o":"m 292 840 q 273 794 292 814 q 224 774 254 774 q 176 794 196 774 q 157 840 157 814 q 176 885 157 865 q 225 906 194 906 q 272 885 253 906 q 292 840 292 865 m 539 840 q 520 794 539 814 q 471 774 501 774 q 424 794 443 774 q 404 840 404 814 q 423 885 404 865 q 472 906 442 906 q 519 885 500 906 q 539 840 539 865 z "},"©":{"ha":949,"x_min":0,"x_max":949,"o":"m 949 475 q 810 139 949 278 q 475 0 671 0 q 139 139 278 0 q 0 475 0 278 q 139 810 0 671 q 475 949 278 949 q 810 810 671 949 q 949 475 949 671 m 893 475 q 770 770 893 647 q 475 893 647 893 q 178 771 301 893 q 56 475 56 649 q 178 178 56 301 q 475 56 301 56 q 771 178 649 56 q 893 475 893 301 m 679 392 q 624 258 679 319 q 481 196 568 196 q 293 277 372 196 q 214 475 214 358 q 293 672 214 590 q 481 753 372 753 q 621 688 553 753 l 660 743 q 665 750 663 747 q 669 753 668 753 l 671 753 q 679 735 679 753 l 679 553 q 678 538 679 540 q 668 535 676 535 q 658 537 660 535 q 656 547 657 539 q 599 680 644 631 q 489 729 553 729 q 450 725 471 729 q 400 705 429 721 q 348 663 371 689 q 309 588 325 638 q 293 474 293 539 q 310 360 293 410 q 349 285 326 311 q 401 244 371 260 q 451 225 431 229 q 489 221 471 221 q 605 267 554 221 q 661 392 656 314 q 669 404 661 404 q 679 392 679 404 z "},"ª":{"ha":624,"x_min":49,"x_max":575,"o":"m 575 631 q 555 572 575 594 q 516 544 535 550 q 479 539 497 539 q 416 563 440 539 q 389 618 392 586 q 331 558 371 582 q 236 533 290 533 q 154 542 194 533 q 81 576 114 551 q 49 636 49 600 q 165 763 49 718 q 381 797 236 790 l 381 833 q 343 926 381 894 q 257 958 306 958 q 131 914 174 958 q 170 904 156 914 q 188 886 185 894 q 190 869 190 878 q 176 837 190 850 q 136 824 161 824 q 98 836 113 824 q 83 869 83 849 q 135 948 83 917 q 258 979 186 979 q 419 926 356 979 q 454 877 447 903 q 461 811 461 851 l 461 617 q 463 602 461 611 q 476 581 465 593 q 504 568 486 568 q 546 631 546 568 l 546 685 l 575 685 l 575 631 m 554 478 q 533 463 554 463 l 90 463 q 69 478 69 463 q 90 492 69 492 l 533 492 q 554 478 554 492 m 381 681 l 381 778 q 195 731 251 774 q 139 638 139 689 q 169 578 139 601 q 244 554 200 554 q 337 586 293 554 q 381 681 381 618 z "},"«":{"ha":772,"x_min":154,"x_max":617,"o":"m 385 14 q 371 0 385 0 l 368 0 q 356 10 358 0 q 158 326 292 192 q 154 336 154 328 q 158 346 156 343 q 356 663 292 479 q 368 671 358 671 l 371 671 q 385 657 385 671 l 385 654 q 254 336 346 488 q 385 17 344 186 l 385 14 m 617 14 q 603 0 617 0 l 600 0 q 588 10 590 0 q 390 326 524 192 q 386 336 386 328 q 390 346 388 343 q 588 663 524 479 q 600 671 589 671 l 603 671 q 617 657 617 671 l 617 654 q 486 336 578 488 q 617 17 576 186 l 617 14 z "},"¬":{"ha":926,"x_min":65,"x_max":861,"o":"m 861 213 q 853 193 861 201 q 833 185 844 185 q 814 193 822 185 q 806 213 806 201 l 806 454 l 93 454 q 74 463 82 454 q 65 482 65 471 q 74 501 65 493 q 93 510 82 510 l 833 510 q 853 501 844 510 q 861 482 861 493 l 861 213 z "},"®":{"ha":949,"x_min":0,"x_max":949,"o":"m 949 475 q 810 139 949 278 q 475 0 671 0 q 139 139 278 0 q 0 475 0 278 q 139 810 0 671 q 475 949 278 949 q 810 810 671 949 q 949 475 949 671 m 893 475 q 770 770 893 647 q 475 893 647 893 q 178 771 301 893 q 56 475 56 649 q 178 178 56 301 q 475 56 301 56 q 771 178 649 56 q 893 475 893 301 m 763 289 q 745 233 763 263 q 689 204 728 204 q 593 238 629 204 q 566 279 571 257 q 561 346 561 301 q 556 410 561 390 q 532 449 551 429 q 461 475 506 475 l 374 475 l 374 282 q 383 253 374 260 q 433 246 392 246 l 453 246 l 453 222 l 340 224 l 229 222 l 229 246 l 247 246 q 298 253 289 246 q 307 282 307 260 l 307 685 q 298 714 307 707 q 247 721 289 721 l 229 721 l 229 744 l 469 744 q 610 703 553 744 q 668 607 668 663 q 630 530 668 564 q 535 482 592 496 q 628 393 610 454 l 638 332 q 657 246 647 269 q 692 222 667 222 q 743 290 738 222 q 751 301 743 301 q 763 289 763 301 m 590 607 q 577 671 590 646 q 538 706 564 696 q 490 718 511 715 q 435 721 469 721 q 390 719 397 721 q 374 690 374 717 l 374 492 l 458 492 q 590 607 590 492 z "},"¯":{"ha":694,"x_min":97,"x_max":599,"o":"m 599 818 l 97 818 l 97 861 l 599 861 l 599 818 z "},"°":{"ha":521,"x_min":68,"x_max":453,"o":"m 453 756 q 397 620 453 676 q 261 564 340 564 q 124 620 181 564 q 68 756 68 676 q 124 892 68 836 q 261 949 181 949 q 397 892 340 949 q 453 756 453 836 m 397 756 q 358 853 397 813 q 261 893 318 893 q 164 853 204 893 q 124 756 124 813 q 164 659 124 699 q 261 619 204 619 q 357 660 317 619 q 397 756 397 700 z "},"±":{"ha":1081,"x_min":78,"x_max":1003,"o":"m 994 -69 q 999 -74 994 -69 q 1003 -89 1003 -78 q 994 -108 1003 -100 q 975 -117 986 -117 l 106 -117 q 86 -108 94 -117 q 78 -89 78 -100 q 86 -69 78 -78 q 106 -61 94 -61 l 513 -61 l 513 319 l 106 319 q 86 328 94 319 q 78 347 78 336 q 86 367 78 358 q 106 375 94 375 l 513 375 l 513 782 q 521 801 513 793 q 540 810 529 810 q 560 801 551 810 q 568 782 568 793 l 568 375 l 975 375 q 994 367 986 375 q 1003 347 1003 358 q 994 328 1003 336 q 975 319 986 319 l 568 319 l 568 -61 l 975 -61 q 994 -69 986 -61 z "},"´":{"ha":694,"x_min":261,"x_max":519,"o":"m 519 919 q 496 878 519 896 l 285 708 l 261 733 l 428 946 q 469 969 443 969 q 504 954 489 969 q 519 919 519 939 z "},"µ":{"ha":772,"x_min":44,"x_max":742,"o":"m 742 0 l 540 -15 l 540 104 l 539 104 q 363 -15 482 -15 q 250 3 294 -15 l 250 -161 q 267 -217 250 -208 q 358 -226 283 -226 l 358 -269 l 201 -265 l 44 -269 l 44 -226 q 136 -217 119 -226 q 153 -161 153 -208 l 153 474 q 135 541 153 528 q 44 554 118 554 l 44 597 l 250 613 l 250 154 q 253 101 250 121 q 266 59 256 82 q 302 26 276 36 q 369 15 328 15 q 490 77 444 15 q 536 232 536 139 l 536 474 q 519 541 536 528 q 428 554 501 554 l 428 597 l 633 613 l 633 124 q 651 56 633 69 q 742 43 668 43 l 742 0 z "},"¶":{"ha":849,"x_min":78,"x_max":808,"o":"m 763 964 q 808 936 808 964 q 763 908 808 908 l 693 908 l 693 -224 q 665 -269 693 -269 q 638 -224 638 -269 l 638 908 l 540 908 l 540 -224 q 513 -269 540 -269 q 485 -224 485 -269 l 485 319 q 346 343 415 322 q 215 401 276 364 q 116 502 154 439 q 78 643 78 565 q 179 869 78 775 q 425 964 281 964 l 763 964 z "},"·":{"ha":386,"x_min":119,"x_max":267,"o":"m 245 399 q 256 389 245 399 q 267 347 267 378 q 245 295 267 317 q 193 274 224 274 q 141 295 163 274 q 119 347 119 317 q 141 399 119 378 q 193 421 163 421 q 245 399 224 421 z "},"¸":{"ha":617,"x_min":124,"x_max":494,"o":"m 494 -185 q 481 -224 494 -207 q 440 -250 468 -240 q 385 -266 411 -260 q 312 -274 358 -272 q 238 -277 265 -276 q 160 -278 211 -278 l 124 -278 l 124 -242 l 142 -242 q 197 -242 178 -242 q 248 -240 215 -242 q 299 -234 281 -237 q 339 -225 318 -231 q 369 -209 360 -219 q 378 -185 378 -199 q 272 -128 378 -128 l 272 7 l 344 7 l 344 -92 q 451 -115 407 -92 q 494 -185 494 -139 z "},"º":{"ha":582,"x_min":33,"x_max":550,"o":"m 550 753 q 474 597 550 661 q 290 533 397 533 q 110 597 186 533 q 33 753 33 660 q 108 912 33 844 q 292 979 183 979 q 474 913 397 979 q 550 753 550 846 m 529 478 q 508 463 529 463 l 75 463 q 54 478 54 463 q 75 492 54 492 l 508 492 q 529 478 529 492 m 453 760 q 422 894 453 853 q 290 958 376 958 q 157 893 204 958 q 129 760 129 850 q 158 622 129 665 q 292 558 204 558 q 426 629 385 558 q 453 760 453 672 z "},"»":{"ha":772,"x_min":156,"x_max":618,"o":"m 618 336 l 614 326 q 417 10 481 192 q 404 0 414 0 l 401 0 q 388 14 388 0 l 388 17 q 518 336 425 186 q 388 654 425 486 l 388 657 q 401 671 388 671 l 404 671 q 417 663 414 671 q 614 346 481 479 l 618 336 m 386 336 l 382 326 q 185 10 249 192 q 172 0 182 0 l 169 0 q 156 14 156 0 l 156 17 q 286 336 193 186 q 156 654 193 486 l 156 657 q 169 671 156 671 l 172 671 q 185 663 183 671 q 382 346 249 479 l 386 336 z "},"¿":{"ha":656,"x_min":78,"x_max":576,"o":"m 576 -100 q 499 -233 576 -182 q 308 -285 421 -285 q 131 -228 183 -285 q 78 -97 78 -172 q 149 50 78 -12 q 292 379 292 172 l 292 401 q 292 422 292 417 q 297 431 293 428 q 308 435 300 435 q 326 418 325 435 l 326 385 q 229 28 326 165 q 210 -2 215 10 q 199 -40 204 -14 q 193 -107 193 -67 q 195 -160 193 -142 q 208 -205 197 -179 q 244 -242 218 -231 q 313 -254 269 -254 q 435 -231 374 -254 q 525 -160 497 -208 q 469 -144 490 -164 q 449 -97 449 -125 q 466 -51 449 -69 q 513 -33 483 -33 q 558 -50 539 -33 q 576 -100 576 -67 m 360 673 q 371 662 360 673 q 382 621 382 651 q 360 569 382 590 q 308 547 339 547 q 256 569 278 547 q 235 621 235 590 q 256 673 235 651 q 308 694 278 694 q 360 673 339 694 z "},"À":{"ha":1042,"x_min":44,"x_max":996,"o":"m 996 0 l 814 4 q 614 0 664 4 l 614 43 q 729 85 729 43 q 725 104 729 88 l 651 317 l 308 317 l 244 135 q 242 114 242 129 q 269 64 242 85 q 346 43 296 43 l 346 0 l 186 4 l 44 0 l 44 43 q 200 136 168 46 l 488 967 q 499 989 493 983 q 521 994 506 994 q 534 993 529 994 q 542 987 539 992 q 547 979 546 982 q 553 967 549 976 l 853 99 q 886 53 864 64 q 971 43 908 43 l 996 43 l 996 0 m 636 360 l 479 811 l 324 360 l 636 360 m 617 1065 l 597 1036 l 361 1167 q 331 1204 335 1179 q 341 1244 326 1226 q 379 1263 356 1263 q 415 1246 399 1263 l 617 1065 z "},"Á":{"ha":1042,"x_min":44,"x_max":996,"o":"m 996 0 l 814 4 q 614 0 664 4 l 614 43 q 729 85 729 43 q 725 104 729 88 l 651 317 l 308 317 l 244 135 q 242 114 242 129 q 269 64 242 85 q 346 43 296 43 l 346 0 l 186 4 l 44 0 l 44 43 q 200 136 168 46 l 488 967 q 499 989 493 983 q 521 994 506 994 q 534 993 529 994 q 542 987 539 992 q 547 979 546 982 q 553 967 549 976 l 853 99 q 886 53 864 64 q 971 43 908 43 l 996 43 l 996 0 m 636 360 l 479 811 l 324 360 l 636 360 m 711 1204 q 681 1167 707 1179 l 444 1036 l 425 1065 l 626 1246 q 663 1263 643 1263 q 701 1244 686 1263 q 711 1204 715 1226 z "},"Â":{"ha":1042,"x_min":44,"x_max":996,"o":"m 996 0 l 814 4 q 614 0 664 4 l 614 43 q 729 85 729 43 q 725 104 729 88 l 651 317 l 308 317 l 244 135 q 242 114 242 129 q 269 64 242 85 q 346 43 296 43 l 346 0 l 186 4 l 44 0 l 44 43 q 200 136 168 46 l 488 967 q 499 989 493 983 q 521 994 506 994 q 534 993 529 994 q 542 987 539 992 q 547 979 546 982 q 553 967 549 976 l 853 99 q 886 53 864 64 q 971 43 908 43 l 996 43 l 996 0 m 636 360 l 479 811 l 324 360 l 636 360 m 731 1044 l 714 1022 l 519 1114 l 325 1022 l 311 1044 l 521 1207 l 731 1044 z "},"Ã":{"ha":1042,"x_min":44,"x_max":996,"o":"m 996 0 l 814 4 q 614 0 664 4 l 614 43 q 729 85 729 43 q 725 104 729 88 l 651 317 l 308 317 l 244 135 q 242 114 242 129 q 269 64 242 85 q 346 43 296 43 l 346 0 l 186 4 l 44 0 l 44 43 q 200 136 168 46 l 488 967 q 499 989 493 983 q 521 994 506 994 q 534 993 529 994 q 542 987 539 992 q 547 979 546 982 q 553 967 549 976 l 853 99 q 886 53 864 64 q 971 43 908 43 l 996 43 l 996 0 m 636 360 l 479 811 l 324 360 l 636 360 m 753 1131 q 692 1065 708 1082 q 651 1035 675 1049 q 603 1022 628 1022 q 517 1054 571 1022 q 426 1089 458 1089 q 370 1072 399 1089 q 328 1039 342 1056 l 313 1022 l 290 1043 q 351 1108 335 1092 q 392 1138 368 1125 q 440 1151 415 1151 q 526 1119 472 1151 q 617 1085 586 1085 q 673 1101 644 1085 q 717 1135 701 1118 l 731 1151 l 753 1131 z "},"Ä":{"ha":1042,"x_min":44,"x_max":996,"o":"m 996 0 l 814 4 q 614 0 664 4 l 614 43 q 729 85 729 43 q 725 104 729 88 l 651 317 l 308 317 l 244 135 q 242 114 242 129 q 269 64 242 85 q 346 43 296 43 l 346 0 l 186 4 l 44 0 l 44 43 q 200 136 168 46 l 488 967 q 499 989 493 983 q 521 994 506 994 q 534 993 529 994 q 542 987 539 992 q 547 979 546 982 q 553 967 549 976 l 853 99 q 886 53 864 64 q 971 43 908 43 l 996 43 l 996 0 m 636 360 l 479 811 l 324 360 l 636 360 m 443 1089 q 424 1042 443 1063 q 375 1022 406 1022 q 328 1042 347 1022 q 308 1089 308 1063 q 327 1134 308 1114 q 376 1154 346 1154 q 424 1134 404 1154 q 443 1089 443 1114 m 735 1089 q 716 1042 735 1063 q 667 1022 697 1022 q 619 1042 639 1022 q 600 1089 600 1063 q 619 1134 600 1114 q 668 1154 638 1154 q 715 1134 696 1154 q 735 1089 735 1114 z "},"Å":{"ha":1042,"x_min":44,"x_max":996,"o":"m 996 0 l 814 4 q 614 0 664 4 l 614 43 q 729 85 729 43 q 725 104 729 88 l 651 317 l 308 317 l 244 135 q 242 114 242 129 q 269 64 242 85 q 346 43 296 43 l 346 0 l 186 4 l 44 0 l 44 43 q 200 136 168 46 l 488 967 q 499 989 493 983 q 521 994 506 994 q 534 993 529 994 q 542 987 539 992 q 547 979 546 982 q 553 967 549 976 l 853 99 q 886 53 864 64 q 971 43 908 43 l 996 43 l 996 0 m 636 360 l 479 811 l 324 360 l 636 360 m 521 1036 q 565 1036 521 1036 q 608 1117 608 1036 q 521 1197 608 1197 q 433 1117 433 1197 q 521 1036 433 1036 m 654 1118 q 616 1031 654 1067 q 519 994 578 994 q 426 1030 465 994 q 388 1118 388 1065 q 426 1202 388 1165 q 522 1239 464 1239 q 616 1203 578 1239 q 654 1118 654 1167 z "},"Æ":{"ha":1254,"x_min":44,"x_max":1214,"o":"m 1214 358 l 1156 0 l 471 0 l 471 43 q 560 52 543 43 q 578 106 578 61 l 578 435 l 354 435 l 250 143 q 243 113 243 125 q 269 65 243 85 q 346 43 296 44 l 346 0 l 186 4 q 44 0 136 4 l 44 43 q 201 136 168 43 l 476 904 q 449 905 467 904 q 421 906 431 906 l 358 906 l 358 949 l 1136 949 l 1175 636 l 1140 636 q 1119 759 1131 715 q 1083 840 1108 803 q 1012 892 1057 878 q 893 906 967 906 l 761 906 q 703 896 714 906 q 693 850 693 886 l 693 478 l 811 478 q 929 512 904 478 q 954 640 954 546 l 989 640 l 989 272 l 954 272 q 929 401 954 367 q 811 435 904 435 l 693 435 l 693 99 q 703 53 693 63 q 761 43 714 43 l 893 43 q 992 51 950 43 q 1063 80 1035 60 q 1110 122 1092 100 q 1141 185 1128 144 q 1162 262 1154 226 q 1179 357 1169 297 q 1179 358 1179 357 l 1214 358 m 578 478 l 578 839 q 576 865 578 856 q 560 888 574 875 q 521 900 547 900 l 369 478 l 578 478 z "},"Ç":{"ha":1003,"x_min":78,"x_max":924,"o":"m 924 324 q 831 90 924 199 q 588 -29 738 -19 l 588 -92 q 694 -115 650 -92 q 738 -185 738 -139 q 724 -224 738 -207 q 683 -250 711 -240 q 628 -266 654 -260 q 555 -274 601 -272 q 481 -277 508 -276 q 403 -278 454 -278 l 367 -278 l 367 -242 l 385 -242 q 440 -242 421 -242 q 491 -240 458 -242 q 542 -234 524 -237 q 582 -225 561 -231 q 612 -209 603 -219 q 621 -185 621 -199 q 515 -128 621 -128 l 515 -28 q 206 133 333 -10 q 78 475 78 275 q 221 832 78 685 q 561 979 364 979 q 676 957 622 979 q 756 915 731 935 q 817 860 781 896 l 886 963 q 908 979 897 979 q 922 973 919 979 q 924 946 924 967 l 924 617 q 921 589 924 594 q 901 583 918 583 q 885 588 888 583 q 879 607 882 592 q 775 847 858 757 q 576 936 692 936 q 506 928 543 936 q 416 892 469 921 q 322 817 363 864 q 251 681 281 769 q 221 474 221 592 q 251 267 221 357 q 322 131 281 178 q 416 56 363 85 q 507 20 469 28 q 578 13 544 13 q 789 97 697 13 q 889 325 881 182 q 890 335 890 332 q 892 341 890 338 q 897 346 893 344 q 906 347 900 347 q 924 324 924 347 z "},"È":{"ha":946,"x_min":46,"x_max":906,"o":"m 906 358 l 847 0 l 46 0 l 46 43 l 79 43 q 172 56 154 43 q 189 108 189 68 l 189 836 q 172 889 189 876 q 79 901 154 901 l 46 901 l 46 944 l 828 944 l 867 632 l 832 632 q 810 757 822 711 q 767 838 797 803 q 688 888 738 874 q 560 901 639 901 l 381 901 q 323 892 333 901 q 313 846 313 882 l 313 513 l 438 513 q 560 546 533 513 q 588 675 588 579 l 622 675 l 622 307 l 588 307 q 560 435 588 401 q 438 469 533 469 l 313 469 l 313 99 q 323 53 313 63 q 381 43 333 43 l 565 43 q 669 51 625 43 q 743 78 713 58 q 794 119 774 97 q 830 182 815 142 q 853 260 844 222 q 871 358 861 297 l 906 358 m 568 1065 l 549 1036 l 313 1167 q 282 1204 286 1179 q 292 1244 278 1226 q 331 1263 307 1263 q 367 1246 350 1263 l 568 1065 z "},"É":{"ha":946,"x_min":46,"x_max":906,"o":"m 906 358 l 847 0 l 46 0 l 46 43 l 79 43 q 172 56 154 43 q 189 108 189 68 l 189 836 q 172 889 189 876 q 79 901 154 901 l 46 901 l 46 944 l 828 944 l 867 632 l 832 632 q 810 757 822 711 q 767 838 797 803 q 688 888 738 874 q 560 901 639 901 l 381 901 q 323 892 333 901 q 313 846 313 882 l 313 513 l 438 513 q 560 546 533 513 q 588 675 588 579 l 622 675 l 622 307 l 588 307 q 560 435 588 401 q 438 469 533 469 l 313 469 l 313 99 q 323 53 313 63 q 381 43 333 43 l 565 43 q 669 51 625 43 q 743 78 713 58 q 794 119 774 97 q 830 182 815 142 q 853 260 844 222 q 871 358 861 297 l 906 358 m 663 1204 q 632 1167 658 1179 l 396 1036 l 376 1065 l 578 1246 q 614 1263 594 1263 q 652 1244 638 1263 q 663 1204 667 1226 z "},"Ê":{"ha":946,"x_min":46,"x_max":906,"o":"m 906 358 l 847 0 l 46 0 l 46 43 l 79 43 q 172 56 154 43 q 189 108 189 68 l 189 836 q 172 889 189 876 q 79 901 154 901 l 46 901 l 46 944 l 828 944 l 867 632 l 832 632 q 810 757 822 711 q 767 838 797 803 q 688 888 738 874 q 560 901 639 901 l 381 901 q 323 892 333 901 q 313 846 313 882 l 313 513 l 438 513 q 560 546 533 513 q 588 675 588 579 l 622 675 l 622 307 l 588 307 q 560 435 588 401 q 438 469 533 469 l 313 469 l 313 99 q 323 53 313 63 q 381 43 333 43 l 565 43 q 669 51 625 43 q 743 78 713 58 q 794 119 774 97 q 830 182 815 142 q 853 260 844 222 q 871 358 861 297 l 906 358 m 682 1044 l 665 1022 l 471 1114 l 276 1022 l 263 1044 l 472 1207 l 682 1044 z "},"Ë":{"ha":946,"x_min":46,"x_max":906,"o":"m 906 358 l 847 0 l 46 0 l 46 43 l 79 43 q 172 56 154 43 q 189 108 189 68 l 189 836 q 172 889 189 876 q 79 901 154 901 l 46 901 l 46 944 l 828 944 l 867 632 l 832 632 q 810 757 822 711 q 767 838 797 803 q 688 888 738 874 q 560 901 639 901 l 381 901 q 323 892 333 901 q 313 846 313 882 l 313 513 l 438 513 q 560 546 533 513 q 588 675 588 579 l 622 675 l 622 307 l 588 307 q 560 435 588 401 q 438 469 533 469 l 313 469 l 313 99 q 323 53 313 63 q 381 43 333 43 l 565 43 q 669 51 625 43 q 743 78 713 58 q 794 119 774 97 q 830 182 815 142 q 853 260 844 222 q 871 358 861 297 l 906 358 m 394 1089 q 376 1042 394 1063 q 326 1022 357 1022 q 279 1042 299 1022 q 260 1089 260 1063 q 278 1134 260 1114 q 328 1154 297 1154 q 375 1134 356 1154 q 394 1089 394 1114 m 686 1089 q 667 1042 686 1063 q 618 1022 649 1022 q 571 1042 590 1022 q 551 1089 551 1063 q 570 1134 551 1114 q 619 1154 589 1154 q 667 1134 647 1154 q 686 1089 686 1114 z "},"Ì":{"ha":501,"x_min":39,"x_max":463,"o":"m 463 0 q 250 4 414 4 q 39 0 88 4 l 39 43 l 75 43 q 171 56 153 43 q 189 108 189 68 l 189 840 q 171 893 189 881 q 75 906 153 906 l 39 906 l 39 949 q 251 944 88 944 q 463 949 414 944 l 463 906 l 426 906 q 331 893 349 906 q 313 840 313 881 l 313 108 q 331 56 313 68 q 426 43 349 43 l 463 43 l 463 0 m 347 1065 l 328 1036 l 92 1167 q 61 1204 65 1179 q 72 1244 57 1226 q 110 1263 86 1263 q 146 1246 129 1263 l 347 1065 z "},"Í":{"ha":501,"x_min":39,"x_max":463,"o":"m 463 0 q 250 4 414 4 q 39 0 88 4 l 39 43 l 75 43 q 171 56 153 43 q 189 108 189 68 l 189 840 q 171 893 189 881 q 75 906 153 906 l 39 906 l 39 949 q 251 944 88 944 q 463 949 414 944 l 463 906 l 426 906 q 331 893 349 906 q 313 840 313 881 l 313 108 q 331 56 313 68 q 426 43 349 43 l 463 43 l 463 0 m 442 1204 q 411 1167 438 1179 l 175 1036 l 156 1065 l 357 1246 q 393 1263 374 1263 q 431 1244 417 1263 q 442 1204 446 1226 z "},"Î":{"ha":501,"x_min":39,"x_max":463,"o":"m 463 0 q 250 4 414 4 q 39 0 88 4 l 39 43 l 75 43 q 171 56 153 43 q 189 108 189 68 l 189 840 q 171 893 189 881 q 75 906 153 906 l 39 906 l 39 949 q 251 944 88 944 q 463 949 414 944 l 463 906 l 426 906 q 331 893 349 906 q 313 840 313 881 l 313 108 q 331 56 313 68 q 426 43 349 43 l 463 43 l 463 0 m 461 1044 l 444 1022 l 250 1114 l 56 1022 l 42 1044 l 251 1207 l 461 1044 z "},"Ï":{"ha":501,"x_min":39,"x_max":465,"o":"m 463 0 q 250 4 414 4 q 39 0 88 4 l 39 43 l 75 43 q 171 56 153 43 q 189 108 189 68 l 189 840 q 171 893 189 881 q 75 906 153 906 l 39 906 l 39 949 q 251 944 88 944 q 463 949 414 944 l 463 906 l 426 906 q 331 893 349 906 q 313 840 313 881 l 313 108 q 331 56 313 68 q 426 43 349 43 l 463 43 l 463 0 m 174 1089 q 155 1042 174 1063 q 106 1022 136 1022 q 58 1042 78 1022 q 39 1089 39 1063 q 58 1134 39 1114 q 107 1154 76 1154 q 154 1134 135 1154 q 174 1089 174 1114 m 465 1089 q 447 1042 465 1063 q 397 1022 428 1022 q 350 1042 369 1022 q 331 1089 331 1063 q 349 1134 331 1114 q 399 1154 368 1154 q 446 1134 426 1154 q 465 1089 465 1114 z "},"Ð":{"ha":1061,"x_min":49,"x_max":982,"o":"m 982 467 q 858 136 982 272 q 557 0 733 0 l 49 0 l 49 43 l 82 43 q 174 56 157 43 q 192 108 192 68 l 192 454 l 49 454 l 49 496 l 192 496 l 192 840 q 174 893 192 881 q 82 906 157 906 l 49 906 l 49 949 l 557 949 q 858 807 735 949 q 982 467 982 665 m 843 467 q 771 776 843 678 q 518 906 678 906 l 379 906 q 322 896 332 906 q 311 850 311 886 l 311 496 l 531 496 l 531 454 l 311 454 l 311 99 q 322 53 311 63 q 379 43 332 43 l 519 43 q 673 81 611 43 q 767 161 735 118 q 843 467 843 265 z "},"Ñ":{"ha":1042,"x_min":46,"x_max":994,"o":"m 994 906 q 913 896 944 906 q 869 867 881 886 q 854 836 857 849 q 851 803 851 824 l 851 36 q 849 7 851 14 q 832 0 846 0 q 808 18 822 0 l 242 851 q 228 868 236 860 l 228 146 q 231 113 228 125 q 245 81 233 100 q 289 53 257 63 q 371 43 321 43 l 371 0 l 208 4 l 46 0 l 46 43 q 128 53 96 43 q 172 81 160 63 q 186 113 183 100 q 189 146 189 125 l 189 871 q 184 895 189 890 q 156 903 179 900 q 86 906 114 906 l 46 906 l 46 949 l 282 949 q 307 946 301 949 q 322 931 313 943 l 813 210 l 813 803 q 810 836 813 824 q 795 867 807 849 q 751 896 783 886 q 669 906 719 906 l 669 949 l 832 944 l 994 949 l 994 906 m 753 1131 q 692 1065 708 1082 q 651 1035 675 1049 q 603 1022 628 1022 q 517 1054 571 1022 q 426 1089 458 1089 q 370 1072 399 1089 q 328 1039 342 1056 l 313 1022 l 290 1043 q 351 1108 335 1092 q 392 1138 368 1125 q 440 1151 415 1151 q 526 1119 472 1151 q 617 1085 586 1085 q 673 1101 644 1085 q 717 1135 701 1118 l 731 1151 l 753 1131 z "},"Ò":{"ha":1081,"x_min":78,"x_max":1001,"o":"m 1001 471 q 865 115 1001 261 q 539 -31 729 -31 q 215 115 351 -31 q 78 471 78 260 q 214 831 78 683 q 539 979 350 979 q 865 831 729 979 q 1001 471 1001 682 m 858 490 q 837 674 858 592 q 781 805 815 756 q 703 887 747 854 q 619 932 660 919 q 539 944 578 944 q 440 923 490 944 q 338 853 389 901 q 253 712 286 806 q 221 490 221 618 q 251 263 221 361 q 331 110 282 164 q 433 31 381 57 q 540 6 486 6 q 645 31 593 6 q 747 108 697 56 q 827 260 796 161 q 858 490 858 360 m 636 1065 l 617 1036 l 381 1167 q 350 1204 354 1179 q 360 1244 346 1226 q 399 1263 375 1263 q 435 1246 418 1263 l 636 1065 z "},"Ó":{"ha":1081,"x_min":78,"x_max":1001,"o":"m 1001 471 q 865 115 1001 261 q 539 -31 729 -31 q 215 115 351 -31 q 78 471 78 260 q 214 831 78 683 q 539 979 350 979 q 865 831 729 979 q 1001 471 1001 682 m 858 490 q 837 674 858 592 q 781 805 815 756 q 703 887 747 854 q 619 932 660 919 q 539 944 578 944 q 440 923 490 944 q 338 853 389 901 q 253 712 286 806 q 221 490 221 618 q 251 263 221 361 q 331 110 282 164 q 433 31 381 57 q 540 6 486 6 q 645 31 593 6 q 747 108 697 56 q 827 260 796 161 q 858 490 858 360 m 731 1204 q 700 1167 726 1179 l 464 1036 l 444 1065 l 646 1246 q 682 1263 663 1263 q 720 1244 706 1263 q 731 1204 735 1226 z "},"Ô":{"ha":1081,"x_min":78,"x_max":1001,"o":"m 1001 471 q 865 115 1001 261 q 539 -31 729 -31 q 215 115 351 -31 q 78 471 78 260 q 214 831 78 683 q 539 979 350 979 q 865 831 729 979 q 1001 471 1001 682 m 858 490 q 837 674 858 592 q 781 805 815 756 q 703 887 747 854 q 619 932 660 919 q 539 944 578 944 q 440 923 490 944 q 338 853 389 901 q 253 712 286 806 q 221 490 221 618 q 251 263 221 361 q 331 110 282 164 q 433 31 381 57 q 540 6 486 6 q 645 31 593 6 q 747 108 697 56 q 827 260 796 161 q 858 490 858 360 m 750 1044 l 733 1022 l 539 1114 l 344 1022 l 331 1044 l 540 1207 l 750 1044 z "},"Õ":{"ha":1081,"x_min":78,"x_max":1001,"o":"m 1001 471 q 865 115 1001 261 q 539 -31 729 -31 q 215 115 351 -31 q 78 471 78 260 q 214 831 78 683 q 539 979 350 979 q 865 831 729 979 q 1001 471 1001 682 m 858 490 q 837 674 858 592 q 781 805 815 756 q 703 887 747 854 q 619 932 660 919 q 539 944 578 944 q 440 923 490 944 q 338 853 389 901 q 253 712 286 806 q 221 490 221 618 q 251 263 221 361 q 331 110 282 164 q 433 31 381 57 q 540 6 486 6 q 645 31 593 6 q 747 108 697 56 q 827 260 796 161 q 858 490 858 360 m 772 1131 q 711 1065 728 1082 q 671 1035 694 1049 q 622 1022 647 1022 q 536 1054 590 1022 q 446 1089 476 1089 q 390 1072 418 1089 q 347 1039 361 1056 l 332 1022 l 310 1043 q 371 1108 354 1092 q 411 1138 388 1125 q 460 1151 435 1151 q 546 1119 492 1151 q 636 1085 606 1085 q 692 1101 664 1085 q 736 1135 721 1118 l 750 1151 l 772 1131 z "},"Ö":{"ha":1081,"x_min":78,"x_max":1001,"o":"m 1001 471 q 865 115 1001 261 q 539 -31 729 -31 q 215 115 351 -31 q 78 471 78 260 q 214 831 78 683 q 539 979 350 979 q 865 831 729 979 q 1001 471 1001 682 m 858 490 q 837 674 858 592 q 781 805 815 756 q 703 887 747 854 q 619 932 660 919 q 539 944 578 944 q 440 923 490 944 q 338 853 389 901 q 253 712 286 806 q 221 490 221 618 q 251 263 221 361 q 331 110 282 164 q 433 31 381 57 q 540 6 486 6 q 645 31 593 6 q 747 108 697 56 q 827 260 796 161 q 858 490 858 360 m 463 1089 q 444 1042 463 1063 q 394 1022 425 1022 q 347 1042 367 1022 q 328 1089 328 1063 q 347 1134 328 1114 q 396 1154 365 1154 q 443 1134 424 1154 q 463 1089 463 1114 m 754 1089 q 735 1042 754 1063 q 686 1022 717 1022 q 639 1042 658 1022 q 619 1089 619 1063 q 638 1134 619 1114 q 688 1154 657 1154 q 735 1134 715 1154 q 754 1089 754 1114 z "},"×":{"ha":1081,"x_min":206,"x_max":875,"o":"m 867 21 q 848 13 860 13 q 828 21 836 13 l 540 308 l 253 21 q 233 13 244 13 q 214 21 221 13 q 206 40 206 28 q 214 60 206 51 l 501 347 l 214 635 q 206 655 206 643 q 214 674 206 667 q 233 682 221 682 q 253 674 244 682 l 540 386 l 828 674 q 848 682 836 682 q 867 674 860 682 q 875 655 875 667 q 867 635 875 643 l 579 347 l 867 60 q 875 40 875 51 q 867 21 875 28 z "},"Ø":{"ha":1081,"x_min":78,"x_max":1001,"o":"m 1001 471 q 865 115 1001 261 q 539 -31 729 -31 q 278 56 400 -31 l 183 -78 l 156 -58 l 167 -43 l 250 81 q 132 234 186 135 q 78 471 78 333 q 214 831 78 683 q 539 979 350 979 q 790 899 661 979 l 800 892 l 894 1026 l 924 1007 l 828 867 q 1001 471 1001 704 m 769 843 q 539 949 669 949 q 392 909 463 949 q 274 794 321 869 q 201 471 201 679 q 286 135 201 253 l 769 843 m 878 471 q 792 814 878 699 l 310 106 q 540 0 403 0 q 683 37 615 0 q 797 139 751 74 q 878 471 878 256 z "},"Ù":{"ha":1042,"x_min":46,"x_max":994,"o":"m 994 906 q 913 897 944 906 q 869 868 881 888 q 854 835 857 849 q 851 797 851 821 l 851 353 q 847 257 851 285 q 743 53 829 136 q 539 -31 657 -31 q 292 70 396 -31 q 189 317 189 171 l 189 840 q 172 893 189 881 q 79 906 154 906 l 46 906 l 46 949 q 251 944 94 944 q 456 949 407 944 l 456 906 l 422 906 q 330 893 347 906 q 313 840 313 881 l 313 311 q 338 154 313 218 q 404 62 364 90 q 477 23 444 33 q 542 13 510 13 q 728 97 647 13 q 808 321 808 181 l 808 803 q 806 836 808 824 q 791 867 803 849 q 747 896 779 886 q 665 906 715 906 l 665 949 l 831 944 l 994 949 l 994 906 m 649 1065 l 629 1036 l 393 1167 q 363 1204 367 1179 q 373 1244 358 1226 q 411 1263 388 1263 q 447 1246 431 1263 l 649 1065 z "},"Ú":{"ha":1042,"x_min":46,"x_max":994,"o":"m 994 906 q 913 897 944 906 q 869 868 881 888 q 854 835 857 849 q 851 797 851 821 l 851 353 q 847 257 851 285 q 743 53 829 136 q 539 -31 657 -31 q 292 70 396 -31 q 189 317 189 171 l 189 840 q 172 893 189 881 q 79 906 154 906 l 46 906 l 46 949 q 251 944 94 944 q 456 949 407 944 l 456 906 l 422 906 q 330 893 347 906 q 313 840 313 881 l 313 311 q 338 154 313 218 q 404 62 364 90 q 477 23 444 33 q 542 13 510 13 q 728 97 647 13 q 808 321 808 181 l 808 803 q 806 836 808 824 q 791 867 803 849 q 747 896 779 886 q 665 906 715 906 l 665 949 l 831 944 l 994 949 l 994 906 m 743 1204 q 713 1167 739 1179 l 476 1036 l 457 1065 l 658 1246 q 694 1263 675 1263 q 733 1244 718 1263 q 743 1204 747 1226 z "},"Û":{"ha":1042,"x_min":46,"x_max":994,"o":"m 994 906 q 913 897 944 906 q 869 868 881 888 q 854 835 857 849 q 851 797 851 821 l 851 353 q 847 257 851 285 q 743 53 829 136 q 539 -31 657 -31 q 292 70 396 -31 q 189 317 189 171 l 189 840 q 172 893 189 881 q 79 906 154 906 l 46 906 l 46 949 q 251 944 94 944 q 456 949 407 944 l 456 906 l 422 906 q 330 893 347 906 q 313 840 313 881 l 313 311 q 338 154 313 218 q 404 62 364 90 q 477 23 444 33 q 542 13 510 13 q 728 97 647 13 q 808 321 808 181 l 808 803 q 806 836 808 824 q 791 867 803 849 q 747 896 779 886 q 665 906 715 906 l 665 949 l 831 944 l 994 949 l 994 906 m 763 1044 l 746 1022 l 551 1114 l 357 1022 l 343 1044 l 553 1207 l 763 1044 z "},"Ü":{"ha":1042,"x_min":46,"x_max":994,"o":"m 994 906 q 913 897 944 906 q 869 868 881 888 q 854 835 857 849 q 851 797 851 821 l 851 353 q 847 257 851 285 q 743 53 829 136 q 539 -31 657 -31 q 292 70 396 -31 q 189 317 189 171 l 189 840 q 172 893 189 881 q 79 906 154 906 l 46 906 l 46 949 q 251 944 94 944 q 456 949 407 944 l 456 906 l 422 906 q 330 893 347 906 q 313 840 313 881 l 313 311 q 338 154 313 218 q 404 62 364 90 q 477 23 444 33 q 542 13 510 13 q 728 97 647 13 q 808 321 808 181 l 808 803 q 806 836 808 824 q 791 867 803 849 q 747 896 779 886 q 665 906 715 906 l 665 949 l 831 944 l 994 949 l 994 906 m 475 1089 q 456 1042 475 1063 q 407 1022 438 1022 q 360 1042 379 1022 q 340 1089 340 1063 q 359 1134 340 1114 q 408 1154 378 1154 q 456 1134 436 1154 q 475 1089 475 1114 m 767 1089 q 748 1042 767 1063 q 699 1022 729 1022 q 651 1042 671 1022 q 632 1089 632 1063 q 651 1134 632 1114 q 700 1154 669 1154 q 747 1134 728 1154 q 767 1089 767 1114 z "},"Ý":{"ha":1042,"x_min":15,"x_max":1025,"o":"m 1025 906 q 847 815 901 906 l 579 379 l 579 111 q 597 56 579 68 q 690 43 614 43 l 722 43 l 722 0 q 519 4 672 4 q 317 0 367 4 l 317 43 l 350 43 q 442 56 425 43 q 460 108 460 68 l 460 379 l 168 854 q 146 884 156 875 q 111 899 136 893 q 40 906 86 906 l 15 906 l 15 949 l 196 944 q 401 949 351 944 l 401 906 q 327 899 350 906 q 304 871 304 892 q 314 847 304 861 l 565 438 l 794 810 q 808 851 808 831 q 789 890 808 875 q 729 906 769 906 l 729 949 l 889 944 q 1025 949 961 944 l 1025 906 m 711 1204 q 681 1167 707 1179 l 444 1036 l 425 1065 l 626 1246 q 663 1263 643 1263 q 701 1244 686 1263 q 711 1204 715 1226 z "},"Þ":{"ha":868,"x_min":50,"x_max":790,"o":"m 790 507 q 708 325 790 403 q 501 247 625 247 l 308 247 l 308 111 q 310 81 308 90 q 320 60 311 71 q 347 47 329 50 q 451 43 376 43 l 451 0 l 250 4 l 50 0 l 50 43 q 149 47 122 43 q 186 64 179 51 q 193 111 193 76 l 193 838 q 192 868 193 858 q 181 888 190 878 q 154 901 172 899 q 50 906 125 906 l 50 949 l 251 944 l 451 949 l 451 906 q 353 901 379 906 q 315 885 322 897 q 308 838 308 872 l 308 768 l 488 768 q 710 688 631 768 q 790 507 790 607 m 651 508 q 601 661 651 596 q 463 725 551 725 l 308 725 l 308 290 l 456 290 q 600 358 549 290 q 651 508 651 425 z "},"ß":{"ha":694,"x_min":39,"x_max":654,"o":"m 654 242 q 580 57 654 129 q 411 -15 506 -15 q 316 16 353 -15 q 279 90 279 47 q 294 128 279 115 q 329 142 310 142 q 365 128 350 142 q 379 92 379 114 q 366 57 379 69 q 338 42 353 44 q 407 15 365 15 q 505 68 460 15 q 550 240 550 121 q 531 388 550 319 q 459 508 511 456 q 329 568 407 561 q 320 572 324 568 q 317 581 317 576 l 317 583 q 339 599 317 596 q 469 658 426 607 q 511 783 511 710 q 470 908 511 867 q 378 949 429 949 q 353 946 367 949 q 317 933 339 943 q 279 905 296 922 q 251 853 263 888 q 239 775 239 819 l 239 0 q 175 4 214 4 l 39 0 l 39 43 q 130 52 113 43 q 147 106 147 61 l 147 556 l 39 556 l 39 599 l 147 599 l 147 772 q 218 924 147 869 q 378 979 289 979 q 547 921 479 979 q 615 782 615 863 q 567 663 615 718 q 431 582 519 607 q 541 513 494 556 q 610 421 588 469 q 644 328 633 372 q 654 242 654 283 z "},"à":{"ha":694,"x_min":44,"x_max":671,"o":"m 671 124 q 632 21 671 50 q 557 -8 593 -8 q 482 26 511 -8 q 449 106 453 60 q 380 19 428 53 q 267 -15 332 -15 q 169 -3 217 -15 q 83 44 122 10 q 44 132 44 79 q 183 313 44 250 q 439 363 267 353 l 439 414 q 394 546 439 500 q 292 592 349 592 q 142 528 190 592 q 198 506 183 526 q 213 464 213 485 q 195 418 213 436 q 149 400 178 400 q 103 417 121 400 q 85 465 85 435 q 146 578 85 533 q 294 622 207 622 q 485 546 408 622 q 520 492 508 522 q 533 441 532 461 q 535 382 535 421 l 535 104 q 538 83 535 96 q 553 52 540 69 q 586 35 565 35 q 636 124 636 35 l 636 201 l 671 201 l 671 124 m 439 194 l 439 333 q 218 267 285 328 q 151 133 151 206 q 188 49 151 82 q 276 15 225 15 q 387 60 335 15 q 439 194 439 106 m 433 733 l 410 708 l 199 878 q 175 919 175 896 q 190 954 175 939 q 225 969 206 969 q 267 946 251 969 l 433 733 z "},"á":{"ha":694,"x_min":44,"x_max":671,"o":"m 671 124 q 632 21 671 50 q 557 -8 593 -8 q 482 26 511 -8 q 449 106 453 60 q 380 19 428 53 q 267 -15 332 -15 q 169 -3 217 -15 q 83 44 122 10 q 44 132 44 79 q 183 313 44 250 q 439 363 267 353 l 439 414 q 394 546 439 500 q 292 592 349 592 q 142 528 190 592 q 198 506 183 526 q 213 464 213 485 q 195 418 213 436 q 149 400 178 400 q 103 417 121 400 q 85 465 85 435 q 146 578 85 533 q 294 622 207 622 q 485 546 408 622 q 520 492 508 522 q 533 441 532 461 q 535 382 535 421 l 535 104 q 538 83 535 96 q 553 52 540 69 q 586 35 565 35 q 636 124 636 35 l 636 201 l 671 201 l 671 124 m 439 194 l 439 333 q 218 267 285 328 q 151 133 151 206 q 188 49 151 82 q 276 15 225 15 q 387 60 335 15 q 439 194 439 106 m 519 919 q 496 878 519 896 l 285 708 l 261 733 l 428 946 q 469 969 443 969 q 504 954 489 969 q 519 919 519 939 z "},"â":{"ha":694,"x_min":44,"x_max":671,"o":"m 671 124 q 632 21 671 50 q 557 -8 593 -8 q 482 26 511 -8 q 449 106 453 60 q 380 19 428 53 q 267 -15 332 -15 q 169 -3 217 -15 q 83 44 122 10 q 44 132 44 79 q 183 313 44 250 q 439 363 267 353 l 439 414 q 394 546 439 500 q 292 592 349 592 q 142 528 190 592 q 198 506 183 526 q 213 464 213 485 q 195 418 213 436 q 149 400 178 400 q 103 417 121 400 q 85 465 85 435 q 146 578 85 533 q 294 622 207 622 q 485 546 408 622 q 520 492 508 522 q 533 441 532 461 q 535 382 535 421 l 535 104 q 538 83 535 96 q 553 52 540 69 q 586 35 565 35 q 636 124 636 35 l 636 201 l 671 201 l 671 124 m 439 194 l 439 333 q 218 267 285 328 q 151 133 151 206 q 188 49 151 82 q 276 15 225 15 q 387 60 335 15 q 439 194 439 106 m 558 736 l 540 717 l 347 867 l 154 717 l 136 736 l 347 961 l 558 736 z "},"ã":{"ha":694,"x_min":44,"x_max":671,"o":"m 671 124 q 632 21 671 50 q 557 -8 593 -8 q 482 26 511 -8 q 449 106 453 60 q 380 19 428 53 q 267 -15 332 -15 q 169 -3 217 -15 q 83 44 122 10 q 44 132 44 79 q 183 313 44 250 q 439 363 267 353 l 439 414 q 394 546 439 500 q 292 592 349 592 q 142 528 190 592 q 198 506 183 526 q 213 464 213 485 q 195 418 213 436 q 149 400 178 400 q 103 417 121 400 q 85 465 85 435 q 146 578 85 533 q 294 622 207 622 q 485 546 408 622 q 520 492 508 522 q 533 441 532 461 q 535 382 535 421 l 535 104 q 538 83 535 96 q 553 52 540 69 q 586 35 565 35 q 636 124 636 35 l 636 201 l 671 201 l 671 124 m 439 194 l 439 333 q 218 267 285 328 q 151 133 151 206 q 188 49 151 82 q 276 15 225 15 q 387 60 335 15 q 439 194 439 106 m 579 883 q 518 818 535 835 q 478 788 501 801 q 429 775 454 775 q 343 807 397 775 q 253 842 283 842 q 197 825 225 842 q 153 792 168 808 l 139 775 l 117 796 q 178 861 161 844 q 218 891 194 878 q 267 904 242 904 q 353 872 299 904 q 443 838 411 838 q 499 854 471 838 q 542 888 528 871 l 557 904 l 579 883 z "},"ä":{"ha":694,"x_min":44,"x_max":671,"o":"m 671 124 q 632 21 671 50 q 557 -8 593 -8 q 482 26 511 -8 q 449 106 453 60 q 380 19 428 53 q 267 -15 332 -15 q 169 -3 217 -15 q 83 44 122 10 q 44 132 44 79 q 183 313 44 250 q 439 363 267 353 l 439 414 q 394 546 439 500 q 292 592 349 592 q 142 528 190 592 q 198 506 183 526 q 213 464 213 485 q 195 418 213 436 q 149 400 178 400 q 103 417 121 400 q 85 465 85 435 q 146 578 85 533 q 294 622 207 622 q 485 546 408 622 q 520 492 508 522 q 533 441 532 461 q 535 382 535 421 l 535 104 q 538 83 535 96 q 553 52 540 69 q 586 35 565 35 q 636 124 636 35 l 636 201 l 671 201 l 671 124 m 439 194 l 439 333 q 218 267 285 328 q 151 133 151 206 q 188 49 151 82 q 276 15 225 15 q 387 60 335 15 q 439 194 439 106 m 292 840 q 273 794 292 814 q 224 774 254 774 q 176 794 196 774 q 157 840 157 814 q 176 885 157 865 q 225 906 194 906 q 272 885 253 906 q 292 840 292 865 m 539 840 q 520 794 539 814 q 471 774 501 774 q 424 794 443 774 q 404 840 404 814 q 423 885 404 865 q 472 906 442 906 q 519 885 500 906 q 539 840 539 865 z "},"å":{"ha":694,"x_min":44,"x_max":671,"o":"m 671 124 q 632 21 671 50 q 557 -8 593 -8 q 482 26 511 -8 q 449 106 453 60 q 380 19 428 53 q 267 -15 332 -15 q 169 -3 217 -15 q 83 44 122 10 q 44 132 44 79 q 183 313 44 250 q 439 363 267 353 l 439 414 q 394 546 439 500 q 292 592 349 592 q 142 528 190 592 q 198 506 183 526 q 213 464 213 485 q 195 418 213 436 q 149 400 178 400 q 103 417 121 400 q 85 465 85 435 q 146 578 85 533 q 294 622 207 622 q 485 546 408 622 q 520 492 508 522 q 533 441 532 461 q 535 382 535 421 l 535 104 q 538 83 535 96 q 553 52 540 69 q 586 35 565 35 q 636 124 636 35 l 636 201 l 671 201 l 671 124 m 439 194 l 439 333 q 218 267 285 328 q 151 133 151 206 q 188 49 151 82 q 276 15 225 15 q 387 60 335 15 q 439 194 439 106 m 347 776 q 391 776 347 776 q 435 857 435 776 q 347 938 435 938 q 260 857 260 938 q 347 776 260 776 m 481 858 q 442 771 481 807 q 346 735 404 735 q 253 770 292 735 q 214 858 214 806 q 252 942 214 906 q 349 979 290 979 q 442 943 404 979 q 481 858 481 907 z "},"æ":{"ha":1003,"x_min":63,"x_max":963,"o":"m 963 165 q 950 126 963 153 q 915 66 938 99 q 847 9 892 33 q 747 -15 801 -15 q 515 108 606 -15 q 426 19 489 54 q 283 -15 364 -15 q 184 -3 231 -15 q 100 42 138 8 q 63 128 63 76 q 172 287 63 226 q 453 347 282 347 l 453 414 q 408 545 453 499 q 306 592 364 592 q 156 528 206 592 q 212 506 197 526 q 226 464 226 485 q 209 418 226 436 q 163 400 192 400 q 117 417 135 400 q 99 465 99 435 q 160 578 99 533 q 308 622 222 622 q 433 594 375 622 q 521 515 490 565 q 731 622 610 622 q 901 546 840 622 q 963 350 963 469 q 957 325 963 329 q 928 321 951 321 l 549 321 q 569 174 549 236 q 616 84 590 113 q 676 40 642 56 q 726 22 711 24 q 753 19 740 19 q 860 59 814 19 q 924 154 907 99 q 927 166 926 163 q 930 174 928 169 q 934 179 932 178 q 938 181 936 181 q 944 182 940 182 q 963 165 963 182 m 871 350 q 729 592 858 592 q 617 538 674 592 q 550 350 560 483 l 871 350 m 469 183 q 465 214 469 199 q 453 318 453 257 q 235 256 301 313 q 169 128 169 199 q 205 47 169 79 q 290 15 240 15 q 417 65 364 15 q 469 183 469 115 z "},"ç":{"ha":617,"x_min":47,"x_max":576,"o":"m 576 165 q 572 144 576 160 q 552 102 567 128 q 516 53 538 76 q 458 10 494 29 q 375 -14 421 -10 l 375 -92 q 481 -115 438 -92 q 525 -185 525 -139 q 512 -224 525 -207 q 470 -250 499 -240 q 415 -266 442 -260 q 342 -274 389 -272 q 269 -277 296 -276 q 190 -278 242 -278 l 154 -278 l 154 -242 l 172 -242 q 227 -242 208 -242 q 278 -240 246 -242 q 330 -234 311 -237 q 369 -225 349 -231 q 399 -209 390 -219 q 408 -185 408 -199 q 303 -128 408 -128 l 303 -12 q 121 92 194 4 q 47 300 47 181 q 134 527 47 432 q 349 622 221 622 q 497 582 433 622 q 561 474 561 542 q 543 426 561 443 q 497 408 525 408 q 451 426 468 408 q 433 472 433 444 q 438 497 433 485 q 457 522 442 508 q 499 536 472 535 q 350 588 449 588 q 221 521 279 588 q 163 303 163 454 q 182 165 163 224 q 233 77 201 107 q 297 33 265 47 q 358 19 328 19 q 540 165 494 19 q 558 179 544 179 q 576 165 576 179 z "},"è":{"ha":617,"x_min":39,"x_max":576,"o":"m 576 165 q 563 126 576 153 q 525 66 550 99 q 451 9 500 33 q 344 -15 403 -15 q 131 77 222 -15 q 39 306 39 169 q 123 529 39 436 q 328 622 207 622 q 513 543 450 622 q 576 350 576 464 q 571 325 576 329 q 542 321 565 321 l 154 321 q 196 113 154 179 q 353 19 254 19 q 383 22 367 19 q 432 37 399 25 q 494 81 465 49 q 540 163 524 113 q 558 182 544 182 q 576 165 576 182 m 485 350 q 480 412 485 379 q 460 490 475 444 q 412 563 446 535 q 328 592 378 592 q 281 582 306 592 q 228 549 257 572 q 178 474 199 526 q 156 350 158 422 l 485 350 m 394 733 l 371 708 l 160 878 q 136 919 136 896 q 151 954 136 939 q 186 969 167 969 q 228 946 213 969 l 394 733 z "},"é":{"ha":617,"x_min":39,"x_max":576,"o":"m 576 165 q 563 126 576 153 q 525 66 550 99 q 451 9 500 33 q 344 -15 403 -15 q 131 77 222 -15 q 39 306 39 169 q 123 529 39 436 q 328 622 207 622 q 513 543 450 622 q 576 350 576 464 q 571 325 576 329 q 542 321 565 321 l 154 321 q 196 113 154 179 q 353 19 254 19 q 383 22 367 19 q 432 37 399 25 q 494 81 465 49 q 540 163 524 113 q 558 182 544 182 q 576 165 576 182 m 485 350 q 480 412 485 379 q 460 490 475 444 q 412 563 446 535 q 328 592 378 592 q 281 582 306 592 q 228 549 257 572 q 178 474 199 526 q 156 350 158 422 l 485 350 m 481 919 q 457 878 481 896 l 246 708 l 222 733 l 389 946 q 431 969 404 969 q 465 954 450 969 q 481 919 481 939 z "},"ê":{"ha":617,"x_min":39,"x_max":576,"o":"m 576 165 q 563 126 576 153 q 525 66 550 99 q 451 9 500 33 q 344 -15 403 -15 q 131 77 222 -15 q 39 306 39 169 q 123 529 39 436 q 328 622 207 622 q 513 543 450 622 q 576 350 576 464 q 571 325 576 329 q 542 321 565 321 l 154 321 q 196 113 154 179 q 353 19 254 19 q 383 22 367 19 q 432 37 399 25 q 494 81 465 49 q 540 163 524 113 q 558 182 544 182 q 576 165 576 182 m 485 350 q 480 412 485 379 q 460 490 475 444 q 412 563 446 535 q 328 592 378 592 q 281 582 306 592 q 228 549 257 572 q 178 474 199 526 q 156 350 158 422 l 485 350 m 519 736 l 501 717 l 308 867 l 115 717 l 97 736 l 308 961 l 519 736 z "},"ë":{"ha":617,"x_min":39,"x_max":576,"o":"m 576 165 q 563 126 576 153 q 525 66 550 99 q 451 9 500 33 q 344 -15 403 -15 q 131 77 222 -15 q 39 306 39 169 q 123 529 39 436 q 328 622 207 622 q 513 543 450 622 q 576 350 576 464 q 571 325 576 329 q 542 321 565 321 l 154 321 q 196 113 154 179 q 353 19 254 19 q 383 22 367 19 q 432 37 399 25 q 494 81 465 49 q 540 163 524 113 q 558 182 544 182 q 576 165 576 182 m 485 350 q 480 412 485 379 q 460 490 475 444 q 412 563 446 535 q 328 592 378 592 q 281 582 306 592 q 228 549 257 572 q 178 474 199 526 q 156 350 158 422 l 485 350 m 253 840 q 234 794 253 814 q 185 774 215 774 q 138 794 157 774 q 118 840 118 814 q 137 885 118 865 q 186 906 156 906 q 233 885 214 906 q 253 840 253 865 m 500 840 q 481 794 500 814 q 432 774 463 774 q 385 794 404 774 q 365 840 365 814 q 384 885 365 865 q 433 906 403 906 q 481 885 461 906 q 500 840 500 865 z "},"ì":{"ha":386,"x_min":21,"x_max":343,"o":"m 343 0 q 199 4 201 4 l 46 0 l 46 43 q 137 52 119 43 q 154 106 154 61 l 154 479 q 137 543 154 531 q 51 556 119 556 l 51 599 l 246 614 l 246 104 q 260 53 246 63 q 343 43 275 43 l 343 0 m 279 733 l 256 708 l 44 878 q 21 919 21 896 q 37 954 21 939 q 71 969 53 969 q 113 946 97 969 l 279 733 z "},"í":{"ha":386,"x_min":46,"x_max":365,"o":"m 343 0 q 199 4 201 4 l 46 0 l 46 43 q 137 52 119 43 q 154 106 154 61 l 154 479 q 137 543 154 531 q 51 556 119 556 l 51 599 l 246 614 l 246 104 q 260 53 246 63 q 343 43 275 43 l 343 0 m 365 919 q 342 878 365 896 l 131 708 l 107 733 l 274 946 q 315 969 289 969 q 349 954 333 969 q 365 919 365 939 z "},"î":{"ha":386,"x_min":-18,"x_max":404,"o":"m 343 0 q 199 4 201 4 l 46 0 l 46 43 q 137 52 119 43 q 154 106 154 61 l 154 479 q 137 543 154 531 q 51 556 119 556 l 51 599 l 246 614 l 246 104 q 260 53 246 63 q 343 43 275 43 l 343 0 m 404 736 l 386 717 l 193 867 l 0 717 l -18 736 l 193 961 l 404 736 z "},"ï":{"ha":386,"x_min":3,"x_max":385,"o":"m 343 0 q 199 4 201 4 l 46 0 l 46 43 q 137 52 119 43 q 154 106 154 61 l 154 479 q 137 543 154 531 q 51 556 119 556 l 51 599 l 246 614 l 246 104 q 260 53 246 63 q 343 43 275 43 l 343 0 m 138 840 q 119 794 138 814 q 69 774 100 774 q 22 794 42 774 q 3 840 3 814 q 22 885 3 865 q 71 906 40 906 q 118 885 99 906 q 138 840 138 865 m 385 840 q 366 794 385 814 q 317 774 347 774 q 269 794 289 774 q 250 840 250 814 q 269 885 250 865 q 318 906 288 906 q 365 885 346 906 q 385 840 385 865 z "},"ð":{"ha":694,"x_min":39,"x_max":654,"o":"m 654 331 q 651 250 654 281 q 626 166 649 219 q 558 69 603 113 q 347 -15 471 -15 q 129 76 219 -15 q 39 296 39 167 q 131 526 39 432 q 343 621 222 621 q 511 519 443 621 q 304 826 460 704 l 185 757 l 164 794 l 265 853 q 100 929 188 904 l 111 965 q 324 886 225 939 l 450 960 l 472 922 l 367 861 q 574 649 497 778 q 654 331 654 510 m 538 297 q 481 506 538 422 q 346 590 425 590 q 201 510 257 590 q 156 308 156 442 q 194 113 156 178 q 347 19 250 19 q 378 22 361 19 q 425 41 394 25 q 478 83 456 57 q 519 166 501 110 q 538 297 538 222 z "},"ñ":{"ha":772,"x_min":44,"x_max":743,"o":"m 743 0 l 588 4 l 431 0 l 431 43 q 522 52 504 43 q 539 106 539 61 l 539 429 q 517 542 539 500 q 436 583 496 583 q 306 523 364 583 q 249 361 249 463 l 249 106 q 266 52 249 61 q 357 43 283 43 l 357 0 l 201 4 l 44 0 l 44 43 q 135 52 118 43 q 153 106 153 61 l 153 478 q 135 542 153 529 q 44 556 117 556 l 44 599 l 240 614 l 240 468 q 446 614 306 614 q 592 563 550 614 q 628 489 622 528 q 635 350 635 450 l 635 85 q 658 49 636 56 q 743 43 681 43 l 743 0 m 618 883 q 557 818 574 835 q 517 788 540 801 q 468 775 493 775 q 382 807 436 775 q 292 842 322 842 q 235 825 264 842 q 192 792 207 808 l 178 775 l 156 796 q 217 861 200 844 q 257 891 233 878 q 306 904 281 904 q 392 872 338 904 q 482 838 450 838 q 538 854 510 838 q 581 888 567 871 l 596 904 l 618 883 z "},"ò":{"ha":694,"x_min":39,"x_max":654,"o":"m 654 297 q 563 76 654 167 q 346 -15 472 -15 q 131 75 222 -15 q 39 297 39 165 q 128 526 39 429 q 347 622 218 622 q 564 526 474 622 q 654 297 654 431 m 539 308 q 503 501 539 442 q 346 592 449 592 q 258 568 301 592 q 188 499 214 544 q 154 308 154 438 q 189 113 154 174 q 347 19 243 19 q 442 47 399 19 q 508 122 485 75 q 539 308 539 183 m 433 733 l 410 708 l 199 878 q 175 919 175 896 q 190 954 175 939 q 225 969 206 969 q 267 946 251 969 l 433 733 z "},"ó":{"ha":694,"x_min":39,"x_max":654,"o":"m 654 297 q 563 76 654 167 q 346 -15 472 -15 q 131 75 222 -15 q 39 297 39 165 q 128 526 39 429 q 347 622 218 622 q 564 526 474 622 q 654 297 654 431 m 539 308 q 503 501 539 442 q 346 592 449 592 q 258 568 301 592 q 188 499 214 544 q 154 308 154 438 q 189 113 154 174 q 347 19 243 19 q 442 47 399 19 q 508 122 485 75 q 539 308 539 183 m 519 919 q 496 878 519 896 l 285 708 l 261 733 l 428 946 q 469 969 443 969 q 504 954 489 969 q 519 919 519 939 z "},"ô":{"ha":694,"x_min":39,"x_max":654,"o":"m 654 297 q 563 76 654 167 q 346 -15 472 -15 q 131 75 222 -15 q 39 297 39 165 q 128 526 39 429 q 347 622 218 622 q 564 526 474 622 q 654 297 654 431 m 539 308 q 503 501 539 442 q 346 592 449 592 q 258 568 301 592 q 188 499 214 544 q 154 308 154 438 q 189 113 154 174 q 347 19 243 19 q 442 47 399 19 q 508 122 485 75 q 539 308 539 183 m 558 736 l 540 717 l 347 867 l 154 717 l 136 736 l 347 961 l 558 736 z "},"õ":{"ha":694,"x_min":39,"x_max":654,"o":"m 654 297 q 563 76 654 167 q 346 -15 472 -15 q 131 75 222 -15 q 39 297 39 165 q 128 526 39 429 q 347 622 218 622 q 564 526 474 622 q 654 297 654 431 m 539 308 q 503 501 539 442 q 346 592 449 592 q 258 568 301 592 q 188 499 214 544 q 154 308 154 438 q 189 113 154 174 q 347 19 243 19 q 442 47 399 19 q 508 122 485 75 q 539 308 539 183 m 579 883 q 518 818 535 835 q 478 788 501 801 q 429 775 454 775 q 343 807 397 775 q 253 842 283 842 q 197 825 225 842 q 153 792 168 808 l 139 775 l 117 796 q 178 861 161 844 q 218 891 194 878 q 267 904 242 904 q 353 872 299 904 q 443 838 411 838 q 499 854 471 838 q 542 888 528 871 l 557 904 l 579 883 z "},"ö":{"ha":694,"x_min":39,"x_max":654,"o":"m 654 297 q 563 76 654 167 q 346 -15 472 -15 q 131 75 222 -15 q 39 297 39 165 q 128 526 39 429 q 347 622 218 622 q 564 526 474 622 q 654 297 654 431 m 539 308 q 503 501 539 442 q 346 592 449 592 q 258 568 301 592 q 188 499 214 544 q 154 308 154 438 q 189 113 154 174 q 347 19 243 19 q 442 47 399 19 q 508 122 485 75 q 539 308 539 183 m 292 840 q 273 794 292 814 q 224 774 254 774 q 176 794 196 774 q 157 840 157 814 q 176 885 157 865 q 225 906 194 906 q 272 885 253 906 q 292 840 292 865 m 539 840 q 520 794 539 814 q 471 774 501 774 q 424 794 443 774 q 404 840 404 814 q 423 885 404 865 q 472 906 442 906 q 519 885 500 906 q 539 840 539 865 z "},"÷":{"ha":1081,"x_min":78,"x_max":1003,"o":"m 994 367 q 999 363 994 367 q 1003 347 1003 358 q 994 328 1003 336 q 975 319 986 319 l 106 319 q 86 328 94 319 q 78 347 78 336 q 86 367 78 358 q 106 375 94 375 l 975 375 q 994 367 986 375 m 592 678 q 603 668 592 678 q 614 626 614 657 q 592 574 614 596 q 540 553 571 553 q 488 574 510 553 q 467 626 467 596 q 488 678 467 657 q 540 700 510 700 q 592 678 571 700 m 592 120 q 603 109 592 120 q 614 68 614 99 q 592 16 614 38 q 540 -6 571 -6 q 488 16 510 -6 q 467 68 467 38 q 488 120 467 99 q 540 142 510 142 q 592 120 571 142 z "},"ø":{"ha":694,"x_min":49,"x_max":644,"o":"m 644 296 q 557 76 644 167 q 346 -15 469 -15 q 204 22 271 -15 l 110 -142 l 83 -125 l 93 -111 l 179 39 q 85 148 121 81 q 49 296 49 215 q 136 526 49 431 q 347 622 224 622 q 492 581 428 622 l 583 742 l 610 725 l 517 564 q 605 458 565 528 q 644 296 644 388 m 469 544 q 346 592 417 592 q 185 496 240 592 q 144 297 144 429 q 203 82 144 149 l 469 544 m 549 297 q 492 519 549 453 l 226 58 q 347 15 276 15 q 436 38 392 15 q 508 104 481 60 q 549 297 549 168 z "},"ù":{"ha":772,"x_min":44,"x_max":743,"o":"m 743 0 l 543 -15 l 543 110 q 364 -15 485 -15 q 261 0 303 -15 q 199 35 219 15 q 167 92 178 54 q 154 152 156 129 q 153 219 153 175 l 153 428 q 139 539 153 522 q 44 556 125 556 l 44 599 l 249 614 l 249 153 q 251 100 249 119 q 265 58 254 81 q 303 26 276 36 q 371 15 329 15 q 492 77 446 15 q 539 231 539 139 l 539 478 q 521 542 539 529 q 431 556 503 556 l 431 599 l 635 614 l 635 121 q 653 56 635 69 q 743 43 671 43 l 743 0 m 472 733 l 449 708 l 238 878 q 214 919 214 896 q 229 954 214 939 q 264 969 244 969 q 306 946 290 969 l 472 733 z "},"ú":{"ha":772,"x_min":44,"x_max":743,"o":"m 743 0 l 543 -15 l 543 110 q 364 -15 485 -15 q 261 0 303 -15 q 199 35 219 15 q 167 92 178 54 q 154 152 156 129 q 153 219 153 175 l 153 428 q 139 539 153 522 q 44 556 125 556 l 44 599 l 249 614 l 249 153 q 251 100 249 119 q 265 58 254 81 q 303 26 276 36 q 371 15 329 15 q 492 77 446 15 q 539 231 539 139 l 539 478 q 521 542 539 529 q 431 556 503 556 l 431 599 l 635 614 l 635 121 q 653 56 635 69 q 743 43 671 43 l 743 0 m 558 919 q 535 878 558 896 l 324 708 l 300 733 l 467 946 q 508 969 482 969 q 543 954 528 969 q 558 919 558 939 z "},"û":{"ha":772,"x_min":44,"x_max":743,"o":"m 743 0 l 543 -15 l 543 110 q 364 -15 485 -15 q 261 0 303 -15 q 199 35 219 15 q 167 92 178 54 q 154 152 156 129 q 153 219 153 175 l 153 428 q 139 539 153 522 q 44 556 125 556 l 44 599 l 249 614 l 249 153 q 251 100 249 119 q 265 58 254 81 q 303 26 276 36 q 371 15 329 15 q 492 77 446 15 q 539 231 539 139 l 539 478 q 521 542 539 529 q 431 556 503 556 l 431 599 l 635 614 l 635 121 q 653 56 635 69 q 743 43 671 43 l 743 0 m 597 736 l 579 717 l 386 867 l 193 717 l 175 736 l 386 961 l 597 736 z "},"ü":{"ha":772,"x_min":44,"x_max":743,"o":"m 743 0 l 543 -15 l 543 110 q 364 -15 485 -15 q 261 0 303 -15 q 199 35 219 15 q 167 92 178 54 q 154 152 156 129 q 153 219 153 175 l 153 428 q 139 539 153 522 q 44 556 125 556 l 44 599 l 249 614 l 249 153 q 251 100 249 119 q 265 58 254 81 q 303 26 276 36 q 371 15 329 15 q 492 77 446 15 q 539 231 539 139 l 539 478 q 521 542 539 529 q 431 556 503 556 l 431 599 l 635 614 l 635 121 q 653 56 635 69 q 743 43 671 43 l 743 0 m 331 840 q 312 794 331 814 q 263 774 293 774 q 215 794 235 774 q 196 840 196 814 q 215 885 196 865 q 264 906 233 906 q 311 885 292 906 q 331 840 331 865 m 578 840 q 559 794 578 814 q 510 774 540 774 q 463 794 482 774 q 443 840 443 814 q 462 885 443 865 q 511 906 481 906 q 558 885 539 906 q 578 840 578 865 z "},"ý":{"ha":733,"x_min":26,"x_max":706,"o":"m 706 556 q 576 467 613 556 l 332 -126 q 154 -285 265 -285 q 64 -252 101 -285 q 26 -172 26 -219 q 44 -128 26 -143 q 85 -112 61 -112 q 126 -128 110 -112 q 143 -171 143 -144 q 89 -229 143 -222 q 154 -254 115 -254 q 229 -224 196 -254 q 277 -164 263 -193 q 313 -82 292 -135 l 347 0 l 139 507 q 104 548 125 540 q 26 556 83 556 l 26 599 q 161 594 89 594 l 313 599 l 313 556 q 235 519 235 556 q 243 494 235 515 l 397 121 l 538 463 q 546 496 546 482 q 481 556 546 553 l 481 599 l 601 594 q 706 599 658 594 l 706 556 m 539 919 q 515 878 539 896 l 304 708 l 281 733 l 447 946 q 489 969 463 969 q 524 954 508 969 q 539 919 539 939 z "},"þ":{"ha":772,"x_min":39,"x_max":724,"o":"m 724 300 q 632 76 724 168 q 414 -15 540 -15 q 298 20 344 -15 q 243 82 251 56 l 243 69 l 243 -164 q 260 -217 243 -208 q 351 -226 278 -226 l 351 -269 l 194 -265 l 39 -269 l 39 -226 q 130 -217 113 -226 q 147 -164 147 -208 l 147 828 q 129 892 147 879 q 39 906 111 906 l 39 949 l 239 964 l 239 522 q 433 614 322 614 q 638 522 551 614 q 724 300 724 431 m 608 300 q 553 498 608 417 q 422 579 499 579 q 321 550 368 579 q 243 468 274 521 l 243 158 q 246 130 243 138 q 263 100 249 122 q 408 15 318 15 q 548 97 488 15 q 608 300 608 178 z "},"ÿ":{"ha":733,"x_min":26,"x_max":706,"o":"m 706 556 q 576 467 613 556 l 332 -126 q 154 -285 265 -285 q 64 -252 101 -285 q 26 -172 26 -219 q 44 -128 26 -143 q 85 -112 61 -112 q 126 -128 110 -112 q 143 -171 143 -144 q 89 -229 143 -222 q 154 -254 115 -254 q 229 -224 196 -254 q 277 -164 263 -193 q 313 -82 292 -135 l 347 0 l 139 507 q 104 548 125 540 q 26 556 83 556 l 26 599 q 161 594 89 594 l 313 599 l 313 556 q 235 519 235 556 q 243 494 235 515 l 397 121 l 538 463 q 546 496 546 482 q 481 556 546 553 l 481 599 l 601 594 q 706 599 658 594 l 706 556 m 311 840 q 292 794 311 814 q 243 774 274 774 q 196 794 215 774 q 176 840 176 814 q 195 885 176 865 q 244 906 214 906 q 292 885 272 906 q 311 840 311 865 m 558 840 q 540 794 558 814 q 490 774 521 774 q 443 794 463 774 q 424 840 424 814 q 442 885 424 865 q 492 906 461 906 q 539 885 519 906 q 558 840 558 865 z "},"Ā":{"ha":1042,"x_min":44,"x_max":996,"o":"m 996 0 l 814 4 q 614 0 664 4 l 614 43 q 729 85 729 43 q 725 104 729 88 l 651 317 l 308 317 l 244 135 q 242 114 242 129 q 269 64 242 85 q 346 43 296 43 l 346 0 l 186 4 l 44 0 l 44 43 q 200 136 168 46 l 488 967 q 499 989 493 983 q 521 994 506 994 q 534 993 529 994 q 542 987 539 992 q 547 979 546 982 q 553 967 549 976 l 853 99 q 886 53 864 64 q 971 43 908 43 l 996 43 l 996 0 m 636 360 l 479 811 l 324 360 l 636 360 m 772 1050 l 271 1050 l 271 1093 l 772 1093 l 772 1050 z "},"ā":{"ha":694,"x_min":44,"x_max":671,"o":"m 671 124 q 632 21 671 50 q 557 -8 593 -8 q 482 26 511 -8 q 449 106 453 60 q 380 19 428 53 q 267 -15 332 -15 q 169 -3 217 -15 q 83 44 122 10 q 44 132 44 79 q 183 313 44 250 q 439 363 267 353 l 439 414 q 394 546 439 500 q 292 592 349 592 q 142 528 190 592 q 198 506 183 526 q 213 464 213 485 q 195 418 213 436 q 149 400 178 400 q 103 417 121 400 q 85 465 85 435 q 146 578 85 533 q 294 622 207 622 q 485 546 408 622 q 520 492 508 522 q 533 441 532 461 q 535 382 535 421 l 535 104 q 538 83 535 96 q 553 52 540 69 q 586 35 565 35 q 636 124 636 35 l 636 201 l 671 201 l 671 124 m 439 194 l 439 333 q 218 267 285 328 q 151 133 151 206 q 188 49 151 82 q 276 15 225 15 q 387 60 335 15 q 439 194 439 106 m 599 818 l 97 818 l 97 861 l 599 861 l 599 818 z "},"Ă":{"ha":1042,"x_min":44,"x_max":996,"o":"m 996 0 l 814 4 q 614 0 664 4 l 614 43 q 729 85 729 43 q 725 104 729 88 l 651 317 l 308 317 l 244 135 q 242 114 242 129 q 269 64 242 85 q 346 43 296 43 l 346 0 l 186 4 l 44 0 l 44 43 q 200 136 168 46 l 488 967 q 499 989 493 983 q 521 994 506 994 q 534 993 529 994 q 542 987 539 992 q 547 979 546 982 q 553 967 549 976 l 853 99 q 886 53 864 64 q 971 43 908 43 l 996 43 l 996 0 m 636 360 l 479 811 l 324 360 l 636 360 m 729 1275 q 667 1103 728 1169 q 521 1036 606 1036 q 377 1101 439 1036 q 314 1275 315 1167 l 344 1275 q 399 1140 346 1190 q 522 1089 453 1089 q 643 1140 589 1089 q 699 1275 697 1190 l 729 1275 z "},"ă":{"ha":694,"x_min":44,"x_max":671,"o":"m 671 124 q 632 21 671 50 q 557 -8 593 -8 q 482 26 511 -8 q 449 106 453 60 q 380 19 428 53 q 267 -15 332 -15 q 169 -3 217 -15 q 83 44 122 10 q 44 132 44 79 q 183 313 44 250 q 439 363 267 353 l 439 414 q 394 546 439 500 q 292 592 349 592 q 142 528 190 592 q 198 506 183 526 q 213 464 213 485 q 195 418 213 436 q 149 400 178 400 q 103 417 121 400 q 85 465 85 435 q 146 578 85 533 q 294 622 207 622 q 485 546 408 622 q 520 492 508 522 q 533 441 532 461 q 535 382 535 421 l 535 104 q 538 83 535 96 q 553 52 540 69 q 586 35 565 35 q 636 124 636 35 l 636 201 l 671 201 l 671 124 m 439 194 l 439 333 q 218 267 285 328 q 151 133 151 206 q 188 49 151 82 q 276 15 225 15 q 387 60 335 15 q 439 194 439 106 m 556 958 q 493 786 554 853 q 347 719 432 719 q 203 785 265 719 q 140 958 142 850 l 171 958 q 226 823 172 874 q 349 772 279 772 q 469 823 415 772 q 525 958 524 874 l 556 958 z "},"Ą":{"ha":1042,"x_min":44,"x_max":996,"o":"m 996 0 q 835 6 890 6 q 735 -132 735 -62 q 774 -202 735 -176 q 856 -228 813 -228 q 963 -150 926 -228 q 978 -143 968 -139 q 986 -160 989 -147 q 922 -256 969 -218 q 822 -293 875 -293 q 713 -256 757 -293 q 668 -168 668 -218 q 781 4 668 -74 q 614 0 674 4 l 614 43 q 729 85 729 43 q 725 104 729 88 l 651 317 l 308 317 l 244 135 q 242 114 242 129 q 269 64 242 85 q 346 43 296 43 l 346 0 l 186 4 l 44 0 l 44 43 q 200 136 168 46 l 488 967 q 499 989 493 983 q 521 994 506 994 q 534 993 529 994 q 542 987 539 992 q 547 979 546 982 q 553 967 549 976 l 853 99 q 886 53 864 64 q 971 43 908 43 l 996 43 l 996 0 m 636 360 l 479 811 l 324 360 l 636 360 z "},"ą":{"ha":694,"x_min":44,"x_max":671,"o":"m 671 124 q 632 21 671 50 q 557 -8 593 -8 q 517 0 533 -8 q 415 -132 415 -69 q 454 -202 415 -176 q 536 -228 493 -228 q 643 -150 607 -228 q 659 -143 649 -139 q 667 -160 669 -147 q 603 -256 650 -218 q 503 -293 556 -293 q 393 -256 438 -293 q 349 -168 349 -218 q 390 -66 349 -118 q 488 21 431 -14 q 449 106 453 56 q 380 19 428 53 q 267 -15 332 -15 q 169 -3 217 -15 q 83 44 122 10 q 44 132 44 79 q 183 313 44 250 q 439 363 267 353 l 439 414 q 394 546 439 500 q 292 592 349 592 q 142 528 190 592 q 198 506 183 526 q 213 464 213 485 q 195 418 213 436 q 149 400 178 400 q 103 417 121 400 q 85 465 85 435 q 146 578 85 533 q 294 622 207 622 q 485 546 408 622 q 520 492 508 522 q 533 441 532 461 q 535 382 535 421 l 535 104 q 538 83 535 96 q 553 52 540 69 q 586 35 565 35 q 636 124 636 35 l 636 201 l 671 201 l 671 124 m 439 194 l 439 333 q 218 267 285 328 q 151 133 151 206 q 188 49 151 82 q 276 15 225 15 q 387 60 335 15 q 439 194 439 106 z "},"Ć":{"ha":1003,"x_min":78,"x_max":924,"o":"m 924 324 q 822 81 924 192 q 561 -31 721 -31 q 221 116 364 -31 q 78 475 78 263 q 221 832 78 685 q 561 979 364 979 q 676 957 622 979 q 756 915 731 935 q 817 860 781 896 l 886 963 q 908 979 897 979 q 922 973 919 979 q 924 946 924 967 l 924 617 q 921 589 924 594 q 901 583 918 583 q 885 588 888 583 q 879 607 882 592 q 775 847 858 757 q 576 936 692 936 q 506 928 543 936 q 416 892 469 921 q 322 817 363 864 q 251 681 281 769 q 221 474 221 592 q 251 267 221 357 q 322 131 281 178 q 416 56 363 85 q 507 20 469 28 q 578 13 544 13 q 789 97 697 13 q 889 325 881 182 q 890 335 890 332 q 892 341 890 338 q 897 346 893 344 q 906 347 900 347 q 924 324 924 347 m 742 1204 q 711 1167 738 1179 l 475 1036 l 456 1065 l 657 1246 q 693 1263 674 1263 q 731 1244 717 1263 q 742 1204 746 1226 z "},"ć":{"ha":617,"x_min":47,"x_max":576,"o":"m 576 165 q 571 141 576 158 q 549 96 565 124 q 508 44 532 68 q 441 2 483 19 q 346 -15 399 -15 q 135 76 224 -15 q 47 300 47 168 q 134 527 47 432 q 349 622 221 622 q 497 582 433 622 q 561 474 561 542 q 543 426 561 443 q 497 408 525 408 q 451 426 468 408 q 433 472 433 444 q 438 497 433 485 q 457 522 442 508 q 499 536 472 535 q 350 588 449 588 q 221 521 279 588 q 163 303 163 454 q 182 165 163 224 q 233 77 201 107 q 297 33 265 47 q 358 19 328 19 q 540 165 494 19 q 558 179 544 179 q 576 165 576 179 m 511 919 q 488 878 511 896 l 276 708 l 253 733 l 419 946 q 461 969 435 969 q 496 954 481 969 q 511 919 511 939 z "},"Č":{"ha":1003,"x_min":78,"x_max":924,"o":"m 924 324 q 822 81 924 192 q 561 -31 721 -31 q 221 116 364 -31 q 78 475 78 263 q 221 832 78 685 q 561 979 364 979 q 676 957 622 979 q 756 915 731 935 q 817 860 781 896 l 886 963 q 908 979 897 979 q 922 973 919 979 q 924 946 924 967 l 924 617 q 921 589 924 594 q 901 583 918 583 q 885 588 888 583 q 879 607 882 592 q 775 847 858 757 q 576 936 692 936 q 506 928 543 936 q 416 892 469 921 q 322 817 363 864 q 251 681 281 769 q 221 474 221 592 q 251 267 221 357 q 322 131 281 178 q 416 56 363 85 q 507 20 469 28 q 578 13 544 13 q 789 97 697 13 q 889 325 881 182 q 890 335 890 332 q 892 341 890 338 q 897 346 893 344 q 906 347 900 347 q 924 324 924 347 m 761 1185 l 551 1022 l 342 1185 l 358 1207 l 553 1115 l 747 1207 l 761 1185 z "},"č":{"ha":617,"x_min":47,"x_max":576,"o":"m 576 165 q 571 141 576 158 q 549 96 565 124 q 508 44 532 68 q 441 2 483 19 q 346 -15 399 -15 q 135 76 224 -15 q 47 300 47 168 q 134 527 47 432 q 349 622 221 622 q 497 582 433 622 q 561 474 561 542 q 543 426 561 443 q 497 408 525 408 q 451 426 468 408 q 433 472 433 444 q 438 497 433 485 q 457 522 442 508 q 499 536 472 535 q 350 588 449 588 q 221 521 279 588 q 163 303 163 454 q 182 165 163 224 q 233 77 201 107 q 297 33 265 47 q 358 19 328 19 q 540 165 494 19 q 558 179 544 179 q 576 165 576 179 m 550 942 l 339 717 l 128 942 l 146 961 l 339 811 l 532 961 l 550 942 z "},"Ď":{"ha":1061,"x_min":49,"x_max":982,"o":"m 982 467 q 858 136 982 272 q 557 0 733 0 l 49 0 l 49 43 l 82 43 q 174 56 157 43 q 192 108 192 68 l 192 840 q 174 893 192 881 q 82 906 157 906 l 49 906 l 49 949 l 557 949 q 858 807 735 949 q 982 467 982 665 m 843 467 q 771 776 843 678 q 518 906 678 906 l 379 906 q 322 896 332 906 q 311 850 311 886 l 311 99 q 322 53 311 63 q 379 43 332 43 l 519 43 q 673 81 611 43 q 767 161 735 118 q 843 467 843 265 m 658 1185 l 449 1022 l 239 1185 l 256 1207 l 450 1115 l 644 1207 l 658 1185 z "},"ď":{"ha":772,"x_min":47,"x_max":797,"o":"m 732 0 l 528 -15 l 528 76 q 342 -15 456 -15 q 135 76 222 -15 q 47 299 47 168 q 140 522 47 431 q 357 614 232 614 q 532 528 463 614 l 532 828 q 514 892 532 879 q 424 906 496 906 l 424 949 l 624 964 l 624 121 q 642 56 624 69 q 732 43 660 43 l 732 0 m 528 164 l 528 449 q 513 500 528 476 q 363 583 456 583 q 206 494 265 583 q 163 297 163 428 q 203 104 163 168 q 349 15 258 15 q 513 113 451 15 q 528 164 528 136 m 797 854 q 776 751 797 800 q 733 677 754 701 q 703 653 711 653 q 692 664 692 653 q 699 675 692 668 q 772 871 774 757 q 731 854 756 854 q 690 870 704 854 q 675 908 675 886 q 690 947 675 931 q 731 964 706 964 q 779 934 761 964 q 797 854 797 904 z "},"Đ":{"ha":1061,"x_min":49,"x_max":982,"o":"m 982 467 q 858 136 982 272 q 557 0 733 0 l 49 0 l 49 43 l 82 43 q 174 56 157 43 q 192 108 192 68 l 192 454 l 49 454 l 49 496 l 192 496 l 192 840 q 174 893 192 881 q 82 906 157 906 l 49 906 l 49 949 l 557 949 q 858 807 735 949 q 982 467 982 665 m 843 467 q 771 776 843 678 q 518 906 678 906 l 379 906 q 322 896 332 906 q 311 850 311 886 l 311 496 l 531 496 l 531 454 l 311 454 l 311 99 q 322 53 311 63 q 379 43 332 43 l 519 43 q 673 81 611 43 q 767 161 735 118 q 843 467 843 265 z "},"Ē":{"ha":946,"x_min":46,"x_max":906,"o":"m 906 358 l 847 0 l 46 0 l 46 43 l 79 43 q 172 56 154 43 q 189 108 189 68 l 189 836 q 172 889 189 876 q 79 901 154 901 l 46 901 l 46 944 l 828 944 l 867 632 l 832 632 q 810 757 822 711 q 767 838 797 803 q 688 888 738 874 q 560 901 639 901 l 381 901 q 323 892 333 901 q 313 846 313 882 l 313 513 l 438 513 q 560 546 533 513 q 588 675 588 579 l 622 675 l 622 307 l 588 307 q 560 435 588 401 q 438 469 533 469 l 313 469 l 313 99 q 323 53 313 63 q 381 43 333 43 l 565 43 q 669 51 625 43 q 743 78 713 58 q 794 119 774 97 q 830 182 815 142 q 853 260 844 222 q 871 358 861 297 l 906 358 m 724 1050 l 222 1050 l 222 1093 l 724 1093 l 724 1050 z "},"ē":{"ha":617,"x_min":39,"x_max":576,"o":"m 576 165 q 563 126 576 153 q 525 66 550 99 q 451 9 500 33 q 344 -15 403 -15 q 131 77 222 -15 q 39 306 39 169 q 123 529 39 436 q 328 622 207 622 q 513 543 450 622 q 576 350 576 464 q 571 325 576 329 q 542 321 565 321 l 154 321 q 196 113 154 179 q 353 19 254 19 q 383 22 367 19 q 432 37 399 25 q 494 81 465 49 q 540 163 524 113 q 558 182 544 182 q 576 165 576 182 m 485 350 q 480 412 485 379 q 460 490 475 444 q 412 563 446 535 q 328 592 378 592 q 281 582 306 592 q 228 549 257 572 q 178 474 199 526 q 156 350 158 422 l 485 350 m 560 818 l 58 818 l 58 861 l 560 861 l 560 818 z "},"Ė":{"ha":946,"x_min":46,"x_max":906,"o":"m 906 358 l 847 0 l 46 0 l 46 43 l 79 43 q 172 56 154 43 q 189 108 189 68 l 189 836 q 172 889 189 876 q 79 901 154 901 l 46 901 l 46 944 l 828 944 l 867 632 l 832 632 q 810 757 822 711 q 767 838 797 803 q 688 888 738 874 q 560 901 639 901 l 381 901 q 323 892 333 901 q 313 846 313 882 l 313 513 l 438 513 q 560 546 533 513 q 588 675 588 579 l 622 675 l 622 307 l 588 307 q 560 435 588 401 q 438 469 533 469 l 313 469 l 313 99 q 323 53 313 63 q 381 43 333 43 l 565 43 q 669 51 625 43 q 743 78 713 58 q 794 119 774 97 q 830 182 815 142 q 853 260 844 222 q 871 358 861 297 l 906 358 m 546 1126 q 525 1076 546 1099 q 471 1053 504 1053 q 419 1075 440 1053 q 397 1126 397 1097 q 418 1177 397 1154 q 472 1200 439 1200 q 524 1178 503 1200 q 546 1126 546 1156 z "},"ė":{"ha":617,"x_min":39,"x_max":576,"o":"m 576 165 q 563 126 576 153 q 525 66 550 99 q 451 9 500 33 q 344 -15 403 -15 q 131 77 222 -15 q 39 306 39 169 q 123 529 39 436 q 328 622 207 622 q 513 543 450 622 q 576 350 576 464 q 571 325 576 329 q 542 321 565 321 l 154 321 q 196 113 154 179 q 353 19 254 19 q 383 22 367 19 q 432 37 399 25 q 494 81 465 49 q 540 163 524 113 q 558 182 544 182 q 576 165 576 182 m 485 350 q 480 412 485 379 q 460 490 475 444 q 412 563 446 535 q 328 592 378 592 q 281 582 306 592 q 228 549 257 572 q 178 474 199 526 q 156 350 158 422 l 485 350 m 382 839 q 361 788 382 811 q 307 765 340 765 q 255 788 276 765 q 233 839 233 810 q 254 890 233 867 q 308 913 275 913 q 360 890 339 913 q 382 839 382 868 z "},"Ę":{"ha":946,"x_min":46,"x_max":906,"o":"m 906 358 l 847 0 l 688 0 q 596 -132 596 -65 q 635 -202 596 -176 q 717 -228 674 -228 q 824 -150 788 -228 q 840 -143 829 -139 q 847 -160 850 -147 q 783 -256 831 -218 q 683 -293 736 -293 q 574 -256 618 -293 q 529 -168 529 -218 q 636 0 529 -64 l 46 0 l 46 43 l 79 43 q 172 56 154 43 q 189 108 189 68 l 189 836 q 172 889 189 876 q 79 901 154 901 l 46 901 l 46 944 l 828 944 l 867 632 l 832 632 q 810 757 822 711 q 767 838 797 803 q 688 888 738 874 q 560 901 639 901 l 381 901 q 323 892 333 901 q 313 846 313 882 l 313 513 l 438 513 q 560 546 533 513 q 588 675 588 579 l 622 675 l 622 307 l 588 307 q 560 435 588 401 q 438 469 533 469 l 313 469 l 313 99 q 323 53 313 63 q 381 43 333 43 l 565 43 q 669 51 625 43 q 743 78 713 58 q 794 119 774 97 q 830 182 815 142 q 853 260 844 222 q 871 358 861 297 l 906 358 z "},"ę":{"ha":617,"x_min":39,"x_max":576,"o":"m 576 165 q 532 74 576 135 q 410 -7 488 14 q 304 -132 304 -65 q 343 -202 304 -176 q 425 -228 382 -228 q 532 -150 496 -228 q 548 -143 538 -139 q 556 -160 558 -147 q 492 -256 539 -218 q 392 -293 444 -293 q 282 -256 326 -293 q 238 -168 238 -218 q 329 -15 238 -94 q 125 83 211 -8 q 39 306 39 174 q 123 529 39 436 q 328 622 207 622 q 513 543 450 622 q 576 350 576 464 q 571 325 576 329 q 542 321 565 321 l 154 321 q 196 113 154 179 q 353 19 254 19 q 383 22 367 19 q 432 37 399 25 q 494 81 465 49 q 540 163 524 113 q 558 182 544 182 q 576 165 576 182 m 485 350 q 480 412 485 379 q 460 490 475 444 q 412 563 446 535 q 328 592 378 592 q 281 582 306 592 q 228 549 257 572 q 178 474 199 526 q 156 350 158 422 l 485 350 z "},"Ě":{"ha":946,"x_min":46,"x_max":906,"o":"m 906 358 l 847 0 l 46 0 l 46 43 l 79 43 q 172 56 154 43 q 189 108 189 68 l 189 836 q 172 889 189 876 q 79 901 154 901 l 46 901 l 46 944 l 828 944 l 867 632 l 832 632 q 810 757 822 711 q 767 838 797 803 q 688 888 738 874 q 560 901 639 901 l 381 901 q 323 892 333 901 q 313 846 313 882 l 313 513 l 438 513 q 560 546 533 513 q 588 675 588 579 l 622 675 l 622 307 l 588 307 q 560 435 588 401 q 438 469 533 469 l 313 469 l 313 99 q 323 53 313 63 q 381 43 333 43 l 565 43 q 669 51 625 43 q 743 78 713 58 q 794 119 774 97 q 830 182 815 142 q 853 260 844 222 q 871 358 861 297 l 906 358 m 682 1185 l 472 1022 l 263 1185 l 279 1207 l 474 1115 l 668 1207 l 682 1185 z "},"ě":{"ha":617,"x_min":39,"x_max":576,"o":"m 576 165 q 563 126 576 153 q 525 66 550 99 q 451 9 500 33 q 344 -15 403 -15 q 131 77 222 -15 q 39 306 39 169 q 123 529 39 436 q 328 622 207 622 q 513 543 450 622 q 576 350 576 464 q 571 325 576 329 q 542 321 565 321 l 154 321 q 196 113 154 179 q 353 19 254 19 q 383 22 367 19 q 432 37 399 25 q 494 81 465 49 q 540 163 524 113 q 558 182 544 182 q 576 165 576 182 m 485 350 q 480 412 485 379 q 460 490 475 444 q 412 563 446 535 q 328 592 378 592 q 281 582 306 592 q 228 549 257 572 q 178 474 199 526 q 156 350 158 422 l 485 350 m 519 942 l 308 717 l 97 942 l 115 961 l 308 811 l 501 961 l 519 942 z "},"Ğ":{"ha":1090,"x_min":78,"x_max":1021,"o":"m 1021 336 q 940 326 954 336 q 925 275 925 317 l 925 33 q 913 1 925 1 q 869 33 901 1 q 824 88 838 64 q 718 -1 790 29 q 564 -31 646 -31 q 221 117 364 -31 q 78 475 78 264 q 222 833 78 686 q 561 979 365 979 q 651 968 610 979 q 726 935 693 957 q 777 898 760 913 q 818 860 794 883 l 888 963 q 910 979 899 979 q 923 973 921 979 q 925 946 925 967 l 925 617 q 922 589 925 594 q 903 583 919 583 q 886 588 889 583 q 881 607 883 592 q 776 847 860 757 q 578 936 692 936 q 508 928 544 936 q 417 892 471 921 q 322 817 363 864 q 251 682 281 771 q 221 475 221 593 q 251 269 221 358 q 322 133 281 179 q 419 57 364 86 q 513 20 474 28 q 586 13 551 13 q 638 17 610 13 q 707 38 665 22 q 775 90 749 53 q 801 181 801 126 l 801 269 q 781 324 801 311 q 672 336 761 336 l 628 336 l 628 379 q 851 375 678 375 l 1021 379 l 1021 336 m 753 1275 q 690 1103 751 1169 q 544 1036 629 1036 q 401 1101 463 1036 q 338 1275 339 1167 l 368 1275 q 423 1140 369 1190 q 546 1089 476 1089 q 667 1140 613 1089 q 722 1275 721 1190 l 753 1275 z "},"ğ":{"ha":694,"x_min":39,"x_max":674,"o":"m 674 561 q 660 530 674 540 q 633 519 647 519 q 605 531 617 519 q 593 560 593 542 q 615 597 593 589 l 601 599 q 476 544 533 599 q 533 410 533 492 q 468 267 533 328 q 308 207 403 207 q 171 250 231 207 q 147 185 147 222 q 168 123 147 150 q 221 92 189 96 q 325 90 231 90 q 411 89 381 90 q 485 78 442 88 q 564 51 529 69 q 654 -107 654 1 q 563 -236 654 -186 q 346 -286 472 -286 q 128 -235 218 -286 q 39 -110 39 -185 q 73 -26 39 -65 q 167 29 107 13 q 106 153 106 68 q 149 268 106 218 q 83 411 83 322 q 149 553 83 493 q 308 614 214 614 q 456 564 392 614 q 603 629 522 629 q 656 607 639 629 q 674 561 674 585 m 429 411 q 308 582 429 582 q 210 526 247 582 q 188 410 188 489 q 308 239 188 239 q 407 294 369 239 q 429 411 429 332 m 582 -110 q 558 -42 582 -68 q 486 -5 535 -15 q 403 8 438 6 q 307 10 369 10 l 225 10 q 144 -28 178 7 q 111 -110 111 -62 q 178 -210 111 -167 q 347 -254 246 -254 q 515 -211 447 -254 q 582 -110 582 -168 m 507 958 q 444 786 506 853 q 299 719 383 719 q 155 785 217 719 q 92 958 93 850 l 122 958 q 177 823 124 874 q 300 772 231 772 q 421 823 367 772 q 476 958 475 874 l 507 958 z "},"Ģ":{"ha":1090,"x_min":78,"x_max":1021,"o":"m 1021 336 q 940 326 954 336 q 925 275 925 317 l 925 33 q 913 1 925 1 q 869 33 901 1 q 824 88 838 64 q 718 -1 790 29 q 564 -31 646 -31 q 221 117 364 -31 q 78 475 78 264 q 222 833 78 686 q 561 979 365 979 q 651 968 610 979 q 726 935 693 957 q 777 898 760 913 q 818 860 794 883 l 888 963 q 910 979 899 979 q 923 973 921 979 q 925 946 925 967 l 925 617 q 922 589 925 594 q 903 583 919 583 q 886 588 889 583 q 881 607 883 592 q 776 847 860 757 q 578 936 692 936 q 508 928 544 936 q 417 892 471 921 q 322 817 363 864 q 251 682 281 771 q 221 475 221 593 q 251 269 221 358 q 322 133 281 179 q 419 57 364 86 q 513 20 474 28 q 586 13 551 13 q 638 17 610 13 q 707 38 665 22 q 775 90 749 53 q 801 181 801 126 l 801 269 q 781 324 801 311 q 672 336 761 336 l 628 336 l 628 379 q 851 375 678 375 l 1021 379 l 1021 336 m 606 -201 q 584 -305 606 -256 q 541 -378 563 -354 q 511 -403 519 -403 q 500 -392 500 -403 q 507 -381 500 -387 q 581 -185 582 -299 q 539 -201 564 -201 q 498 -185 513 -201 q 483 -147 483 -169 q 499 -108 483 -125 q 539 -92 514 -92 q 588 -122 569 -92 q 606 -201 606 -151 z "},"ģ":{"ha":694,"x_min":39,"x_max":674,"o":"m 345 808 q 352 800 345 808 q 360 769 360 792 q 345 731 360 747 q 304 714 331 714 q 256 744 274 714 q 238 824 238 774 q 259 927 238 878 q 302 1001 281 976 q 332 1025 324 1025 q 343 1014 343 1025 q 336 1003 343 1010 q 263 807 261 921 q 304 824 279 824 q 345 808 331 824 m 674 561 q 660 530 674 540 q 633 519 647 519 q 605 531 617 519 q 593 560 593 542 q 615 597 593 589 l 601 599 q 476 544 533 599 q 533 410 533 492 q 468 267 533 328 q 308 207 403 207 q 171 250 231 207 q 147 185 147 222 q 168 123 147 150 q 221 92 189 96 q 325 90 231 90 q 411 89 381 90 q 485 78 442 88 q 564 51 529 69 q 654 -107 654 1 q 563 -236 654 -186 q 346 -286 472 -286 q 128 -235 218 -286 q 39 -110 39 -185 q 73 -26 39 -65 q 167 29 107 13 q 106 153 106 68 q 149 268 106 218 q 83 411 83 322 q 149 553 83 493 q 308 614 214 614 q 456 564 392 614 q 603 629 522 629 q 656 607 639 629 q 674 561 674 585 m 429 411 q 308 582 429 582 q 210 526 247 582 q 188 410 188 489 q 308 239 188 239 q 407 294 369 239 q 429 411 429 332 m 582 -110 q 558 -42 582 -68 q 486 -5 535 -15 q 403 8 438 6 q 307 10 369 10 l 225 10 q 144 -28 178 7 q 111 -110 111 -62 q 178 -210 111 -167 q 347 -254 246 -254 q 515 -211 447 -254 q 582 -110 582 -168 z "},"Ĩ":{"ha":501,"x_min":21,"x_max":483,"o":"m 463 0 q 250 4 414 4 q 39 0 88 4 l 39 43 l 75 43 q 171 56 153 43 q 189 108 189 68 l 189 840 q 171 893 189 881 q 75 906 153 906 l 39 906 l 39 949 q 251 944 88 944 q 463 949 414 944 l 463 906 l 426 906 q 331 893 349 906 q 313 840 313 881 l 313 108 q 331 56 313 68 q 426 43 349 43 l 463 43 l 463 0 m 483 1131 q 422 1065 439 1082 q 382 1035 406 1049 q 333 1022 358 1022 q 247 1054 301 1022 q 157 1089 189 1089 q 101 1072 129 1089 q 58 1039 72 1056 l 43 1022 l 21 1043 q 82 1108 65 1092 q 122 1138 99 1125 q 171 1151 146 1151 q 257 1119 203 1151 q 347 1085 317 1085 q 403 1101 375 1085 q 447 1135 432 1118 l 461 1151 l 483 1131 z "},"ĩ":{"ha":386,"x_min":-37,"x_max":425,"o":"m 343 0 q 199 4 201 4 l 46 0 l 46 43 q 137 52 119 43 q 154 106 154 61 l 154 479 q 137 543 154 531 q 51 556 119 556 l 51 599 l 246 614 l 246 104 q 260 53 246 63 q 343 43 275 43 l 343 0 m 425 883 q 364 818 381 835 q 324 788 347 801 q 275 775 300 775 q 189 807 243 775 q 99 842 131 842 q 42 825 71 842 q 0 792 14 808 l -15 775 l -37 796 q 24 861 7 844 q 64 891 40 878 q 113 904 88 904 q 199 872 144 904 q 289 838 258 838 q 345 854 317 838 q 389 888 374 871 l 403 904 l 425 883 z "},"Ī":{"ha":501,"x_min":1,"x_max":503,"o":"m 463 0 q 250 4 414 4 q 39 0 88 4 l 39 43 l 75 43 q 171 56 153 43 q 189 108 189 68 l 189 840 q 171 893 189 881 q 75 906 153 906 l 39 906 l 39 949 q 251 944 88 944 q 463 949 414 944 l 463 906 l 426 906 q 331 893 349 906 q 313 840 313 881 l 313 108 q 331 56 313 68 q 426 43 349 43 l 463 43 l 463 0 m 503 1050 l 1 1050 l 1 1093 l 503 1093 l 503 1050 z "},"ī":{"ha":386,"x_min":-57,"x_max":444,"o":"m 343 0 q 199 4 201 4 l 46 0 l 46 43 q 137 52 119 43 q 154 106 154 61 l 154 479 q 137 543 154 531 q 51 556 119 556 l 51 599 l 246 614 l 246 104 q 260 53 246 63 q 343 43 275 43 l 343 0 m 444 818 l -57 818 l -57 861 l 444 861 l 444 818 z "},"Į":{"ha":501,"x_min":39,"x_max":465,"o":"m 463 -160 q 399 -256 446 -218 q 299 -293 351 -293 q 189 -256 233 -293 q 144 -168 144 -218 q 177 -77 144 -124 q 258 4 210 -31 l 250 4 q 39 0 88 4 l 39 43 l 75 43 q 171 56 153 43 q 189 108 189 68 l 189 840 q 171 893 189 881 q 75 906 153 906 l 39 906 l 39 949 q 251 944 88 944 q 463 949 414 944 l 463 906 l 426 906 q 331 893 349 906 q 313 840 313 881 l 313 108 q 331 56 313 68 q 426 43 349 43 l 463 43 l 463 0 q 321 4 414 4 q 243 -57 276 -19 q 211 -132 211 -93 q 250 -202 211 -176 q 332 -228 289 -228 q 439 -150 403 -228 q 455 -143 444 -139 q 463 -160 465 -147 z "},"į":{"ha":386,"x_min":33,"x_max":354,"o":"m 230 908 q 241 898 230 908 q 251 856 251 888 q 230 803 251 824 q 178 782 208 782 q 125 804 146 782 q 104 856 104 826 q 126 906 104 883 q 178 929 147 929 q 230 908 208 929 m 351 -160 q 288 -256 335 -218 q 188 -293 240 -293 q 78 -256 122 -293 q 33 -168 33 -218 q 146 3 33 -81 l 46 0 l 46 43 q 137 52 119 43 q 154 106 154 61 l 154 479 q 137 543 154 531 q 51 556 119 556 l 51 599 l 246 614 l 246 104 q 260 53 246 63 q 343 43 275 43 l 343 0 l 211 4 q 133 -57 167 -19 q 100 -132 100 -94 q 139 -202 100 -176 q 221 -228 178 -228 q 328 -150 292 -228 q 344 -143 333 -139 q 351 -160 354 -147 z "},"İ":{"ha":501,"x_min":39,"x_max":463,"o":"m 463 0 q 250 4 414 4 q 39 0 88 4 l 39 43 l 75 43 q 171 56 153 43 q 189 108 189 68 l 189 840 q 171 893 189 881 q 75 906 153 906 l 39 906 l 39 949 q 251 944 88 944 q 463 949 414 944 l 463 906 l 426 906 q 331 893 349 906 q 313 840 313 881 l 313 108 q 331 56 313 68 q 426 43 349 43 l 463 43 l 463 0 m 325 1126 q 304 1076 325 1099 q 250 1053 283 1053 q 198 1075 219 1053 q 176 1126 176 1097 q 197 1177 176 1154 q 251 1200 218 1200 q 303 1178 282 1200 q 325 1126 325 1156 z "},"ı":{"ha":386,"x_min":46,"x_max":343,"o":"m 343 0 q 199 4 201 4 l 46 0 l 46 43 q 137 52 119 43 q 154 106 154 61 l 154 479 q 137 543 154 531 q 51 556 119 556 l 51 599 l 246 614 l 246 104 q 260 53 246 63 q 343 43 275 43 l 343 0 z "},"Ĳ":{"ha":1165,"x_min":39,"x_max":1097,"o":"m 463 0 q 250 4 414 4 q 39 0 88 4 l 39 43 l 75 43 q 171 56 153 43 q 189 108 189 68 l 189 840 q 171 893 189 881 q 75 906 153 906 l 39 906 l 39 949 q 251 944 88 944 q 463 949 414 944 l 463 906 l 426 906 q 331 893 349 906 q 313 840 313 881 l 313 108 q 331 56 313 68 q 426 43 349 43 l 463 43 l 463 0 m 1097 906 q 1008 897 1026 906 q 990 849 990 889 l 990 232 q 989 171 990 182 q 905 29 976 89 q 731 -31 833 -31 q 573 24 638 -31 q 508 156 508 78 q 533 217 508 197 q 586 236 557 236 q 640 215 617 236 q 664 158 664 194 q 575 81 664 81 q 728 0 625 0 q 828 57 786 0 q 871 206 871 114 l 871 839 q 865 879 871 868 q 831 898 860 890 q 735 906 801 906 l 685 906 l 685 949 q 918 944 738 944 l 1097 949 l 1097 906 z "},"ĳ":{"ha":772,"x_min":46,"x_max":640,"o":"m 253 839 q 232 788 253 811 q 178 765 211 765 q 126 788 147 765 q 104 839 104 810 q 125 890 104 867 q 179 913 146 913 q 231 890 210 913 q 253 839 253 868 m 639 -69 q 583 -224 639 -162 q 449 -285 528 -285 q 338 -255 385 -285 q 292 -174 292 -225 q 309 -128 292 -146 q 356 -110 326 -110 q 402 -128 385 -110 q 419 -174 419 -146 q 405 -215 419 -199 q 371 -236 390 -231 q 446 -254 407 -254 q 499 -235 478 -254 q 531 -185 521 -217 q 544 -128 540 -154 q 547 -72 547 -101 l 547 478 q 527 542 547 529 q 428 556 507 556 l 428 599 l 639 614 l 639 -69 m 343 0 q 199 4 201 4 l 46 0 l 46 43 q 137 52 119 43 q 154 106 154 61 l 154 479 q 137 543 154 531 q 51 556 119 556 l 51 599 l 246 614 l 246 104 q 260 53 246 63 q 343 43 275 43 l 343 0 m 640 839 q 619 788 640 811 q 565 765 599 765 q 513 788 535 765 q 492 839 492 810 q 513 890 492 867 q 567 913 533 913 q 619 890 597 913 q 640 839 640 868 z "},"Ķ":{"ha":1081,"x_min":46,"x_max":1022,"o":"m 1022 0 l 863 4 q 664 0 713 4 l 664 43 q 746 85 746 43 q 725 132 746 100 l 474 504 l 313 351 l 313 108 q 330 56 313 68 q 422 43 347 43 l 456 43 l 456 0 q 250 4 407 4 q 46 0 94 4 l 46 43 l 79 43 q 172 56 154 43 q 189 108 189 68 l 189 840 q 172 893 189 881 q 79 906 154 906 l 46 906 l 46 949 q 251 944 94 944 q 456 949 407 944 l 456 906 l 422 906 q 330 893 347 906 q 313 840 313 881 l 313 399 l 747 814 q 772 860 772 836 q 769 877 772 868 q 749 896 765 886 q 708 906 733 906 l 708 949 q 885 944 756 944 q 1003 949 967 944 l 1003 906 q 806 822 888 904 l 556 582 l 876 110 q 934 55 906 67 q 1022 43 963 43 l 1022 0 m 601 -201 q 580 -305 601 -256 q 537 -378 558 -354 q 507 -403 515 -403 q 496 -392 496 -403 q 503 -381 496 -387 q 576 -185 578 -299 q 535 -201 560 -201 q 494 -185 508 -201 q 479 -147 479 -169 q 494 -108 479 -125 q 535 -92 508 -92 q 583 -122 565 -92 q 601 -201 601 -151 z "},"ķ":{"ha":733,"x_min":39,"x_max":710,"o":"m 710 0 q 589 4 650 4 l 439 0 l 439 43 q 489 75 489 43 q 350 288 489 97 q 324 325 333 313 l 235 249 l 235 106 q 252 52 235 61 q 343 43 269 43 l 343 0 l 190 4 l 39 0 l 39 43 q 130 52 113 43 q 147 106 147 61 l 147 828 q 129 892 147 879 q 39 906 111 906 l 39 949 l 239 964 l 239 297 l 435 467 q 465 521 465 493 q 425 556 465 553 l 425 599 q 581 594 483 594 q 678 599 638 594 l 678 556 q 503 481 590 551 q 437 425 483 465 q 390 381 390 385 q 392 376 390 379 q 396 369 393 372 q 399 365 399 367 l 575 117 q 638 55 611 67 q 710 43 664 43 l 710 0 m 428 -201 q 406 -305 428 -256 q 363 -378 385 -354 q 333 -403 342 -403 q 322 -392 322 -403 q 329 -381 322 -387 q 403 -185 404 -299 q 361 -201 386 -201 q 320 -185 335 -201 q 306 -147 306 -169 q 321 -108 306 -125 q 361 -92 336 -92 q 410 -122 392 -92 q 428 -201 428 -151 z "},"Ĺ":{"ha":868,"x_min":46,"x_max":808,"o":"m 808 358 l 769 0 l 46 0 l 46 43 l 79 43 q 172 56 154 43 q 189 108 189 68 l 189 840 q 172 893 189 881 q 79 906 154 906 l 46 906 l 46 949 q 257 944 94 944 q 490 949 440 944 l 490 906 l 444 906 q 351 897 381 906 q 317 878 322 889 q 313 839 313 867 l 313 99 q 323 53 313 63 q 381 43 333 43 l 494 43 q 616 64 565 43 q 694 111 667 85 q 739 188 721 138 q 763 269 757 238 q 774 358 768 301 l 808 358 m 447 1204 q 417 1167 443 1179 l 181 1036 l 161 1065 l 363 1246 q 399 1263 379 1263 q 437 1244 422 1263 q 447 1204 451 1226 z "},"ĺ":{"ha":386,"x_min":46,"x_max":388,"o":"m 354 0 l 200 4 l 46 0 l 46 43 q 137 52 119 43 q 154 106 154 61 l 154 828 q 136 892 154 879 q 46 906 118 906 l 46 949 l 246 964 l 246 106 q 263 52 246 61 q 354 43 281 43 l 354 0 m 383 1219 q 353 1182 379 1194 l 117 1051 l 97 1081 l 299 1261 q 335 1278 315 1278 q 373 1260 358 1278 q 383 1219 388 1242 z "},"Ļ":{"ha":868,"x_min":46,"x_max":808,"o":"m 808 358 l 769 0 l 46 0 l 46 43 l 79 43 q 172 56 154 43 q 189 108 189 68 l 189 840 q 172 893 189 881 q 79 906 154 906 l 46 906 l 46 949 q 257 944 94 944 q 490 949 440 944 l 490 906 l 444 906 q 351 897 381 906 q 317 878 322 889 q 313 839 313 867 l 313 99 q 323 53 313 63 q 381 43 333 43 l 494 43 q 616 64 565 43 q 694 111 667 85 q 739 188 721 138 q 763 269 757 238 q 774 358 768 301 l 808 358 m 496 -201 q 474 -305 496 -256 q 431 -378 453 -354 q 401 -403 410 -403 q 390 -392 390 -403 q 397 -381 390 -387 q 471 -185 472 -299 q 429 -201 454 -201 q 388 -185 403 -201 q 374 -147 374 -169 q 388 -108 374 -125 q 429 -92 403 -92 q 478 -122 460 -92 q 496 -201 496 -151 z "},"ļ":{"ha":386,"x_min":46,"x_max":354,"o":"m 354 0 l 200 4 l 46 0 l 46 43 q 137 52 119 43 q 154 106 154 61 l 154 828 q 136 892 154 879 q 46 906 118 906 l 46 949 l 246 964 l 246 106 q 263 52 246 61 q 354 43 281 43 l 354 0 m 254 -201 q 233 -305 254 -256 q 190 -378 211 -354 q 160 -403 168 -403 q 149 -392 149 -403 q 156 -381 149 -387 q 229 -185 231 -299 q 188 -201 213 -201 q 147 -185 161 -201 q 132 -147 132 -169 q 147 -108 132 -125 q 188 -92 161 -92 q 236 -122 218 -92 q 254 -201 254 -151 z "},"Ľ":{"ha":868,"x_min":46,"x_max":808,"o":"m 808 358 l 769 0 l 46 0 l 46 43 l 79 43 q 172 56 154 43 q 189 108 189 68 l 189 840 q 172 893 189 881 q 79 906 154 906 l 46 906 l 46 949 q 257 944 94 944 q 490 949 440 944 l 490 906 l 444 906 q 351 897 381 906 q 317 878 322 889 q 313 839 313 867 l 313 99 q 323 53 313 63 q 381 43 333 43 l 494 43 q 616 64 565 43 q 694 111 667 85 q 739 188 721 138 q 763 269 757 238 q 774 358 768 301 l 808 358 m 690 839 q 669 735 690 785 q 626 662 647 686 q 596 638 604 638 q 585 649 585 638 q 592 660 585 653 q 665 856 667 742 q 624 839 649 839 q 583 855 597 839 q 568 893 568 871 q 583 932 568 915 q 624 949 597 949 q 672 919 654 949 q 690 839 690 889 z "},"ľ":{"ha":386,"x_min":46,"x_max":419,"o":"m 354 0 l 200 4 l 46 0 l 46 43 q 137 52 119 43 q 154 106 154 61 l 154 828 q 136 892 154 879 q 46 906 118 906 l 46 949 l 246 964 l 246 106 q 263 52 246 61 q 354 43 281 43 l 354 0 m 419 854 q 398 751 419 800 q 355 677 376 701 q 325 653 333 653 q 314 664 314 653 q 321 675 314 668 q 394 871 396 757 q 353 854 378 854 q 312 870 326 854 q 297 908 297 886 q 313 947 297 931 q 353 964 328 964 q 401 934 383 964 q 419 854 419 904 z "},"Ł":{"ha":868,"x_min":46,"x_max":808,"o":"m 808 358 l 769 0 l 46 0 l 46 43 l 79 43 q 172 56 154 43 q 189 108 189 68 l 189 415 l 96 340 l 65 375 l 189 474 l 189 840 q 172 893 189 881 q 79 906 154 906 l 46 906 l 46 949 q 257 944 94 944 q 490 949 440 944 l 490 906 l 444 906 q 351 897 381 906 q 317 878 322 889 q 313 839 313 867 l 313 571 l 533 746 l 561 710 l 313 513 l 313 99 q 323 53 313 63 q 381 43 333 43 l 494 43 q 616 64 565 43 q 694 111 667 85 q 739 188 721 138 q 763 269 757 238 q 774 358 768 301 l 808 358 z "},"ł":{"ha":467,"x_min":67,"x_max":397,"o":"m 397 582 l 285 497 l 285 106 q 302 52 285 61 q 393 43 319 43 l 393 0 l 239 4 l 85 0 l 85 43 q 176 52 158 43 q 193 106 193 61 l 193 431 l 89 353 l 67 381 l 193 475 l 193 828 q 175 892 193 879 q 85 906 157 906 l 85 949 l 285 964 l 285 544 l 375 611 l 397 582 z "},"Ń":{"ha":1042,"x_min":46,"x_max":994,"o":"m 994 906 q 913 896 944 906 q 869 867 881 886 q 854 836 857 849 q 851 803 851 824 l 851 36 q 849 7 851 14 q 832 0 846 0 q 808 18 822 0 l 242 851 q 228 868 236 860 l 228 146 q 231 113 228 125 q 245 81 233 100 q 289 53 257 63 q 371 43 321 43 l 371 0 l 208 4 l 46 0 l 46 43 q 128 53 96 43 q 172 81 160 63 q 186 113 183 100 q 189 146 189 125 l 189 871 q 184 895 189 890 q 156 903 179 900 q 86 906 114 906 l 46 906 l 46 949 l 282 949 q 307 946 301 949 q 322 931 313 943 l 813 210 l 813 803 q 810 836 813 824 q 795 867 807 849 q 751 896 783 886 q 669 906 719 906 l 669 949 l 832 944 l 994 949 l 994 906 m 711 1204 q 681 1167 707 1179 l 444 1036 l 425 1065 l 626 1246 q 663 1263 643 1263 q 701 1244 686 1263 q 711 1204 715 1226 z "},"ń":{"ha":772,"x_min":44,"x_max":743,"o":"m 743 0 l 588 4 l 431 0 l 431 43 q 522 52 504 43 q 539 106 539 61 l 539 429 q 517 542 539 500 q 436 583 496 583 q 306 523 364 583 q 249 361 249 463 l 249 106 q 266 52 249 61 q 357 43 283 43 l 357 0 l 201 4 l 44 0 l 44 43 q 135 52 118 43 q 153 106 153 61 l 153 478 q 135 542 153 529 q 44 556 117 556 l 44 599 l 240 614 l 240 468 q 446 614 306 614 q 592 563 550 614 q 628 489 622 528 q 635 350 635 450 l 635 85 q 658 49 636 56 q 743 43 681 43 l 743 0 m 558 919 q 535 878 558 896 l 324 708 l 300 733 l 467 946 q 508 969 482 969 q 543 954 528 969 q 558 919 558 939 z "},"Ņ":{"ha":1042,"x_min":46,"x_max":994,"o":"m 994 906 q 913 896 944 906 q 869 867 881 886 q 854 836 857 849 q 851 803 851 824 l 851 36 q 849 7 851 14 q 832 0 846 0 q 808 18 822 0 l 242 851 q 228 868 236 860 l 228 146 q 231 113 228 125 q 245 81 233 100 q 289 53 257 63 q 371 43 321 43 l 371 0 l 208 4 l 46 0 l 46 43 q 128 53 96 43 q 172 81 160 63 q 186 113 183 100 q 189 146 189 125 l 189 871 q 184 895 189 890 q 156 903 179 900 q 86 906 114 906 l 46 906 l 46 949 l 282 949 q 307 946 301 949 q 322 931 313 943 l 813 210 l 813 803 q 810 836 813 824 q 795 867 807 849 q 751 896 783 886 q 669 906 719 906 l 669 949 l 832 944 l 994 949 l 994 906 m 582 -201 q 560 -305 582 -256 q 517 -378 539 -354 q 488 -403 496 -403 q 476 -392 476 -403 q 483 -381 476 -387 q 557 -185 558 -299 q 515 -201 540 -201 q 474 -185 489 -201 q 460 -147 460 -169 q 474 -108 460 -125 q 515 -92 489 -92 q 564 -122 546 -92 q 582 -201 582 -151 z "},"ņ":{"ha":772,"x_min":44,"x_max":743,"o":"m 743 0 l 588 4 l 431 0 l 431 43 q 522 52 504 43 q 539 106 539 61 l 539 429 q 517 542 539 500 q 436 583 496 583 q 306 523 364 583 q 249 361 249 463 l 249 106 q 266 52 249 61 q 357 43 283 43 l 357 0 l 201 4 l 44 0 l 44 43 q 135 52 118 43 q 153 106 153 61 l 153 478 q 135 542 153 529 q 44 556 117 556 l 44 599 l 240 614 l 240 468 q 446 614 306 614 q 592 563 550 614 q 628 489 622 528 q 635 350 635 450 l 635 85 q 658 49 636 56 q 743 43 681 43 l 743 0 m 447 -201 q 426 -305 447 -256 q 383 -378 404 -354 q 353 -403 361 -403 q 342 -392 342 -403 q 349 -381 342 -387 q 422 -185 424 -299 q 381 -201 406 -201 q 340 -185 354 -201 q 325 -147 325 -169 q 340 -108 325 -125 q 381 -92 356 -92 q 429 -122 411 -92 q 447 -201 447 -151 z "},"Ň":{"ha":1042,"x_min":46,"x_max":994,"o":"m 994 906 q 913 896 944 906 q 869 867 881 886 q 854 836 857 849 q 851 803 851 824 l 851 36 q 849 7 851 14 q 832 0 846 0 q 808 18 822 0 l 242 851 q 228 868 236 860 l 228 146 q 231 113 228 125 q 245 81 233 100 q 289 53 257 63 q 371 43 321 43 l 371 0 l 208 4 l 46 0 l 46 43 q 128 53 96 43 q 172 81 160 63 q 186 113 183 100 q 189 146 189 125 l 189 871 q 184 895 189 890 q 156 903 179 900 q 86 906 114 906 l 46 906 l 46 949 l 282 949 q 307 946 301 949 q 322 931 313 943 l 813 210 l 813 803 q 810 836 813 824 q 795 867 807 849 q 751 896 783 886 q 669 906 719 906 l 669 949 l 832 944 l 994 949 l 994 906 m 731 1185 l 521 1022 l 311 1185 l 328 1207 l 522 1115 l 717 1207 l 731 1185 z "},"ň":{"ha":772,"x_min":44,"x_max":743,"o":"m 743 0 l 588 4 l 431 0 l 431 43 q 522 52 504 43 q 539 106 539 61 l 539 429 q 517 542 539 500 q 436 583 496 583 q 306 523 364 583 q 249 361 249 463 l 249 106 q 266 52 249 61 q 357 43 283 43 l 357 0 l 201 4 l 44 0 l 44 43 q 135 52 118 43 q 153 106 153 61 l 153 478 q 135 542 153 529 q 44 556 117 556 l 44 599 l 240 614 l 240 468 q 446 614 306 614 q 592 563 550 614 q 628 489 622 528 q 635 350 635 450 l 635 85 q 658 49 636 56 q 743 43 681 43 l 743 0 m 597 942 l 386 717 l 175 942 l 193 961 l 386 811 l 579 961 l 597 942 z "},"Ŋ":{"ha":1042,"x_min":39,"x_max":990,"o":"m 990 475 q 974 290 990 378 q 924 129 957 203 q 831 13 890 56 q 694 -31 772 -31 q 649 -12 668 -31 q 631 33 631 7 q 649 78 631 60 q 694 97 668 97 q 740 78 721 97 q 758 33 758 60 l 758 24 q 810 92 790 46 q 838 210 831 138 q 847 333 846 283 q 849 475 849 383 q 833 646 849 565 q 786 794 818 726 q 699 903 754 863 q 574 943 644 943 q 422 903 492 943 q 313 793 353 863 l 313 108 q 331 56 313 68 q 426 43 349 43 l 463 43 l 463 0 q 250 4 414 4 q 39 0 88 4 l 39 43 l 75 43 q 171 56 153 43 q 189 108 189 68 l 189 840 q 171 893 189 881 q 75 906 153 906 l 39 906 l 39 949 q 251 944 88 944 q 313 949 281 944 l 313 854 q 574 979 415 979 q 872 829 754 979 q 990 475 990 679 z "},"ŋ":{"ha":703,"x_min":44,"x_max":635,"o":"m 635 96 q 624 -48 635 18 q 592 -173 614 -114 q 526 -266 569 -232 q 425 -300 483 -300 q 390 -286 404 -300 q 376 -251 376 -272 q 390 -217 376 -232 q 425 -203 404 -203 q 457 -216 443 -203 q 472 -249 471 -229 q 519 -163 503 -226 q 537 -49 535 -100 q 539 96 539 3 l 539 429 q 517 542 539 500 q 436 583 496 583 q 306 523 364 583 q 249 361 249 463 l 249 106 q 266 52 249 61 q 357 43 283 43 l 357 0 l 201 4 l 44 0 l 44 43 q 135 52 118 43 q 153 106 153 61 l 153 478 q 135 542 153 529 q 44 556 117 556 l 44 599 l 240 614 l 240 468 q 446 614 306 614 q 592 563 550 614 q 628 489 622 528 q 635 350 635 450 l 635 96 z "},"Ō":{"ha":1081,"x_min":78,"x_max":1001,"o":"m 1001 471 q 865 115 1001 261 q 539 -31 729 -31 q 215 115 351 -31 q 78 471 78 260 q 214 831 78 683 q 539 979 350 979 q 865 831 729 979 q 1001 471 1001 682 m 858 490 q 837 674 858 592 q 781 805 815 756 q 703 887 747 854 q 619 932 660 919 q 539 944 578 944 q 440 923 490 944 q 338 853 389 901 q 253 712 286 806 q 221 490 221 618 q 251 263 221 361 q 331 110 282 164 q 433 31 381 57 q 540 6 486 6 q 645 31 593 6 q 747 108 697 56 q 827 260 796 161 q 858 490 858 360 m 792 1050 l 290 1050 l 290 1093 l 792 1093 l 792 1050 z "},"ō":{"ha":694,"x_min":39,"x_max":654,"o":"m 654 297 q 563 76 654 167 q 346 -15 472 -15 q 131 75 222 -15 q 39 297 39 165 q 128 526 39 429 q 347 622 218 622 q 564 526 474 622 q 654 297 654 431 m 539 308 q 503 501 539 442 q 346 592 449 592 q 258 568 301 592 q 188 499 214 544 q 154 308 154 438 q 189 113 154 174 q 347 19 243 19 q 442 47 399 19 q 508 122 485 75 q 539 308 539 183 m 599 818 l 97 818 l 97 861 l 599 861 l 599 818 z "},"Ő":{"ha":1081,"x_min":78,"x_max":1001,"o":"m 1001 471 q 865 115 1001 261 q 539 -31 729 -31 q 215 115 351 -31 q 78 471 78 260 q 214 831 78 683 q 539 979 350 979 q 865 831 729 979 q 1001 471 1001 682 m 858 490 q 837 674 858 592 q 781 805 815 756 q 703 887 747 854 q 619 932 660 919 q 539 944 578 944 q 440 923 490 944 q 338 853 389 901 q 253 712 286 806 q 221 490 221 618 q 251 263 221 361 q 331 110 282 164 q 433 31 381 57 q 540 6 486 6 q 645 31 593 6 q 747 108 697 56 q 827 260 796 161 q 858 490 858 360 m 544 1247 q 528 1211 544 1233 l 400 1036 q 371 1053 379 1047 l 446 1254 q 454 1273 451 1267 q 467 1287 457 1279 q 493 1294 478 1294 q 528 1280 513 1294 q 544 1247 544 1265 m 776 1247 q 760 1211 776 1233 l 632 1036 q 603 1053 611 1047 l 678 1254 q 686 1273 683 1267 q 699 1287 689 1279 q 725 1294 710 1294 q 760 1280 744 1294 q 776 1247 776 1265 z "},"ő":{"ha":694,"x_min":39,"x_max":654,"o":"m 654 297 q 563 76 654 167 q 346 -15 472 -15 q 131 75 222 -15 q 39 297 39 165 q 128 526 39 429 q 347 622 218 622 q 564 526 474 622 q 654 297 654 431 m 539 308 q 503 501 539 442 q 346 592 449 592 q 258 568 301 592 q 188 499 214 544 q 154 308 154 438 q 189 113 154 174 q 347 19 243 19 q 442 47 399 19 q 508 122 485 75 q 539 308 539 183 m 351 921 q 335 885 351 907 l 207 710 q 178 726 186 719 l 253 928 q 261 947 258 940 q 274 960 264 953 q 300 968 285 968 q 335 953 319 968 q 351 921 351 939 m 583 921 q 567 885 583 907 l 439 710 q 410 726 418 719 l 485 928 q 493 947 490 940 q 506 960 496 953 q 532 968 517 968 q 567 953 551 968 q 583 921 583 939 z "},"Œ":{"ha":1408,"x_min":97,"x_max":1368,"o":"m 1368 358 l 1310 0 l 772 0 q 665 -15 732 0 q 556 -31 594 -31 q 235 114 372 -31 q 97 471 97 258 q 235 833 97 686 q 556 979 372 979 q 653 965 594 979 q 772 949 729 949 l 1290 949 l 1329 636 l 1294 636 q 1273 758 1285 714 q 1235 840 1261 803 q 1163 891 1208 876 q 1043 906 1117 906 l 888 906 q 830 896 840 906 q 819 850 819 886 l 819 514 l 969 514 q 1099 548 1069 514 q 1128 676 1128 582 l 1163 676 l 1163 308 l 1128 308 q 1099 437 1128 403 q 969 471 1069 471 l 819 471 l 819 99 q 830 53 819 63 q 888 43 840 43 l 1040 43 q 1142 51 1099 43 q 1215 80 1185 58 q 1263 122 1244 101 q 1295 185 1281 142 q 1316 262 1310 229 q 1333 358 1322 294 l 1368 358 m 714 474 q 707 803 714 742 q 697 860 703 839 q 677 905 692 882 q 634 938 663 928 q 561 949 606 949 q 332 817 428 949 q 236 492 236 686 q 331 143 236 286 q 561 0 426 0 q 671 37 642 0 q 708 151 700 74 q 714 474 714 215 z "},"œ":{"ha":1081,"x_min":39,"x_max":1040,"o":"m 1040 165 q 1028 126 1040 153 q 992 66 1015 99 q 924 9 969 33 q 825 -15 879 -15 q 690 21 757 -15 q 579 129 622 57 q 478 26 542 67 q 335 -15 414 -15 q 126 77 214 -15 q 39 304 39 169 q 126 530 39 438 q 335 622 214 622 q 475 583 411 622 q 578 482 539 544 q 679 586 618 550 q 808 622 740 622 q 979 546 918 622 q 1040 350 1040 469 q 1035 325 1040 329 q 1006 321 1029 321 l 626 321 q 647 174 626 236 q 694 84 668 113 q 754 40 719 56 q 803 22 789 24 q 831 19 818 19 q 938 59 892 19 q 1001 154 985 99 q 1005 166 1004 163 q 1008 174 1006 169 q 1012 179 1010 178 q 1016 181 1014 181 q 1022 182 1018 182 q 1040 165 1040 182 m 949 350 q 807 592 936 592 q 694 538 751 592 q 628 350 638 483 l 949 350 m 531 310 q 512 442 531 386 q 469 526 493 499 q 415 570 446 554 q 367 589 383 586 q 336 592 350 592 q 302 589 319 592 q 255 569 285 586 q 203 525 225 553 q 163 441 181 497 q 146 310 146 385 q 163 172 146 231 q 203 84 181 113 q 257 38 226 56 q 304 18 288 21 q 336 15 321 15 q 374 20 354 15 q 424 43 394 25 q 475 91 453 61 q 514 178 497 121 q 531 310 531 235 z "},"Ŕ":{"ha":1022,"x_min":49,"x_max":1017,"o":"m 1017 122 q 1011 81 1017 104 q 992 32 1006 58 q 951 -12 979 6 q 885 -31 922 -31 q 710 28 776 -31 q 669 85 682 53 q 655 144 657 118 q 653 226 653 169 q 644 342 653 307 q 600 413 636 378 q 471 460 551 460 l 311 460 l 311 108 q 328 56 311 68 q 421 43 346 43 l 454 43 l 454 0 q 251 4 404 4 q 49 0 99 4 l 49 43 l 82 43 q 174 56 157 43 q 192 108 192 68 l 192 840 q 174 893 192 881 q 82 906 157 906 l 49 906 l 49 949 l 485 949 q 742 874 636 949 q 847 699 847 800 q 778 560 847 621 q 604 472 710 499 q 774 311 742 425 l 792 200 q 801 140 797 160 q 810 92 804 119 q 823 51 817 64 q 839 24 829 38 q 861 5 849 10 q 890 0 874 0 q 949 28 922 0 q 982 124 976 57 q 999 146 985 146 q 1017 122 1017 146 m 704 699 q 693 784 704 747 q 658 842 682 821 q 611 878 635 864 q 551 897 588 892 q 489 904 514 903 q 424 906 464 906 q 342 903 356 906 q 320 894 326 901 q 313 878 314 886 q 311 850 311 869 l 311 490 l 465 490 q 589 508 539 490 q 663 559 639 526 q 695 624 686 592 q 704 699 704 657 m 701 1204 q 671 1167 697 1179 l 435 1036 l 415 1065 l 617 1246 q 653 1263 633 1263 q 691 1244 676 1263 q 701 1204 706 1226 z "},"ŕ":{"ha":544,"x_min":39,"x_max":506,"o":"m 506 529 q 487 483 506 499 q 446 468 468 468 q 403 484 421 468 q 386 528 386 500 q 394 558 386 544 q 408 576 401 571 q 418 582 414 581 q 403 583 415 583 q 283 507 326 583 q 239 322 239 431 l 239 108 q 256 56 239 68 q 344 43 272 43 l 374 43 l 374 0 q 197 4 318 4 l 39 0 l 39 43 q 130 52 113 43 q 147 106 147 61 l 147 478 q 129 542 147 529 q 39 556 111 556 l 39 599 l 232 614 l 232 461 q 293 567 251 521 q 403 614 335 614 q 476 589 447 614 q 506 529 506 564 m 444 919 q 421 878 444 896 l 210 708 l 186 733 l 353 946 q 394 969 368 969 q 429 954 414 969 q 444 919 444 939 z "},"Ŗ":{"ha":1022,"x_min":49,"x_max":1017,"o":"m 1017 122 q 1011 81 1017 104 q 992 32 1006 58 q 951 -12 979 6 q 885 -31 922 -31 q 710 28 776 -31 q 669 85 682 53 q 655 144 657 118 q 653 226 653 169 q 644 342 653 307 q 600 413 636 378 q 471 460 551 460 l 311 460 l 311 108 q 328 56 311 68 q 421 43 346 43 l 454 43 l 454 0 q 251 4 404 4 q 49 0 99 4 l 49 43 l 82 43 q 174 56 157 43 q 192 108 192 68 l 192 840 q 174 893 192 881 q 82 906 157 906 l 49 906 l 49 949 l 485 949 q 742 874 636 949 q 847 699 847 800 q 778 560 847 621 q 604 472 710 499 q 774 311 742 425 l 792 200 q 801 140 797 160 q 810 92 804 119 q 823 51 817 64 q 839 24 829 38 q 861 5 849 10 q 890 0 874 0 q 949 28 922 0 q 982 124 976 57 q 999 146 985 146 q 1017 122 1017 146 m 704 699 q 693 784 704 747 q 658 842 682 821 q 611 878 635 864 q 551 897 588 892 q 489 904 514 903 q 424 906 464 906 q 342 903 356 906 q 320 894 326 901 q 313 878 314 886 q 311 850 311 869 l 311 490 l 465 490 q 589 508 539 490 q 663 559 639 526 q 695 624 686 592 q 704 699 704 657 m 572 -201 q 551 -305 572 -256 q 508 -378 529 -354 q 478 -403 486 -403 q 467 -392 467 -403 q 474 -381 467 -387 q 547 -185 549 -299 q 506 -201 531 -201 q 465 -185 479 -201 q 450 -147 450 -169 q 465 -108 450 -125 q 506 -92 481 -92 q 554 -122 536 -92 q 572 -201 572 -151 z "},"ŗ":{"ha":544,"x_min":39,"x_max":506,"o":"m 506 529 q 487 483 506 499 q 446 468 468 468 q 403 484 421 468 q 386 528 386 500 q 394 558 386 544 q 408 576 401 571 q 418 582 414 581 q 403 583 415 583 q 283 507 326 583 q 239 322 239 431 l 239 108 q 256 56 239 68 q 344 43 272 43 l 374 43 l 374 0 q 197 4 318 4 l 39 0 l 39 43 q 130 52 113 43 q 147 106 147 61 l 147 478 q 129 542 147 529 q 39 556 111 556 l 39 599 l 232 614 l 232 461 q 293 567 251 521 q 403 614 335 614 q 476 589 447 614 q 506 529 506 564 m 254 -201 q 233 -305 254 -256 q 190 -378 211 -354 q 160 -403 168 -403 q 149 -392 149 -403 q 156 -381 149 -387 q 229 -185 231 -299 q 188 -201 213 -201 q 147 -185 161 -201 q 132 -147 132 -169 q 147 -108 132 -125 q 188 -92 161 -92 q 236 -122 218 -92 q 254 -201 254 -151 z "},"Ř":{"ha":1022,"x_min":49,"x_max":1017,"o":"m 1017 122 q 1011 81 1017 104 q 992 32 1006 58 q 951 -12 979 6 q 885 -31 922 -31 q 710 28 776 -31 q 669 85 682 53 q 655 144 657 118 q 653 226 653 169 q 644 342 653 307 q 600 413 636 378 q 471 460 551 460 l 311 460 l 311 108 q 328 56 311 68 q 421 43 346 43 l 454 43 l 454 0 q 251 4 404 4 q 49 0 99 4 l 49 43 l 82 43 q 174 56 157 43 q 192 108 192 68 l 192 840 q 174 893 192 881 q 82 906 157 906 l 49 906 l 49 949 l 485 949 q 742 874 636 949 q 847 699 847 800 q 778 560 847 621 q 604 472 710 499 q 774 311 742 425 l 792 200 q 801 140 797 160 q 810 92 804 119 q 823 51 817 64 q 839 24 829 38 q 861 5 849 10 q 890 0 874 0 q 949 28 922 0 q 982 124 976 57 q 999 146 985 146 q 1017 122 1017 146 m 704 699 q 693 784 704 747 q 658 842 682 821 q 611 878 635 864 q 551 897 588 892 q 489 904 514 903 q 424 906 464 906 q 342 903 356 906 q 320 894 326 901 q 313 878 314 886 q 311 850 311 869 l 311 490 l 465 490 q 589 508 539 490 q 663 559 639 526 q 695 624 686 592 q 704 699 704 657 m 721 1185 l 511 1022 l 301 1185 l 318 1207 l 513 1115 l 707 1207 l 721 1185 z "},"ř":{"ha":544,"x_min":39,"x_max":506,"o":"m 506 529 q 487 483 506 499 q 446 468 468 468 q 403 484 421 468 q 386 528 386 500 q 394 558 386 544 q 408 576 401 571 q 418 582 414 581 q 403 583 415 583 q 283 507 326 583 q 239 322 239 431 l 239 108 q 256 56 239 68 q 344 43 272 43 l 374 43 l 374 0 q 197 4 318 4 l 39 0 l 39 43 q 130 52 113 43 q 147 106 147 61 l 147 478 q 129 542 147 529 q 39 556 111 556 l 39 599 l 232 614 l 232 461 q 293 567 251 521 q 403 614 335 614 q 476 589 447 614 q 506 529 506 564 m 483 942 l 272 717 l 61 942 l 79 961 l 272 811 l 465 961 l 483 942 z "},"Ś":{"ha":772,"x_min":78,"x_max":693,"o":"m 693 258 q 616 55 693 140 q 419 -31 539 -31 q 267 -2 333 -31 q 164 67 200 26 l 114 -12 q 93 -31 103 -31 q 80 -24 82 -31 q 78 3 78 -17 l 78 281 q 78 301 78 296 q 83 311 79 307 q 96 315 88 315 q 113 301 111 315 q 199 88 117 164 q 418 13 279 13 q 553 72 501 13 q 604 211 604 132 q 561 339 604 286 q 520 378 543 363 q 483 398 497 393 q 443 410 469 403 q 260 456 271 451 q 128 553 178 483 q 78 710 78 624 q 156 900 78 821 q 349 979 235 979 q 453 961 406 979 q 521 927 501 943 q 571 882 540 911 l 619 961 q 640 979 631 979 q 653 973 651 979 q 656 946 656 967 l 656 667 q 655 646 656 651 q 650 637 654 640 q 638 633 646 633 q 621 650 624 633 q 350 940 582 940 q 219 887 271 940 q 167 758 167 833 q 205 647 167 697 q 307 582 243 597 l 485 539 q 633 440 574 518 q 693 258 693 361 m 576 1204 q 546 1167 572 1179 l 310 1036 l 290 1065 l 492 1246 q 528 1263 508 1263 q 566 1244 551 1263 q 576 1204 581 1226 z "},"ś":{"ha":547,"x_min":46,"x_max":500,"o":"m 500 178 q 444 40 500 96 q 276 -15 389 -15 q 124 44 186 -15 q 109 29 115 36 q 101 19 103 22 q 98 15 99 17 q 96 13 97 14 q 61 -15 68 -15 q 48 -9 50 -15 q 46 18 46 -3 l 46 201 q 47 222 46 217 q 51 232 47 228 q 64 236 56 236 q 77 232 74 236 q 83 213 81 228 q 149 66 104 117 q 276 15 194 15 q 394 50 354 15 q 433 142 433 85 q 289 269 433 243 q 171 297 206 286 q 106 333 136 308 q 46 451 46 382 q 99 572 46 521 q 268 622 151 622 q 399 583 346 622 q 422 606 414 596 q 450 622 440 622 q 463 615 461 622 q 465 589 465 608 l 465 449 q 465 428 465 433 q 460 419 464 422 q 447 415 456 415 q 431 428 432 415 q 268 596 419 596 q 149 565 186 596 q 113 490 113 533 q 124 449 113 467 q 149 420 135 431 q 191 400 164 410 q 235 387 218 390 q 283 376 251 383 q 442 310 394 356 q 500 178 500 251 m 446 919 q 422 878 446 896 l 211 708 l 188 733 l 354 946 q 396 969 369 969 q 430 954 414 969 q 446 919 446 939 z "},"Ş":{"ha":772,"x_min":78,"x_max":693,"o":"m 693 258 q 617 56 693 142 q 422 -31 540 -29 l 422 -92 q 528 -115 483 -92 q 572 -185 572 -139 q 559 -224 572 -207 q 517 -250 546 -240 q 461 -266 488 -260 q 388 -274 435 -272 q 315 -277 342 -276 q 236 -278 288 -278 l 200 -278 l 200 -242 l 218 -242 q 273 -242 254 -242 q 325 -240 292 -242 q 377 -234 358 -237 q 416 -225 396 -231 q 446 -209 436 -219 q 456 -185 456 -199 q 350 -128 456 -128 l 350 -25 q 164 67 232 -6 l 114 -12 q 93 -31 103 -31 q 80 -24 82 -31 q 78 3 78 -17 l 78 281 q 78 301 78 296 q 83 311 79 307 q 96 315 88 315 q 113 301 111 315 q 199 88 117 164 q 418 13 279 13 q 553 72 501 13 q 604 211 604 132 q 561 339 604 286 q 520 378 543 363 q 483 398 497 393 q 443 410 469 403 q 260 456 271 451 q 128 553 178 483 q 78 710 78 624 q 156 900 78 821 q 349 979 235 979 q 453 961 406 979 q 521 927 501 943 q 571 882 540 911 l 619 961 q 640 979 631 979 q 653 973 651 979 q 656 946 656 967 l 656 667 q 655 646 656 651 q 650 637 654 640 q 638 633 646 633 q 621 650 624 633 q 350 940 582 940 q 219 887 271 940 q 167 758 167 833 q 205 647 167 697 q 307 582 243 597 l 485 539 q 633 440 574 518 q 693 258 693 361 z "},"ş":{"ha":547,"x_min":46,"x_max":500,"o":"m 500 178 q 453 48 500 101 q 310 -14 406 -6 l 310 -92 q 416 -115 372 -92 q 460 -185 460 -139 q 447 -224 460 -207 q 405 -250 433 -240 q 350 -266 376 -260 q 277 -274 324 -272 q 203 -277 231 -276 q 125 -278 176 -278 l 89 -278 l 89 -242 l 107 -242 q 162 -242 143 -242 q 213 -240 181 -242 q 265 -234 246 -237 q 304 -225 283 -231 q 334 -209 325 -219 q 343 -185 343 -199 q 238 -128 343 -128 l 238 -12 q 124 44 174 -4 q 109 29 115 36 q 101 19 103 22 q 98 15 99 17 q 96 13 97 14 q 61 -15 68 -15 q 48 -9 50 -15 q 46 18 46 -3 l 46 201 q 47 222 46 217 q 51 232 47 228 q 64 236 56 236 q 77 232 74 236 q 83 213 81 228 q 149 66 104 117 q 276 15 194 15 q 394 50 354 15 q 433 142 433 85 q 289 269 433 243 q 171 297 206 286 q 106 333 136 308 q 46 451 46 382 q 99 572 46 521 q 268 622 151 622 q 399 583 346 622 q 422 606 414 596 q 450 622 440 622 q 463 615 461 622 q 465 589 465 608 l 465 449 q 465 428 465 433 q 460 419 464 422 q 447 415 456 415 q 431 428 432 415 q 268 596 419 596 q 149 565 186 596 q 113 490 113 533 q 124 449 113 467 q 149 420 135 431 q 191 400 164 410 q 235 387 218 390 q 283 376 251 383 q 442 310 394 356 q 500 178 500 251 z "},"Š":{"ha":772,"x_min":78,"x_max":693,"o":"m 693 258 q 616 55 693 140 q 419 -31 539 -31 q 267 -2 333 -31 q 164 67 200 26 l 114 -12 q 93 -31 103 -31 q 80 -24 82 -31 q 78 3 78 -17 l 78 281 q 78 301 78 296 q 83 311 79 307 q 96 315 88 315 q 113 301 111 315 q 199 88 117 164 q 418 13 279 13 q 553 72 501 13 q 604 211 604 132 q 561 339 604 286 q 520 378 543 363 q 483 398 497 393 q 443 410 469 403 q 260 456 271 451 q 128 553 178 483 q 78 710 78 624 q 156 900 78 821 q 349 979 235 979 q 453 961 406 979 q 521 927 501 943 q 571 882 540 911 l 619 961 q 640 979 631 979 q 653 973 651 979 q 656 946 656 967 l 656 667 q 655 646 656 651 q 650 637 654 640 q 638 633 646 633 q 621 650 624 633 q 350 940 582 940 q 219 887 271 940 q 167 758 167 833 q 205 647 167 697 q 307 582 243 597 l 485 539 q 633 440 574 518 q 693 258 693 361 m 596 1185 l 386 1022 l 176 1185 l 193 1207 l 388 1115 l 582 1207 l 596 1185 z "},"š":{"ha":547,"x_min":46,"x_max":500,"o":"m 500 178 q 444 40 500 96 q 276 -15 389 -15 q 124 44 186 -15 q 109 29 115 36 q 101 19 103 22 q 98 15 99 17 q 96 13 97 14 q 61 -15 68 -15 q 48 -9 50 -15 q 46 18 46 -3 l 46 201 q 47 222 46 217 q 51 232 47 228 q 64 236 56 236 q 77 232 74 236 q 83 213 81 228 q 149 66 104 117 q 276 15 194 15 q 394 50 354 15 q 433 142 433 85 q 289 269 433 243 q 171 297 206 286 q 106 333 136 308 q 46 451 46 382 q 99 572 46 521 q 268 622 151 622 q 399 583 346 622 q 422 606 414 596 q 450 622 440 622 q 463 615 461 622 q 465 589 465 608 l 465 449 q 465 428 465 433 q 460 419 464 422 q 447 415 456 415 q 431 428 432 415 q 268 596 419 596 q 149 565 186 596 q 113 490 113 533 q 124 449 113 467 q 149 420 135 431 q 191 400 164 410 q 235 387 218 390 q 283 376 251 383 q 442 310 394 356 q 500 178 500 251 m 485 942 l 274 717 l 63 942 l 81 961 l 274 811 l 467 961 l 485 942 z "},"Ţ":{"ha":1003,"x_min":50,"x_max":951,"o":"m 951 628 l 917 628 q 906 726 911 690 q 890 797 901 763 q 863 847 878 831 q 821 877 849 864 q 757 894 793 890 q 667 897 721 897 q 588 894 603 897 q 567 878 571 890 q 563 842 563 867 l 563 110 q 568 71 563 82 q 606 51 574 60 q 708 43 638 43 l 764 43 l 764 0 q 538 4 717 4 l 538 -92 q 644 -115 600 -92 q 688 -185 688 -139 q 674 -224 688 -207 q 633 -250 661 -240 q 578 -266 604 -260 q 505 -274 551 -272 q 431 -277 458 -276 q 353 -278 404 -278 l 317 -278 l 317 -242 l 335 -242 q 390 -242 371 -242 q 441 -240 408 -242 q 492 -234 474 -237 q 532 -225 511 -231 q 562 -209 553 -219 q 571 -185 571 -199 q 465 -128 571 -128 l 465 4 q 238 0 286 4 l 238 43 l 293 43 q 396 51 364 43 q 433 71 428 60 q 439 110 439 82 l 439 842 q 438 869 439 861 q 430 885 436 878 q 410 894 424 892 q 335 897 396 897 q 244 894 281 897 q 181 877 208 890 q 138 847 153 864 q 112 797 124 831 q 95 726 100 763 q 85 628 90 690 l 50 628 l 76 940 l 925 940 l 951 628 z "},"ţ":{"ha":540,"x_min":26,"x_max":482,"o":"m 482 -185 q 469 -224 482 -207 q 427 -250 456 -240 q 372 -266 399 -260 q 299 -274 346 -272 q 226 -277 253 -276 q 147 -278 199 -278 l 111 -278 l 111 -242 l 129 -242 q 184 -242 165 -242 q 235 -240 203 -242 q 287 -234 268 -237 q 326 -225 306 -231 q 356 -209 347 -219 q 365 -185 365 -199 q 260 -128 365 -128 l 260 -6 q 144 172 144 26 l 144 556 l 26 556 l 26 586 q 133 634 90 589 q 190 735 175 679 q 206 854 204 790 l 240 854 l 240 599 l 439 599 l 439 556 l 240 556 l 240 169 q 333 19 240 19 q 400 60 374 19 q 426 175 426 101 l 426 251 l 461 251 l 461 172 q 429 44 461 99 q 332 -15 397 -11 l 332 -92 q 438 -115 394 -92 q 482 -185 482 -139 z "},"Ť":{"ha":1003,"x_min":50,"x_max":951,"o":"m 951 628 l 917 628 q 906 726 911 690 q 890 797 901 763 q 863 847 878 831 q 821 877 849 864 q 757 894 793 890 q 667 897 721 897 q 588 894 603 897 q 567 878 571 890 q 563 842 563 867 l 563 110 q 568 71 563 82 q 606 51 574 60 q 708 43 638 43 l 764 43 l 764 0 q 500 4 707 4 q 238 0 294 4 l 238 43 l 293 43 q 396 51 364 43 q 433 71 428 60 q 439 110 439 82 l 439 842 q 438 869 439 861 q 430 885 436 878 q 410 894 424 892 q 335 897 396 897 q 244 894 281 897 q 181 877 208 890 q 138 847 153 864 q 112 797 124 831 q 95 726 100 763 q 85 628 90 690 l 50 628 l 76 940 l 925 940 l 951 628 m 711 1185 l 501 1022 l 292 1185 l 308 1207 l 503 1115 l 697 1207 l 711 1185 z "},"ť":{"ha":540,"x_min":26,"x_max":461,"o":"m 461 172 q 426 41 461 97 q 324 -15 392 -15 q 274 -9 299 -15 q 217 14 249 -3 q 165 72 185 31 q 144 172 144 113 l 144 556 l 26 556 l 26 586 q 133 634 90 589 q 190 735 175 679 q 206 854 204 790 l 240 854 l 240 599 l 439 599 l 439 556 l 240 556 l 240 169 q 333 19 240 19 q 400 60 374 19 q 426 175 426 101 l 426 251 l 461 251 l 461 172 m 414 851 q 392 748 414 797 q 349 674 371 699 q 319 650 328 650 q 308 661 308 650 q 315 672 308 665 q 389 868 390 754 q 347 851 372 851 q 306 867 321 851 q 292 906 292 883 q 307 944 292 928 q 347 961 322 961 q 396 931 378 961 q 414 851 414 901 z "},"Ũ":{"ha":1042,"x_min":46,"x_max":994,"o":"m 994 906 q 913 897 944 906 q 869 868 881 888 q 854 835 857 849 q 851 797 851 821 l 851 353 q 847 257 851 285 q 743 53 829 136 q 539 -31 657 -31 q 292 70 396 -31 q 189 317 189 171 l 189 840 q 172 893 189 881 q 79 906 154 906 l 46 906 l 46 949 q 251 944 94 944 q 456 949 407 944 l 456 906 l 422 906 q 330 893 347 906 q 313 840 313 881 l 313 311 q 338 154 313 218 q 404 62 364 90 q 477 23 444 33 q 542 13 510 13 q 728 97 647 13 q 808 321 808 181 l 808 803 q 806 836 808 824 q 791 867 803 849 q 747 896 779 886 q 665 906 715 906 l 665 949 l 831 944 l 994 949 l 994 906 m 785 1131 q 724 1065 740 1082 q 683 1035 707 1049 q 635 1022 660 1022 q 549 1054 603 1022 q 458 1089 489 1089 q 402 1072 431 1089 q 358 1039 374 1056 l 344 1022 l 322 1043 q 383 1108 367 1092 q 424 1138 400 1125 q 472 1151 447 1151 q 558 1119 504 1151 q 649 1085 618 1085 q 705 1101 676 1085 q 747 1135 733 1118 l 763 1151 l 785 1131 z "},"ũ":{"ha":772,"x_min":44,"x_max":743,"o":"m 743 0 l 543 -15 l 543 110 q 364 -15 485 -15 q 261 0 303 -15 q 199 35 219 15 q 167 92 178 54 q 154 152 156 129 q 153 219 153 175 l 153 428 q 139 539 153 522 q 44 556 125 556 l 44 599 l 249 614 l 249 153 q 251 100 249 119 q 265 58 254 81 q 303 26 276 36 q 371 15 329 15 q 492 77 446 15 q 539 231 539 139 l 539 478 q 521 542 539 529 q 431 556 503 556 l 431 599 l 635 614 l 635 121 q 653 56 635 69 q 743 43 671 43 l 743 0 m 618 883 q 557 818 574 835 q 517 788 540 801 q 468 775 493 775 q 382 807 436 775 q 292 842 322 842 q 235 825 264 842 q 192 792 207 808 l 178 775 l 156 796 q 217 861 200 844 q 257 891 233 878 q 306 904 281 904 q 392 872 338 904 q 482 838 450 838 q 538 854 510 838 q 581 888 567 871 l 596 904 l 618 883 z "},"Ū":{"ha":1042,"x_min":46,"x_max":994,"o":"m 994 906 q 913 897 944 906 q 869 868 881 888 q 854 835 857 849 q 851 797 851 821 l 851 353 q 847 257 851 285 q 743 53 829 136 q 539 -31 657 -31 q 292 70 396 -31 q 189 317 189 171 l 189 840 q 172 893 189 881 q 79 906 154 906 l 46 906 l 46 949 q 251 944 94 944 q 456 949 407 944 l 456 906 l 422 906 q 330 893 347 906 q 313 840 313 881 l 313 311 q 338 154 313 218 q 404 62 364 90 q 477 23 444 33 q 542 13 510 13 q 728 97 647 13 q 808 321 808 181 l 808 803 q 806 836 808 824 q 791 867 803 849 q 747 896 779 886 q 665 906 715 906 l 665 949 l 831 944 l 994 949 l 994 906 m 804 1050 l 303 1050 l 303 1093 l 804 1093 l 804 1050 z "},"ū":{"ha":772,"x_min":44,"x_max":743,"o":"m 743 0 l 543 -15 l 543 110 q 364 -15 485 -15 q 261 0 303 -15 q 199 35 219 15 q 167 92 178 54 q 154 152 156 129 q 153 219 153 175 l 153 428 q 139 539 153 522 q 44 556 125 556 l 44 599 l 249 614 l 249 153 q 251 100 249 119 q 265 58 254 81 q 303 26 276 36 q 371 15 329 15 q 492 77 446 15 q 539 231 539 139 l 539 478 q 521 542 539 529 q 431 556 503 556 l 431 599 l 635 614 l 635 121 q 653 56 635 69 q 743 43 671 43 l 743 0 m 638 818 l 136 818 l 136 861 l 638 861 l 638 818 z "},"Ů":{"ha":1042,"x_min":46,"x_max":994,"o":"m 994 906 q 913 897 944 906 q 869 868 881 888 q 854 835 857 849 q 851 797 851 821 l 851 353 q 847 257 851 285 q 743 53 829 136 q 539 -31 657 -31 q 292 70 396 -31 q 189 317 189 171 l 189 840 q 172 893 189 881 q 79 906 154 906 l 46 906 l 46 949 q 251 944 94 944 q 456 949 407 944 l 456 906 l 422 906 q 330 893 347 906 q 313 840 313 881 l 313 311 q 338 154 313 218 q 404 62 364 90 q 477 23 444 33 q 542 13 510 13 q 728 97 647 13 q 808 321 808 181 l 808 803 q 806 836 808 824 q 791 867 803 849 q 747 896 779 886 q 665 906 715 906 l 665 949 l 831 944 l 994 949 l 994 906 m 553 1036 q 597 1036 553 1036 q 640 1117 640 1036 q 553 1197 640 1197 q 465 1117 465 1197 q 553 1036 465 1036 m 686 1118 q 648 1031 686 1067 q 551 994 610 994 q 458 1030 497 994 q 419 1118 419 1065 q 458 1202 419 1165 q 554 1239 496 1239 q 648 1203 610 1239 q 686 1118 686 1167 z "},"ů":{"ha":772,"x_min":44,"x_max":743,"o":"m 743 0 l 543 -15 l 543 110 q 364 -15 485 -15 q 261 0 303 -15 q 199 35 219 15 q 167 92 178 54 q 154 152 156 129 q 153 219 153 175 l 153 428 q 139 539 153 522 q 44 556 125 556 l 44 599 l 249 614 l 249 153 q 251 100 249 119 q 265 58 254 81 q 303 26 276 36 q 371 15 329 15 q 492 77 446 15 q 539 231 539 139 l 539 478 q 521 542 539 529 q 431 556 503 556 l 431 599 l 635 614 l 635 121 q 653 56 635 69 q 743 43 671 43 l 743 0 m 386 776 q 430 776 386 776 q 474 857 474 776 q 386 938 474 938 q 299 857 299 938 q 386 776 299 776 m 519 858 q 481 771 519 807 q 385 735 443 735 q 292 770 331 735 q 253 858 253 806 q 291 942 253 906 q 388 979 329 979 q 481 943 443 979 q 519 858 519 907 z "},"Ű":{"ha":1042,"x_min":46,"x_max":994,"o":"m 994 906 q 913 897 944 906 q 869 868 881 888 q 854 835 857 849 q 851 797 851 821 l 851 353 q 847 257 851 285 q 743 53 829 136 q 539 -31 657 -31 q 292 70 396 -31 q 189 317 189 171 l 189 840 q 172 893 189 881 q 79 906 154 906 l 46 906 l 46 949 q 251 944 94 944 q 456 949 407 944 l 456 906 l 422 906 q 330 893 347 906 q 313 840 313 881 l 313 311 q 338 154 313 218 q 404 62 364 90 q 477 23 444 33 q 542 13 510 13 q 728 97 647 13 q 808 321 808 181 l 808 803 q 806 836 808 824 q 791 867 803 849 q 747 896 779 886 q 665 906 715 906 l 665 949 l 831 944 l 994 949 l 994 906 m 557 1247 q 540 1211 557 1233 l 413 1036 q 383 1053 392 1047 l 458 1254 q 467 1273 464 1267 q 480 1287 469 1279 q 506 1294 490 1294 q 541 1280 525 1294 q 557 1247 557 1265 m 789 1247 q 772 1211 789 1233 l 644 1036 q 615 1053 624 1047 l 690 1254 q 699 1273 696 1267 q 712 1287 701 1279 q 738 1294 722 1294 q 773 1280 757 1294 q 789 1247 789 1265 z "},"ű":{"ha":772,"x_min":44,"x_max":743,"o":"m 743 0 l 543 -15 l 543 110 q 364 -15 485 -15 q 261 0 303 -15 q 199 35 219 15 q 167 92 178 54 q 154 152 156 129 q 153 219 153 175 l 153 428 q 139 539 153 522 q 44 556 125 556 l 44 599 l 249 614 l 249 153 q 251 100 249 119 q 265 58 254 81 q 303 26 276 36 q 371 15 329 15 q 492 77 446 15 q 539 231 539 139 l 539 478 q 521 542 539 529 q 431 556 503 556 l 431 599 l 635 614 l 635 121 q 653 56 635 69 q 743 43 671 43 l 743 0 m 390 921 q 374 885 390 907 l 246 710 q 217 726 225 719 l 292 928 q 300 947 297 940 q 313 960 303 953 q 339 968 324 968 q 374 953 358 968 q 390 921 390 939 m 622 921 q 606 885 622 907 l 478 710 q 449 726 457 719 l 524 928 q 532 947 529 940 q 545 960 535 953 q 571 968 556 968 q 606 953 590 968 q 622 921 622 939 z "},"Ų":{"ha":1042,"x_min":46,"x_max":994,"o":"m 994 906 q 913 897 944 906 q 869 868 881 888 q 854 835 857 849 q 851 797 851 821 l 851 353 q 847 257 851 285 q 743 53 829 136 q 539 -31 657 -31 l 525 -31 q 497 -57 506 -47 q 464 -132 464 -94 q 503 -202 464 -176 q 585 -228 542 -228 q 692 -150 656 -228 q 708 -143 697 -139 q 715 -160 718 -147 q 651 -256 699 -218 q 551 -293 604 -293 q 442 -256 486 -293 q 397 -168 397 -218 q 476 -25 397 -97 q 272 93 354 -3 q 189 317 189 189 l 189 840 q 172 893 189 881 q 79 906 154 906 l 46 906 l 46 949 q 251 944 94 944 q 456 949 407 944 l 456 906 l 422 906 q 330 893 347 906 q 313 840 313 881 l 313 311 q 338 154 313 218 q 404 62 364 90 q 477 23 444 33 q 542 13 510 13 q 728 97 647 13 q 808 321 808 181 l 808 803 q 806 836 808 824 q 791 867 803 849 q 747 896 779 886 q 665 906 715 906 l 665 949 l 831 944 l 994 949 l 994 906 z "},"ų":{"ha":772,"x_min":44,"x_max":774,"o":"m 771 -160 q 707 -256 754 -218 q 607 -293 660 -293 q 497 -256 542 -293 q 453 -168 453 -218 q 543 -14 453 -92 l 543 110 q 364 -15 485 -15 q 261 0 303 -15 q 199 35 219 15 q 167 92 178 54 q 154 152 156 129 q 153 219 153 175 l 153 428 q 139 539 153 522 q 44 556 125 556 l 44 599 l 249 614 l 249 153 q 251 100 249 119 q 265 58 254 81 q 303 26 276 36 q 371 15 329 15 q 492 77 446 15 q 539 231 539 139 l 539 478 q 521 542 539 529 q 431 556 503 556 l 431 599 l 635 614 l 635 121 q 653 56 635 69 q 743 43 671 43 l 743 0 l 606 -11 q 551 -57 579 -28 q 519 -132 519 -93 q 558 -202 519 -176 q 640 -228 597 -228 q 747 -150 711 -228 q 763 -143 753 -139 q 771 -160 774 -147 z "},"Ÿ":{"ha":1042,"x_min":15,"x_max":1025,"o":"m 1025 906 q 847 815 901 906 l 579 379 l 579 111 q 597 56 579 68 q 690 43 614 43 l 722 43 l 722 0 q 519 4 672 4 q 317 0 367 4 l 317 43 l 350 43 q 442 56 425 43 q 460 108 460 68 l 460 379 l 168 854 q 146 884 156 875 q 111 899 136 893 q 40 906 86 906 l 15 906 l 15 949 l 196 944 q 401 949 351 944 l 401 906 q 327 899 350 906 q 304 871 304 892 q 314 847 304 861 l 565 438 l 794 810 q 808 851 808 831 q 789 890 808 875 q 729 906 769 906 l 729 949 l 889 944 q 1025 949 961 944 l 1025 906 m 443 1089 q 424 1042 443 1063 q 375 1022 406 1022 q 328 1042 347 1022 q 308 1089 308 1063 q 327 1134 308 1114 q 376 1154 346 1154 q 424 1134 404 1154 q 443 1089 443 1114 m 735 1089 q 716 1042 735 1063 q 667 1022 697 1022 q 619 1042 639 1022 q 600 1089 600 1063 q 619 1134 600 1114 q 668 1154 638 1154 q 715 1134 696 1154 q 735 1089 735 1114 z "},"Ź":{"ha":849,"x_min":78,"x_max":778,"o":"m 778 371 l 754 0 l 114 0 q 84 3 90 0 q 78 24 78 7 q 88 51 78 36 l 628 906 l 410 906 q 272 887 326 906 q 188 828 217 868 q 147 745 158 789 q 131 636 135 701 l 96 636 l 111 949 l 733 949 q 751 949 746 949 q 761 946 756 949 q 768 939 767 943 q 769 926 769 935 q 760 900 769 915 l 221 47 l 449 47 q 576 63 524 47 q 660 104 629 79 q 708 174 690 129 q 733 262 726 219 q 743 371 739 304 l 778 371 m 615 1204 q 585 1167 611 1179 l 349 1036 l 329 1065 l 531 1246 q 567 1263 547 1263 q 605 1244 590 1263 q 615 1204 619 1226 z "},"ź":{"ha":617,"x_min":39,"x_max":557,"o":"m 557 260 l 533 0 l 75 0 q 46 3 53 0 q 39 19 39 6 q 51 44 39 29 l 439 568 l 281 568 q 135 528 171 568 q 93 375 100 488 l 58 375 l 74 599 l 518 599 q 540 598 533 599 q 550 593 546 597 q 554 581 554 589 q 542 557 554 572 l 156 35 l 319 35 q 474 83 435 35 q 522 260 513 131 l 557 260 m 481 919 q 457 878 481 896 l 246 708 l 222 733 l 389 946 q 431 969 404 969 q 465 954 450 969 q 481 919 481 939 z "},"Ż":{"ha":849,"x_min":78,"x_max":778,"o":"m 778 371 l 754 0 l 114 0 q 84 3 90 0 q 78 24 78 7 q 88 51 78 36 l 628 906 l 410 906 q 272 887 326 906 q 188 828 217 868 q 147 745 158 789 q 131 636 135 701 l 96 636 l 111 949 l 733 949 q 751 949 746 949 q 761 946 756 949 q 768 939 767 943 q 769 926 769 935 q 760 900 769 915 l 221 47 l 449 47 q 576 63 524 47 q 660 104 629 79 q 708 174 690 129 q 733 262 726 219 q 743 371 739 304 l 778 371 m 499 1126 q 478 1076 499 1099 q 424 1053 457 1053 q 372 1075 393 1053 q 350 1126 350 1097 q 371 1177 350 1154 q 425 1200 392 1200 q 477 1178 456 1200 q 499 1126 499 1156 z "},"ż":{"ha":617,"x_min":39,"x_max":557,"o":"m 557 260 l 533 0 l 75 0 q 46 3 53 0 q 39 19 39 6 q 51 44 39 29 l 439 568 l 281 568 q 135 528 171 568 q 93 375 100 488 l 58 375 l 74 599 l 518 599 q 540 598 533 599 q 550 593 546 597 q 554 581 554 589 q 542 557 554 572 l 156 35 l 319 35 q 474 83 435 35 q 522 260 513 131 l 557 260 m 382 839 q 361 788 382 811 q 307 765 340 765 q 255 788 276 765 q 233 839 233 810 q 254 890 233 867 q 308 913 275 913 q 360 890 339 913 q 382 839 382 868 z "},"Ž":{"ha":849,"x_min":78,"x_max":778,"o":"m 778 371 l 754 0 l 114 0 q 84 3 90 0 q 78 24 78 7 q 88 51 78 36 l 628 906 l 410 906 q 272 887 326 906 q 188 828 217 868 q 147 745 158 789 q 131 636 135 701 l 96 636 l 111 949 l 733 949 q 751 949 746 949 q 761 946 756 949 q 768 939 767 943 q 769 926 769 935 q 760 900 769 915 l 221 47 l 449 47 q 576 63 524 47 q 660 104 629 79 q 708 174 690 129 q 733 262 726 219 q 743 371 739 304 l 778 371 m 635 1185 l 425 1022 l 215 1185 l 232 1207 l 426 1115 l 621 1207 l 635 1185 z "},"ž":{"ha":617,"x_min":39,"x_max":557,"o":"m 557 260 l 533 0 l 75 0 q 46 3 53 0 q 39 19 39 6 q 51 44 39 29 l 439 568 l 281 568 q 135 528 171 568 q 93 375 100 488 l 58 375 l 74 599 l 518 599 q 540 598 533 599 q 550 593 546 597 q 554 581 554 589 q 542 557 554 572 l 156 35 l 319 35 q 474 83 435 35 q 522 260 513 131 l 557 260 m 519 942 l 308 717 l 97 942 l 115 961 l 308 811 l 501 961 l 519 942 z "},"ſ":{"ha":425,"x_min":46,"x_max":496,"o":"m 496 882 q 480 838 496 856 q 435 821 464 821 q 391 838 407 821 q 375 881 375 856 q 417 939 375 925 q 396 946 407 943 q 378 949 385 949 l 371 949 q 284 898 321 949 q 247 760 247 847 l 247 108 q 264 56 247 68 q 353 43 281 43 l 382 43 l 382 0 q 206 4 326 4 l 47 0 l 47 43 q 138 52 121 43 q 156 106 156 61 l 156 556 l 46 556 l 46 599 l 156 599 l 156 758 q 222 920 156 861 q 371 979 289 979 q 460 950 425 979 q 496 882 496 921 z "},"Ơ":{"ha":1081,"x_min":76,"x_max":1000,"o":"m 1000 471 q 865 117 1000 263 q 539 -31 729 -31 q 213 117 349 -31 q 76 471 76 264 q 213 831 76 679 q 539 979 346 979 q 797 893 678 979 q 871 951 846 904 q 853 949 860 949 q 799 971 818 949 q 779 1022 779 993 q 799 1074 779 1051 q 853 1096 818 1096 q 906 1069 885 1096 q 926 1008 926 1043 q 900 918 926 958 q 831 865 874 878 q 842 854 835 861 q 854 842 849 847 q 865 831 860 836 q 1000 471 1000 681 m 857 493 q 772 814 857 694 q 669 909 731 874 q 539 944 608 944 q 408 909 469 944 q 304 814 347 874 q 219 493 219 694 q 304 146 219 275 q 539 6 399 6 q 669 44 608 6 q 772 146 731 83 q 857 493 857 275 z "},"ơ":{"ha":694,"x_min":39,"x_max":678,"o":"m 678 657 q 649 563 678 604 q 575 513 621 522 q 653 294 653 419 q 563 75 653 165 q 346 -15 472 -15 q 128 75 221 -15 q 39 294 39 167 q 128 525 39 432 q 346 621 217 621 q 547 542 461 621 q 624 600 599 553 q 606 597 613 597 q 551 619 571 597 q 532 671 532 642 q 551 723 532 701 q 606 744 571 744 q 658 719 638 744 q 678 657 678 693 m 538 311 q 494 511 538 450 q 346 590 442 590 q 197 511 250 590 q 154 311 154 450 q 197 100 154 163 q 346 19 249 19 q 494 100 443 19 q 538 311 538 165 z "},"Ư":{"ha":1042,"x_min":46,"x_max":1008,"o":"m 1008 1007 q 963 899 1008 944 q 850 847 917 854 l 850 317 q 760 71 850 172 q 539 -31 669 -31 q 292 71 393 -31 q 189 317 189 171 l 189 857 q 165 899 189 888 q 46 907 140 907 l 46 949 l 250 944 l 454 949 l 454 907 q 336 899 360 907 q 311 857 311 889 l 311 317 q 369 97 311 175 q 539 11 435 11 q 731 99 651 11 q 808 317 808 188 l 808 818 q 772 885 808 860 q 665 907 736 907 l 665 949 l 829 944 q 850 949 839 944 l 850 882 q 960 953 928 893 q 935 949 950 949 q 881 971 900 949 q 861 1022 861 993 q 881 1074 861 1051 q 935 1096 900 1096 q 988 1069 967 1096 q 1008 1007 1008 1043 z "},"ư":{"ha":772,"x_min":44,"x_max":793,"o":"m 793 654 q 747 553 793 594 q 632 500 701 511 l 632 119 q 650 56 632 68 q 740 43 668 43 l 740 0 l 540 -15 l 540 108 q 471 19 515 53 q 369 -15 426 -15 q 206 29 261 -15 q 151 168 151 75 l 151 478 q 133 543 151 529 q 44 556 115 556 l 44 597 l 249 614 l 249 168 q 269 50 249 75 q 372 15 299 15 q 488 75 442 15 q 536 219 535 135 l 536 485 q 518 543 536 529 q 428 556 500 556 l 428 597 l 632 614 l 632 540 q 736 599 703 554 q 728 598 733 599 q 719 597 722 597 q 665 619 685 597 q 646 671 646 642 q 665 723 646 701 q 719 744 685 744 q 772 717 751 744 q 793 654 793 690 z "},"Ș":{"ha":772,"x_min":78,"x_max":693,"o":"m 693 258 q 616 55 693 140 q 419 -31 539 -31 q 267 -2 333 -31 q 164 67 200 26 l 114 -12 q 93 -31 103 -31 q 80 -24 82 -31 q 78 3 78 -17 l 78 281 q 78 301 78 296 q 83 311 79 307 q 96 315 88 315 q 113 301 111 315 q 199 88 117 164 q 418 13 279 13 q 553 72 501 13 q 604 211 604 132 q 561 339 604 286 q 520 378 543 363 q 483 398 497 393 q 443 410 469 403 q 260 456 271 451 q 128 553 178 483 q 78 710 78 624 q 156 900 78 821 q 349 979 235 979 q 453 961 406 979 q 521 927 501 943 q 571 882 540 911 l 619 961 q 640 979 631 979 q 653 973 651 979 q 656 946 656 967 l 656 667 q 655 646 656 651 q 650 637 654 640 q 638 633 646 633 q 621 650 624 633 q 350 940 582 940 q 219 887 271 940 q 167 758 167 833 q 205 647 167 697 q 307 582 243 597 l 485 539 q 633 440 574 518 q 693 258 693 361 m 447 -201 q 426 -305 447 -256 q 383 -378 404 -354 q 353 -403 361 -403 q 342 -392 342 -403 q 349 -381 342 -387 q 422 -185 424 -299 q 381 -201 406 -201 q 340 -185 354 -201 q 325 -147 325 -169 q 340 -108 325 -125 q 381 -92 356 -92 q 429 -122 411 -92 q 447 -201 447 -151 z "},"ș":{"ha":547,"x_min":46,"x_max":500,"o":"m 500 178 q 444 40 500 96 q 276 -15 389 -15 q 124 44 186 -15 q 109 29 115 36 q 101 19 103 22 q 98 15 99 17 q 96 13 97 14 q 61 -15 68 -15 q 48 -9 50 -15 q 46 18 46 -3 l 46 201 q 47 222 46 217 q 51 232 47 228 q 64 236 56 236 q 77 232 74 236 q 83 213 81 228 q 149 66 104 117 q 276 15 194 15 q 394 50 354 15 q 433 142 433 85 q 289 269 433 243 q 171 297 206 286 q 106 333 136 308 q 46 451 46 382 q 99 572 46 521 q 268 622 151 622 q 399 583 346 622 q 422 606 414 596 q 450 622 440 622 q 463 615 461 622 q 465 589 465 608 l 465 449 q 465 428 465 433 q 460 419 464 422 q 447 415 456 415 q 431 428 432 415 q 268 596 419 596 q 149 565 186 596 q 113 490 113 533 q 124 449 113 467 q 149 420 135 431 q 191 400 164 410 q 235 387 218 390 q 283 376 251 383 q 442 310 394 356 q 500 178 500 251 m 335 -201 q 313 -305 335 -256 q 270 -378 292 -354 q 240 -403 249 -403 q 229 -392 229 -403 q 236 -381 229 -387 q 310 -185 311 -299 q 268 -201 293 -201 q 227 -185 242 -201 q 213 -147 213 -169 q 227 -108 213 -125 q 268 -92 242 -92 q 317 -122 299 -92 q 335 -201 335 -151 z "},"Ț":{"ha":1003,"x_min":50,"x_max":951,"o":"m 951 628 l 917 628 q 906 726 911 690 q 890 797 901 763 q 863 847 878 831 q 821 877 849 864 q 757 894 793 890 q 667 897 721 897 q 588 894 603 897 q 567 878 571 890 q 563 842 563 867 l 563 110 q 568 71 563 82 q 606 51 574 60 q 708 43 638 43 l 764 43 l 764 0 q 500 4 707 4 q 238 0 294 4 l 238 43 l 293 43 q 396 51 364 43 q 433 71 428 60 q 439 110 439 82 l 439 842 q 438 869 439 861 q 430 885 436 878 q 410 894 424 892 q 335 897 396 897 q 244 894 281 897 q 181 877 208 890 q 138 847 153 864 q 112 797 124 831 q 95 726 100 763 q 85 628 90 690 l 50 628 l 76 940 l 925 940 l 951 628 m 563 -201 q 541 -305 563 -256 q 498 -378 519 -354 q 468 -403 476 -403 q 457 -392 457 -403 q 464 -381 457 -387 q 538 -185 539 -299 q 496 -201 521 -201 q 455 -185 469 -201 q 440 -147 440 -169 q 455 -108 440 -125 q 496 -92 469 -92 q 544 -122 526 -92 q 563 -201 563 -151 z "},"ț":{"ha":540,"x_min":26,"x_max":461,"o":"m 461 172 q 426 41 461 97 q 324 -15 392 -15 q 274 -9 299 -15 q 217 14 249 -3 q 165 72 185 31 q 144 172 144 113 l 144 556 l 26 556 l 26 586 q 133 634 90 589 q 190 735 175 679 q 206 854 204 790 l 240 854 l 240 599 l 439 599 l 439 556 l 240 556 l 240 169 q 333 19 240 19 q 400 60 374 19 q 426 175 426 101 l 426 251 l 461 251 l 461 172 m 331 -201 q 309 -305 331 -256 q 266 -378 288 -354 q 236 -403 244 -403 q 225 -392 225 -403 q 232 -381 225 -387 q 306 -185 307 -299 q 264 -201 289 -201 q 223 -185 238 -201 q 208 -147 208 -169 q 224 -108 208 -125 q 264 -92 239 -92 q 313 -122 294 -92 q 331 -201 331 -151 z "},"ȷ":{"ha":425,"x_min":-56,"x_max":292,"o":"m 292 -69 q 236 -224 292 -162 q 101 -285 181 -285 q -9 -255 38 -285 q -56 -174 -56 -225 q -38 -128 -56 -146 q 8 -110 -21 -110 q 55 -128 38 -110 q 72 -174 72 -146 q 58 -215 72 -199 q 24 -236 43 -231 q 99 -254 60 -254 q 152 -235 131 -254 q 183 -185 174 -217 q 197 -128 193 -154 q 200 -72 200 -101 l 200 478 q 180 542 200 529 q 81 556 160 556 l 81 599 l 292 614 l 292 -69 z "},"ˆ":{"ha":694,"x_min":136,"x_max":558,"o":"m 558 736 l 540 717 l 347 867 l 154 717 l 136 736 l 347 961 l 558 736 z "},"ˇ":{"ha":694,"x_min":136,"x_max":558,"o":"m 558 942 l 347 717 l 136 942 l 154 961 l 347 811 l 540 961 l 558 942 z "},"˘":{"ha":694,"x_min":140,"x_max":556,"o":"m 556 958 q 493 786 554 853 q 347 719 432 719 q 203 785 265 719 q 140 958 142 850 l 171 958 q 226 823 172 874 q 349 772 279 772 q 469 823 415 772 q 525 958 524 874 l 556 958 z "},"˙":{"ha":386,"x_min":118,"x_max":267,"o":"m 267 839 q 246 788 267 811 q 192 765 225 765 q 140 788 161 765 q 118 839 118 810 q 139 890 118 867 q 193 913 160 913 q 245 890 224 913 q 267 839 267 868 z "},"˚":{"ha":1042,"x_min":388,"x_max":654,"o":"m 521 776 q 565 776 521 776 q 608 857 608 776 q 521 938 608 938 q 433 857 433 938 q 521 776 433 776 m 654 858 q 616 771 654 807 q 519 735 578 735 q 426 770 465 735 q 388 858 388 806 q 426 942 388 906 q 522 979 464 979 q 616 943 578 979 q 654 858 654 907 z "},"˛":{"ha":694,"x_min":188,"x_max":508,"o":"m 506 -160 q 442 -256 489 -218 q 342 -293 394 -293 q 232 -256 276 -293 q 188 -168 188 -218 q 222 -75 188 -122 q 306 7 256 -28 l 371 7 q 288 -57 322 -18 q 254 -132 254 -94 q 293 -202 254 -176 q 375 -228 332 -228 q 482 -150 446 -228 q 498 -143 488 -139 q 506 -160 508 -147 z "},"˜":{"ha":694,"x_min":117,"x_max":579,"o":"m 579 883 q 518 818 535 835 q 478 788 501 801 q 429 775 454 775 q 343 807 397 775 q 253 842 283 842 q 197 825 225 842 q 153 792 168 808 l 139 775 l 117 796 q 178 861 161 844 q 218 891 194 878 q 267 904 242 904 q 353 872 299 904 q 443 838 411 838 q 499 854 471 838 q 542 888 528 871 l 557 904 l 579 883 z "},"˝":{"ha":694,"x_min":178,"x_max":583,"o":"m 351 921 q 335 885 351 907 l 207 710 q 178 726 186 719 l 253 928 q 261 947 258 940 q 274 960 264 953 q 300 968 285 968 q 335 953 319 968 q 351 921 351 939 m 583 921 q 567 885 583 907 l 439 710 q 410 726 418 719 l 485 928 q 493 947 490 940 q 506 960 496 953 q 532 968 517 968 q 567 953 551 968 q 583 921 583 939 z "},"̀":{"ha":0,"x_min":-539,"x_max":-281,"o":"m -281 782 l -304 757 l -515 926 q -539 968 -539 944 q -524 1002 -539 986 q -489 1018 -508 1018 q -447 994 -462 1018 l -281 782 z "},"́":{"ha":0,"x_min":-453,"x_max":-194,"o":"m -194 968 q -218 926 -194 944 l -429 757 l -453 782 l -286 994 q -244 1018 -271 1018 q -210 1002 -225 1018 q -194 968 -194 986 z "},"̂":{"ha":0,"x_min":-619,"x_max":-114,"o":"m -114 843 l -131 815 q -367 933 -244 864 q -603 815 -489 864 l -619 843 q -367 1019 -506 942 q -114 843 -228 942 z "},"̃":{"ha":0,"x_min":-624,"x_max":-110,"o":"m -110 1019 q -111 1017 -110 1018 q -137 905 -121 944 q -192 847 -154 865 q -254 833 -219 833 q -382 868 -304 833 q -475 899 -449 899 q -510 890 -493 899 q -590 783 -581 856 q -607 769 -593 769 q -624 786 -624 769 q -622 789 -624 788 q -596 901 -612 861 q -542 958 -579 940 q -479 972 -514 972 q -351 938 -429 972 q -258 907 -285 907 q -224 915 -240 907 q -143 1022 -153 950 q -126 1036 -140 1036 q -110 1019 -110 1036 z "},"̄":{"ha":0,"x_min":-617,"x_max":-115,"o":"m -115 846 l -617 846 l -617 889 l -115 889 l -115 846 z "},"̅":{"ha":0,"x_min":-639,"x_max":-94,"o":"m -103 922 q -99 918 -103 922 q -94 903 -94 914 q -103 883 -94 892 q -122 875 -111 875 l -611 875 q -631 883 -622 875 q -639 903 -639 892 q -631 922 -639 914 q -611 931 -622 931 l -122 931 q -103 922 -111 931 z "},"̆":{"ha":0,"x_min":-626,"x_max":-107,"o":"m -107 1001 q -206 871 -133 919 q -367 822 -278 822 q -528 871 -456 822 q -626 1001 -600 919 l -596 1013 q -367 897 -557 897 q -137 1013 -176 897 l -107 1001 z "},"̇":{"ha":0,"x_min":-442,"x_max":-293,"o":"m -293 867 q -314 816 -293 839 q -368 793 -335 793 q -420 815 -399 793 q -442 867 -442 838 q -421 917 -442 894 q -367 940 -400 940 q -315 918 -336 940 q -293 867 -293 896 z "},"̈":{"ha":0,"x_min":-557,"x_max":-175,"o":"m -422 868 q -441 822 -422 842 q -490 801 -460 801 q -537 822 -518 801 q -557 868 -557 842 q -538 913 -557 893 q -489 933 -519 933 q -442 913 -461 933 q -422 868 -422 893 m -175 868 q -194 822 -175 842 q -243 801 -212 801 q -290 822 -271 801 q -310 868 -310 842 q -291 913 -310 893 q -242 933 -272 933 q -194 913 -214 933 q -175 868 -175 893 z "},"̉":{"ha":0,"x_min":-501,"x_max":-232,"o":"m -232 919 q -274 860 -232 878 q -362 763 -362 815 l -362 736 q -376 722 -362 722 q -390 736 -390 722 l -390 763 q -324 882 -390 828 q -307 919 -307 894 q -318 968 -307 958 q -376 986 -337 986 q -454 961 -425 986 q -419 919 -419 956 q -431 890 -419 901 q -460 879 -443 879 q -490 890 -478 879 q -501 921 -501 901 q -465 988 -501 963 q -376 1013 -428 1013 q -272 990 -311 1013 q -232 919 -232 965 z "},"̊":{"ha":0,"x_min":-500,"x_max":-233,"o":"m -367 804 q -323 804 -367 804 q -279 885 -279 804 q -367 965 -279 965 q -454 885 -454 965 q -367 804 -454 804 m -233 886 q -272 799 -233 835 q -368 763 -310 763 q -461 798 -422 763 q -500 886 -500 833 q -462 970 -500 933 q -365 1007 -424 1007 q -272 971 -310 1007 q -233 886 -233 935 z "},"̋":{"ha":0,"x_min":-536,"x_max":-131,"o":"m -362 969 q -379 933 -362 956 l -507 758 q -536 775 -528 768 l -461 976 q -453 995 -456 989 q -440 1009 -450 1001 q -414 1017 -429 1017 q -378 1002 -394 1017 q -362 969 -362 988 m -131 969 q -147 933 -131 956 l -275 758 q -304 775 -296 768 l -229 976 q -221 995 -224 989 q -208 1009 -218 1001 q -182 1017 -197 1017 q -147 1002 -162 1017 q -131 969 -131 988 z "},"̌":{"ha":0,"x_min":-619,"x_max":-114,"o":"m -114 979 q -367 803 -228 881 q -619 979 -506 881 l -603 1007 q -367 889 -489 958 q -131 1007 -244 958 l -114 979 z "},"̏":{"ha":0,"x_min":-603,"x_max":-197,"o":"m -197 775 q -226 758 -206 768 l -354 933 q -371 969 -371 956 q -355 1002 -371 988 q -319 1017 -339 1017 q -294 1009 -304 1017 q -281 995 -283 1001 q -272 976 -278 989 l -197 775 m -429 775 q -458 758 -437 768 l -586 933 q -603 969 -603 956 q -587 1002 -603 988 q -551 1017 -571 1017 q -526 1009 -536 1017 q -512 995 -515 1001 q -504 976 -510 989 l -429 775 z "},"̑":{"ha":0,"x_min":-626,"x_max":-107,"o":"m -107 851 l -137 840 q -367 956 -176 956 q -596 840 -557 956 l -626 851 q -528 982 -600 933 q -367 1031 -456 1031 q -206 982 -278 1031 q -107 851 -133 933 z "},"̣":{"ha":0,"x_min":-442,"x_max":-293,"o":"m -293 -204 q -314 -255 -293 -232 q -368 -278 -335 -278 q -420 -256 -399 -278 q -442 -204 -442 -233 q -421 -153 -442 -176 q -367 -131 -400 -131 q -315 -153 -336 -131 q -293 -204 -293 -175 z "},"̦":{"ha":0,"x_min":-428,"x_max":-306,"o":"m -306 -201 q -327 -305 -306 -256 q -370 -378 -349 -354 q -400 -403 -392 -403 q -411 -392 -411 -403 q -404 -381 -411 -387 q -331 -185 -329 -299 q -372 -201 -347 -201 q -413 -185 -399 -201 q -428 -147 -428 -169 q -412 -108 -428 -125 q -372 -92 -397 -92 q -324 -122 -342 -92 q -306 -201 -306 -151 z "},"̬":{"ha":0,"x_min":-619,"x_max":-114,"o":"m -114 -162 q -367 -337 -236 -267 q -619 -162 -497 -267 l -603 -133 q -367 -251 -472 -192 q -131 -133 -261 -192 l -114 -162 z "},"̭":{"ha":0,"x_min":-619,"x_max":-114,"o":"m -114 -326 l -131 -354 q -367 -236 -244 -306 q -603 -354 -489 -306 l -619 -326 q -367 -150 -506 -228 q -114 -326 -228 -228 z "},"̮":{"ha":0,"x_min":-626,"x_max":-107,"o":"m -107 -144 q -206 -275 -133 -226 q -367 -324 -278 -324 q -528 -275 -456 -324 q -626 -144 -600 -226 l -596 -133 q -367 -249 -557 -249 q -137 -133 -176 -249 l -107 -144 z "},"̯":{"ha":0,"x_min":-626,"x_max":-107,"o":"m -107 -343 l -137 -354 q -367 -239 -176 -239 q -596 -354 -557 -239 l -626 -343 q -528 -212 -600 -261 q -367 -164 -456 -164 q -206 -212 -278 -164 q -107 -343 -133 -261 z "},"̰":{"ha":0,"x_min":-624,"x_max":-110,"o":"m -110 -181 q -111 -183 -110 -182 q -137 -295 -121 -256 q -192 -353 -154 -335 q -254 -367 -219 -367 q -382 -332 -304 -367 q -475 -301 -449 -301 q -510 -310 -493 -301 q -590 -417 -581 -344 q -607 -431 -593 -431 q -624 -414 -624 -431 q -622 -411 -624 -412 q -596 -299 -612 -339 q -542 -242 -579 -260 q -479 -228 -514 -228 q -351 -262 -429 -228 q -258 -293 -285 -293 q -224 -285 -240 -293 q -143 -178 -153 -250 q -126 -164 -140 -164 q -110 -181 -110 -164 z "},"̱":{"ha":0,"x_min":-617,"x_max":-115,"o":"m -115 -225 l -617 -225 l -617 -182 l -115 -182 l -115 -225 z "},"̲":{"ha":0,"x_min":-639,"x_max":-94,"o":"m -103 -151 q -99 -156 -103 -151 q -94 -171 -94 -160 q -103 -190 -94 -182 q -122 -199 -111 -199 l -611 -199 q -631 -190 -622 -199 q -639 -171 -639 -182 q -631 -151 -639 -160 q -611 -143 -622 -143 l -122 -143 q -103 -151 -111 -143 z "},"̳":{"ha":0,"x_min":-639,"x_max":-94,"o":"m -103 -151 q -99 -156 -103 -151 q -94 -171 -94 -160 q -103 -190 -94 -182 q -122 -199 -111 -199 l -611 -199 q -631 -190 -622 -199 q -639 -171 -639 -182 q -631 -151 -639 -160 q -611 -143 -622 -143 l -122 -143 q -103 -151 -111 -143 m -103 -360 q -99 -364 -103 -360 q -94 -379 -94 -368 q -103 -399 -94 -390 q -122 -407 -111 -407 l -611 -407 q -631 -399 -622 -407 q -639 -379 -639 -390 q -631 -360 -639 -368 q -611 -351 -622 -351 l -122 -351 q -103 -360 -111 -351 z "},"̸":{"ha":0,"x_min":-636,"x_max":-96,"o":"m -96 1014 q -99 1004 -96 1010 l -583 -329 q -608 -347 -587 -347 q -628 -339 -621 -347 q -636 -319 -636 -331 q -635 -310 -636 -312 l -150 1024 q -124 1042 -146 1042 q -104 1033 -112 1042 q -96 1014 -96 1025 z "},"̿":{"ha":0,"x_min":-639,"x_max":-94,"o":"m -103 922 q -99 918 -103 922 q -94 903 -94 914 q -103 883 -94 892 q -122 875 -111 875 l -611 875 q -631 883 -622 875 q -639 903 -639 892 q -631 922 -639 914 q -611 931 -622 931 l -122 931 q -103 922 -111 931 m -103 1131 q -99 1126 -103 1131 q -94 1111 -94 1122 q -103 1092 -94 1100 q -122 1083 -111 1083 l -611 1083 q -631 1092 -622 1083 q -639 1111 -639 1100 q -631 1131 -639 1122 q -611 1139 -622 1139 l -122 1139 q -103 1131 -111 1139 z "},"͍":{"ha":0,"x_min":-693,"x_max":-40,"o":"m -54 -239 q -40 -258 -40 -243 q -54 -278 -40 -274 q -167 -378 -132 -304 q -186 -390 -172 -390 q -201 -384 -194 -390 q -207 -369 -207 -378 q -204 -361 -207 -367 q -142 -279 -185 -315 l -592 -279 q -529 -361 -549 -315 q -526 -369 -526 -367 q -533 -384 -526 -378 q -547 -390 -539 -390 q -567 -378 -561 -390 q -679 -278 -601 -304 q -693 -258 -693 -274 q -679 -239 -693 -243 q -567 -139 -601 -212 q -547 -126 -561 -126 q -533 -133 -539 -126 q -526 -147 -526 -139 q -529 -156 -526 -150 q -592 -237 -549 -201 l -142 -237 q -204 -156 -185 -201 q -207 -147 -207 -150 q -201 -133 -207 -139 q -186 -126 -194 -126 q -167 -139 -172 -126 q -54 -239 -132 -212 z "},"Α":{"ha":1042,"x_min":44,"x_max":996,"o":"m 996 0 l 814 4 q 614 0 664 4 l 614 43 q 729 85 729 43 q 725 104 729 88 l 651 317 l 308 317 l 244 135 q 242 114 242 129 q 269 64 242 85 q 346 43 296 43 l 346 0 l 186 4 l 44 0 l 44 43 q 200 136 168 46 l 488 967 q 499 989 493 983 q 521 994 506 994 q 534 993 529 994 q 542 987 539 992 q 547 979 546 982 q 553 967 549 976 l 853 99 q 886 53 864 64 q 971 43 908 43 l 996 43 l 996 0 m 636 360 l 479 811 l 324 360 l 636 360 z "},"Β":{"ha":983,"x_min":50,"x_max":904,"o":"m 904 254 q 817 76 904 153 q 594 0 729 0 l 50 0 l 50 43 l 83 43 q 176 56 158 43 q 193 108 193 68 l 193 840 q 176 893 193 881 q 83 906 158 906 l 50 906 l 50 949 l 558 949 q 778 878 690 949 q 867 714 867 807 q 802 576 867 638 q 636 496 738 515 q 828 414 751 483 q 904 254 904 344 m 732 714 q 686 844 732 782 q 549 906 640 906 l 376 906 q 319 896 329 906 q 308 850 308 886 l 308 508 l 510 508 q 674 573 617 508 q 732 714 732 638 m 708 108 q 736 141 708 108 q 765 256 765 174 q 715 408 765 338 q 569 478 664 478 l 308 478 l 308 99 q 319 53 308 63 q 376 43 329 43 l 550 43 q 708 108 650 43 z "},"Γ":{"ha":868,"x_min":46,"x_max":808,"o":"m 808 632 l 774 632 q 753 755 764 711 q 715 835 742 799 q 643 887 689 872 q 524 901 597 901 l 381 901 q 323 892 333 901 q 313 846 313 882 l 313 110 q 317 69 313 81 q 351 51 322 58 q 444 43 381 43 l 490 43 l 490 0 q 257 4 440 4 q 46 0 94 4 l 46 43 l 79 43 q 172 56 154 43 q 189 108 189 68 l 189 836 q 172 889 189 876 q 79 901 154 901 l 46 901 l 46 944 l 769 944 l 808 632 z "},"Δ":{"ha":1157,"x_min":65,"x_max":1090,"o":"m 1090 11 q 1060 0 1090 0 l 96 0 q 65 11 65 0 q 72 28 65 15 l 542 969 q 550 985 547 981 q 560 992 553 989 q 578 994 567 994 q 600 990 594 994 q 614 969 606 985 l 1083 28 l 1090 11 m 907 106 l 533 856 l 158 106 l 907 106 z "},"Ε":{"ha":946,"x_min":46,"x_max":906,"o":"m 906 358 l 847 0 l 46 0 l 46 43 l 79 43 q 172 56 154 43 q 189 108 189 68 l 189 836 q 172 889 189 876 q 79 901 154 901 l 46 901 l 46 944 l 828 944 l 867 632 l 832 632 q 810 757 822 711 q 767 838 797 803 q 688 888 738 874 q 560 901 639 901 l 381 901 q 323 892 333 901 q 313 846 313 882 l 313 513 l 438 513 q 560 546 533 513 q 588 675 588 579 l 622 675 l 622 307 l 588 307 q 560 435 588 401 q 438 469 533 469 l 313 469 l 313 99 q 323 53 313 63 q 381 43 333 43 l 565 43 q 669 51 625 43 q 743 78 713 58 q 794 119 774 97 q 830 182 815 142 q 853 260 844 222 q 871 358 861 297 l 906 358 z "},"Ζ":{"ha":849,"x_min":78,"x_max":778,"o":"m 778 371 l 754 0 l 114 0 q 84 3 90 0 q 78 24 78 7 q 88 51 78 36 l 628 906 l 410 906 q 272 887 326 906 q 188 828 217 868 q 147 745 158 789 q 131 636 135 701 l 96 636 l 111 949 l 733 949 q 751 949 746 949 q 761 946 756 949 q 768 939 767 943 q 769 926 769 935 q 760 900 769 915 l 221 47 l 449 47 q 576 63 524 47 q 660 104 629 79 q 708 174 690 129 q 733 262 726 219 q 743 371 739 304 l 778 371 z "},"Η":{"ha":1042,"x_min":46,"x_max":994,"o":"m 994 0 q 789 4 946 4 q 585 0 633 4 l 585 43 l 618 43 q 710 56 693 43 q 728 108 728 68 l 728 472 l 313 472 l 313 108 q 330 56 313 68 q 422 43 347 43 l 456 43 l 456 0 q 250 4 407 4 q 46 0 94 4 l 46 43 l 79 43 q 172 56 154 43 q 189 108 189 68 l 189 840 q 172 893 189 881 q 79 906 154 906 l 46 906 l 46 949 q 251 944 94 944 q 456 949 407 944 l 456 906 l 422 906 q 330 893 347 906 q 313 840 313 881 l 313 515 l 728 515 l 728 840 q 710 893 728 881 q 618 906 693 906 l 585 906 l 585 949 q 790 944 633 944 q 994 949 946 944 l 994 906 l 961 906 q 869 893 886 906 q 851 840 851 881 l 851 108 q 869 56 851 68 q 961 43 886 43 l 994 43 l 994 0 z "},"Θ":{"ha":1081,"x_min":78,"x_max":1001,"o":"m 1001 471 q 865 115 1001 261 q 539 -31 729 -31 q 215 115 351 -31 q 78 471 78 260 q 214 831 78 683 q 539 979 350 979 q 865 831 729 979 q 1001 471 1001 682 m 867 471 q 835 692 867 596 q 754 842 804 789 q 649 922 704 896 q 539 949 594 949 q 431 923 485 949 q 326 844 376 897 q 244 694 275 792 q 213 471 213 597 q 244 251 213 346 q 326 103 275 156 q 431 26 376 51 q 540 1 485 1 q 624 16 582 1 q 711 65 667 31 q 790 152 756 100 q 845 287 824 204 q 867 471 867 369 m 788 375 l 753 375 l 753 422 l 326 422 l 326 375 l 292 375 l 292 575 l 326 575 l 326 528 l 753 528 l 753 575 l 788 575 l 788 375 z "},"Ι":{"ha":501,"x_min":39,"x_max":463,"o":"m 463 0 q 250 4 414 4 q 39 0 88 4 l 39 43 l 75 43 q 171 56 153 43 q 189 108 189 68 l 189 840 q 171 893 189 881 q 75 906 153 906 l 39 906 l 39 949 q 251 944 88 944 q 463 949 414 944 l 463 906 l 426 906 q 331 893 349 906 q 313 840 313 881 l 313 108 q 331 56 313 68 q 426 43 349 43 l 463 43 l 463 0 z "},"Κ":{"ha":1081,"x_min":46,"x_max":1022,"o":"m 1022 0 l 863 4 q 664 0 713 4 l 664 43 q 746 85 746 43 q 725 132 746 100 l 474 504 l 313 351 l 313 108 q 330 56 313 68 q 422 43 347 43 l 456 43 l 456 0 q 250 4 407 4 q 46 0 94 4 l 46 43 l 79 43 q 172 56 154 43 q 189 108 189 68 l 189 840 q 172 893 189 881 q 79 906 154 906 l 46 906 l 46 949 q 251 944 94 944 q 456 949 407 944 l 456 906 l 422 906 q 330 893 347 906 q 313 840 313 881 l 313 399 l 747 814 q 772 860 772 836 q 769 877 772 868 q 749 896 765 886 q 708 906 733 906 l 708 949 q 885 944 756 944 q 1003 949 967 944 l 1003 906 q 806 822 888 904 l 556 582 l 876 110 q 934 55 906 67 q 1022 43 963 43 l 1022 0 z "},"Λ":{"ha":964,"x_min":44,"x_max":918,"o":"m 918 0 l 747 4 q 547 0 596 4 l 547 43 q 665 85 665 43 q 658 110 665 90 l 439 793 l 231 146 q 224 115 224 126 q 251 66 224 88 q 331 43 278 44 l 331 0 l 174 4 l 44 0 l 44 43 q 183 139 151 43 l 450 965 q 461 989 456 983 q 482 994 467 994 q 501 989 494 994 q 514 965 508 983 l 792 103 q 823 53 804 63 q 918 43 842 43 l 918 0 z "},"Μ":{"ha":1274,"x_min":51,"x_max":1221,"o":"m 1221 0 q 1022 4 1169 4 q 822 0 874 4 l 822 43 l 856 43 q 948 56 931 43 q 965 108 965 68 l 965 906 l 964 906 l 622 26 q 597 0 613 0 q 569 31 581 0 l 235 894 l 233 894 l 233 146 q 236 113 233 125 q 251 81 239 100 q 294 53 263 63 q 376 43 326 43 l 376 0 l 214 4 l 51 0 l 51 43 q 133 53 101 43 q 177 81 165 63 q 192 113 189 100 q 194 146 194 125 l 194 840 q 177 893 194 881 q 85 906 160 906 l 51 906 l 51 949 l 286 949 q 318 944 311 949 q 335 918 325 940 l 636 140 l 940 922 q 953 945 947 942 q 986 949 960 949 l 1221 949 l 1221 906 l 1188 906 q 1095 893 1113 906 q 1078 840 1078 881 l 1078 108 q 1095 56 1078 68 q 1188 43 1113 43 l 1221 43 l 1221 0 z "},"Ν":{"ha":1042,"x_min":46,"x_max":994,"o":"m 994 906 q 913 896 944 906 q 869 867 881 886 q 854 836 857 849 q 851 803 851 824 l 851 36 q 849 7 851 14 q 832 0 846 0 q 808 18 822 0 l 242 851 q 228 868 236 860 l 228 146 q 231 113 228 125 q 245 81 233 100 q 289 53 257 63 q 371 43 321 43 l 371 0 l 208 4 l 46 0 l 46 43 q 128 53 96 43 q 172 81 160 63 q 186 113 183 100 q 189 146 189 125 l 189 871 q 184 895 189 890 q 156 903 179 900 q 86 906 114 906 l 46 906 l 46 949 l 282 949 q 307 946 301 949 q 322 931 313 943 l 813 210 l 813 803 q 810 836 813 824 q 795 867 807 849 q 751 896 783 886 q 669 906 719 906 l 669 949 l 832 944 l 994 949 l 994 906 z "},"Ξ":{"ha":926,"x_min":58,"x_max":867,"o":"m 860 724 l 825 724 q 808 832 821 813 q 703 843 800 843 l 222 843 q 117 832 125 843 q 100 724 104 813 l 65 724 l 76 940 l 849 940 l 860 724 m 867 232 l 856 0 l 69 0 l 58 232 l 93 232 q 110 111 97 131 q 221 97 119 97 l 704 97 q 815 113 807 97 q 832 232 825 131 l 867 232 m 732 369 l 697 369 l 697 440 l 228 440 l 228 369 l 193 369 l 193 608 l 228 608 l 228 538 l 697 538 l 697 608 l 732 608 l 732 369 z "},"Ο":{"ha":1081,"x_min":78,"x_max":1001,"o":"m 1001 471 q 865 115 1001 261 q 539 -31 729 -31 q 215 115 351 -31 q 78 471 78 260 q 214 831 78 683 q 539 979 350 979 q 865 831 729 979 q 1001 471 1001 682 m 858 490 q 837 674 858 592 q 781 805 815 756 q 703 887 747 854 q 619 932 660 919 q 539 944 578 944 q 440 923 490 944 q 338 853 389 901 q 253 712 286 806 q 221 490 221 618 q 251 263 221 361 q 331 110 282 164 q 433 31 381 57 q 540 6 486 6 q 645 31 593 6 q 747 108 697 56 q 827 260 796 161 q 858 490 858 360 z "},"Π":{"ha":1042,"x_min":46,"x_max":994,"o":"m 994 0 q 789 4 946 4 q 585 0 633 4 l 585 43 l 618 43 q 710 56 693 43 q 728 108 728 68 l 728 901 l 313 901 l 313 108 q 330 56 313 68 q 422 43 347 43 l 456 43 l 456 0 q 250 4 407 4 q 46 0 94 4 l 46 43 l 79 43 q 172 56 154 43 q 189 108 189 68 l 189 836 q 172 889 189 876 q 79 901 154 901 l 46 901 l 46 944 l 994 944 l 994 901 l 961 901 q 869 889 886 901 q 851 836 851 876 l 851 108 q 869 56 851 68 q 961 43 886 43 l 994 43 l 994 0 z "}}}
